<svg width="48" height="48" viewBox="0 0 48 48" fill="none" xmlns="http://www.w3.org/2000/svg">
<circle cx="24" cy="24" r="24" fill="#000D1D" fill-opacity="0.04"/>
<rect x="0.23716" y="0.182506" width="25.1607" height="18.6648" rx="2.4359" transform="matrix(0.978148 -0.207912 0.0495471 0.998772 9.81596 16.0158)" fill="black" stroke="black" stroke-width="0.461538"/>
<rect x="0.23716" y="0.182506" width="25.1607" height="18.6648" rx="2.4359" transform="matrix(0.978148 -0.207912 0.0495471 0.998772 8.86821 15.466)" fill="white" stroke="black" stroke-width="0.461538"/>
<path d="M13.8623 23.952L17.5762 23.1694" stroke="#EBE9E9" stroke-width="1.84615" stroke-linecap="round"/>
<path d="M14.084 27.9083L17.7258 27.1822" stroke="#EBE9E9" stroke-width="1.84615" stroke-linecap="round"/>
<path d="M13.5146 19.9391L30.2863 16.0613" stroke="#EBE9E9" stroke-width="1.84615" stroke-linecap="round"/>
<path d="M21.8659 20.5819L36.9279 17.3804C37.5512 17.2479 38.0826 17.6568 38.1141 18.2933L38.8337 32.7989C38.8652 33.4353 38.385 34.0583 37.7618 34.1908L22.6999 37.3923C22.0766 37.5248 21.5453 37.1167 21.5136 36.4804L20.794 21.9748C20.7625 21.3383 21.2426 20.7144 21.8659 20.5819Z" fill="white" stroke="black" stroke-width="0.461538"/>
<path d="M23.1429 23.6253C23.1176 23.1161 23.5014 22.6174 24.0001 22.5115L34.9222 20.1899C35.4209 20.0839 35.8456 20.4107 35.8708 20.9199L36.3855 31.2944C36.4108 31.8036 36.027 32.3023 35.5283 32.4082L24.6062 34.7298C24.1075 34.8358 23.6828 34.509 23.6576 33.9998L23.1429 23.6253Z" fill="#1E2D64"/>
<path d="M29.768 25.8417L28.5653 26.0325M29.9879 23.3408L29.7141 24.2062L30.9169 24.0155C31.1295 23.9817 31.3469 24.0339 31.5211 24.1604C31.6953 24.2869 31.8122 24.4775 31.8459 24.6901L32.7362 30.303C32.7699 30.5157 32.7178 30.733 32.5913 30.9072C32.4648 31.0815 32.2742 31.1983 32.0615 31.232L28.0523 31.8679C27.8397 31.9017 27.6223 31.8495 27.4481 31.723C27.2739 31.5965 27.1571 31.406 27.1233 31.1933L26.233 25.5804C26.1993 25.3678 26.2514 25.1504 26.3779 24.9762C26.5045 24.802 26.695 24.6851 26.9077 24.6514L28.1104 24.4606M32.021 31.2384C31.857 30.8001 31.5465 30.432 31.1422 30.1963C30.7378 29.9607 30.2644 29.872 29.8022 29.9453M29.8022 29.9453C29.34 30.0186 28.9173 30.2494 28.6057 30.5986C28.2941 30.9479 28.1128 31.394 28.0924 31.8616M29.8022 29.9453C30.4665 29.8399 30.9199 29.217 30.8146 28.5528C30.7092 27.8885 30.0853 27.4354 29.421 27.5408C28.7568 27.6462 28.3037 28.2701 28.409 28.9343C28.5144 29.5986 29.1379 30.0507 29.8022 29.9453ZM27.5823 23.7224L29.1666 25.9371" stroke="#1A1A1A" stroke-linecap="round" stroke-linejoin="round"/>
</svg>
