<svg width="116" height="114" viewBox="0 0 116 114" fill="none" xmlns="http://www.w3.org/2000/svg">
<path d="M0.363281 55.6619C11.4222 55.6584 11.4222 55.6584 15.6681 55.6577C15.7276 55.6577 15.7871 55.6577 15.8466 55.6576C15.8765 55.6576 15.9063 55.6576 15.9371 55.6576C16.9912 55.6575 18.0454 55.6573 19.0995 55.6571C19.2001 55.6571 19.3007 55.6571 19.4013 55.657C20.9393 55.6568 22.4773 55.6564 24.0153 55.6559C24.0648 55.6559 24.0648 55.6559 24.1153 55.6558C24.6473 55.6556 25.1792 55.6554 25.7112 55.6552C27.2459 55.6547 28.7807 55.6541 30.3154 55.6539C30.3471 55.6539 30.3787 55.6539 30.4114 55.6539C31.1067 55.6538 31.8021 55.6537 32.4974 55.6537C32.7773 55.6536 33.0572 55.6536 33.3372 55.6536C33.3678 55.6536 33.3984 55.6536 33.43 55.6536C34.4121 55.6535 35.3943 55.6531 36.3764 55.6526C37.396 55.652 38.4156 55.6518 39.4351 55.6519C39.9701 55.652 40.5051 55.6519 41.0401 55.6514C45.2111 55.6478 45.2111 55.6478 47.0215 55.7495C47.0864 55.753 47.1513 55.7566 47.2162 55.7601C47.5556 55.7787 47.8945 55.8006 48.2334 55.8262C48.3068 55.8316 48.3068 55.8316 48.3818 55.8371C53.2449 56.196 58.0924 57.0073 63.26 58.4657C63.3004 58.4772 63.3408 58.4888 63.3824 58.5007C67.2638 59.6126 71.0196 61.0586 77.4528 64.1407C77.5391 64.1868 77.6254 64.2327 77.7118 64.2785C78.372 64.6293 79.0283 64.9859 79.6768 65.3579C79.8112 65.4349 79.9457 65.5115 80.0802 65.5882C80.756 65.9744 81.4209 66.3765 82.0808 66.7893C82.1367 66.8243 82.1367 66.8243 82.1937 66.8599C82.3967 66.9871 82.599 67.1153 82.801 67.244C82.8809 67.2949 82.9608 67.3457 83.0408 67.3965C83.6158 67.7612 84.1852 68.1318 84.7444 68.5204C84.8357 68.5837 84.9273 68.6466 85.019 68.7094C85.6917 69.1698 86.3541 69.6427 87.0087 70.1283C87.1136 70.2059 87.2188 70.283 87.3241 70.3601C87.7701 70.6866 88.2094 71.0207 88.6439 71.3624C88.7273 71.428 88.811 71.4934 88.8947 71.5586C89.2561 71.8411 89.6126 72.1294 89.9677 72.4198C90.0378 72.477 90.108 72.5341 90.1782 72.5912C90.4632 72.8235 90.7441 73.0604 91.0242 73.2986C91.0975 73.3608 91.171 73.4227 91.2445 73.4845C91.4993 73.6989 91.7496 73.9166 91.9958 74.141C92.1122 74.244 92.2319 74.3418 92.353 74.4394C92.5186 74.5735 92.6715 74.7119 92.8195 74.865C92.8938 74.9397 92.9709 75.0086 93.0505 75.0774C93.31 75.3018 93.56 75.5364 93.811 75.7701C93.8391 75.7961 93.8671 75.8222 93.896 75.849C94.2311 76.1602 94.5635 76.4732 94.8829 76.8007C94.9992 76.9192 95.1184 77.031 95.2443 77.1393C95.4633 77.329 95.6667 77.5334 95.8709 77.7388C95.9085 77.7762 95.9461 77.8137 95.9849 77.8523C96.1766 78.0445 96.3607 78.2397 96.5375 78.4456C96.6721 78.5975 96.8177 78.7384 96.9624 78.8805C97.1667 79.0811 97.3635 79.2841 97.5493 79.5021C97.6205 79.5833 97.6951 79.6592 97.7722 79.7348C97.9022 79.8629 98.022 79.997 98.1409 80.1354C98.2324 80.2393 98.3261 80.3406 98.4205 80.4418C98.6395 80.6766 98.8473 80.9161 99.0483 81.1668C99.1654 81.3075 99.2885 81.4412 99.4135 81.5748C99.607 81.7818 99.7899 81.994 99.9673 82.2151C100.087 82.3627 100.211 82.5068 100.335 82.6508C100.511 82.8549 100.683 83.0611 100.85 83.2725C100.949 83.3972 101.049 83.5207 101.15 83.644C101.384 83.93 101.613 84.2183 101.836 84.512C101.921 84.6235 102.007 84.7343 102.094 84.8447C102.464 85.3179 102.824 85.798 103.178 86.2842C103.214 86.3344 103.214 86.3344 103.251 86.3856C103.571 86.8259 103.887 87.2687 104.2 87.7144C104.25 87.7863 104.3 87.8581 104.351 87.9299C104.822 88.5982 105.274 89.277 105.716 89.9641C105.743 90.0056 105.77 90.0471 105.797 90.0899C107.084 92.0904 108.268 94.1489 109.362 96.261C109.42 96.3714 109.478 96.4815 109.536 96.5915C109.79 97.0717 110.036 97.5553 110.274 98.0441C110.292 98.0805 110.309 98.1169 110.327 98.1543C110.675 98.8707 111.003 99.595 111.321 100.325C111.393 100.491 111.465 100.656 111.538 100.822C113.147 104.48 114.435 108.281 115.491 112.465C115.503 112.516 115.516 112.566 115.529 112.618C115.565 112.76 115.6 112.902 115.635 113.045C115.651 113.109 115.651 113.109 115.667 113.174C115.677 113.213 115.686 113.252 115.696 113.292C115.705 113.326 115.713 113.36 115.722 113.395C115.74 113.489 115.74 113.489 115.74 113.665C108.055 113.665 100.371 113.665 92.4542 113.665C92.2808 113.173 92.1075 112.682 91.9289 112.175C91.8 111.839 91.6702 111.504 91.535 111.17C91.51 111.108 91.51 111.108 91.4845 111.045C91.2286 110.409 90.9645 109.778 90.678 109.156C90.6136 109.016 90.5501 108.876 90.4866 108.736C89.9439 107.544 89.3674 106.364 88.7092 105.232C88.6038 105.048 88.5037 104.862 88.4028 104.676C88.1608 104.233 87.9033 103.8 87.6395 103.37C87.6154 103.33 87.5913 103.291 87.5664 103.25C86.7339 101.89 85.834 100.574 84.8821 99.2954C84.8589 99.2642 84.8358 99.233 84.8119 99.2009C84.4122 98.6623 84.0025 98.1325 83.5763 97.6146C83.5133 97.5379 83.4504 97.461 83.3879 97.3839C83.1405 97.079 82.8862 96.7805 82.6301 96.483C82.5632 96.4051 82.4968 96.3269 82.4305 96.2486C82.1715 95.9434 81.9065 95.6455 81.6337 95.3526C81.5296 95.2407 81.4274 95.1273 81.3258 95.0131C80.8173 94.4463 80.287 93.9004 79.7482 93.3626C79.6503 93.2649 79.5526 93.1669 79.455 93.0689C79.3915 93.0054 79.328 92.9419 79.2645 92.8784C79.236 92.8498 79.2074 92.8211 79.178 92.7916C79.0106 92.6249 78.8385 92.4663 78.659 92.3127C78.5779 92.241 78.5018 92.1662 78.4261 92.0889C78.2962 91.9568 78.1602 91.8348 78.02 91.7139C77.9083 91.6163 77.7993 91.5158 77.6902 91.4153C77.4924 91.2345 77.2882 91.0644 77.0796 90.8961C76.9584 90.7953 76.8428 90.6903 76.7273 90.5829C76.5244 90.3961 76.3134 90.2249 76.0956 90.0562C75.931 89.9286 75.7701 89.7977 75.6111 89.663C75.3155 89.4146 75.0087 89.1818 74.7011 88.9486C74.5905 88.8646 74.4804 88.78 74.3704 88.6952C73.8989 88.3327 73.4221 87.9807 72.933 87.6423C72.8765 87.603 72.82 87.5637 72.7636 87.5244C70.6894 86.0853 68.5236 84.8113 66.2801 83.6557C66.2402 83.635 66.2003 83.6143 66.1593 83.593C65.3699 83.1841 64.5599 82.8249 63.7457 82.4692C63.6607 82.432 63.5759 82.3946 63.4911 82.3571C59.3613 80.5323 54.9368 79.3004 42.8064 78.1235C42.5792 78.1236 42.3519 78.1232 42.1247 78.1228C41.7284 78.1222 41.3322 78.122 40.9359 78.1219C40.3468 78.1219 39.7576 78.1213 39.1684 78.1207C38.1769 78.1196 37.1853 78.1189 36.1937 78.1184C35.2131 78.1179 34.2325 78.1173 33.2519 78.1164C33.2213 78.1164 33.1908 78.1164 33.1593 78.1163C32.8801 78.1161 32.6009 78.1158 32.3217 78.1156C31.6279 78.1149 30.9341 78.1143 30.2404 78.1138C30.193 78.1137 30.193 78.1137 30.1447 78.1137C28.6123 78.1124 27.08 78.1114 25.5477 78.1105C25.0166 78.1101 24.4855 78.1098 23.9544 78.1095C23.9215 78.1094 23.8886 78.1094 23.8546 78.1094C22.3205 78.1084 20.7864 78.1072 19.2523 78.106C19.1518 78.1059 19.0513 78.1058 18.9508 78.1057C17.9034 78.1049 16.8559 78.104 15.8085 78.1031C15.7636 78.1031 15.7636 78.1031 15.7178 78.103C15.6372 78.103 15.5567 78.1029 15.4761 78.1028C10.4385 78.0986 5.4009 78.0954 0.363281 78.092C0.363281 70.69 0.363281 63.2881 0.363281 55.6619Z" fill="#3D4284"/>
<path d="M0 0.00578461C10.696 0.00401567 10.696 0.00401567 14.8032 0.00367456C15.9096 0.00358243 17.016 0.00348784 18.1224 0.00338699C18.2198 0.00337814 18.3171 0.00336937 18.4144 0.00336062C19.902 0.00322656 21.3896 0.00305607 22.8772 0.0027765C22.9091 0.0027705 22.941 0.0027645 22.9739 0.00275832C23.4884 0.00266142 24.0029 0.00256137 24.5173 0.0024609C26.0018 0.00217107 27.4862 0.00190504 28.9706 0.00179189C29.0013 0.00178954 29.0319 0.0017872 29.0634 0.00178478C29.7361 0.00173367 30.4087 0.00169449 31.0814 0.00166654C31.3522 0.00165508 31.6229 0.00164191 31.8937 0.00162815C31.9382 0.00162596 31.9382 0.00162596 31.9835 0.00162372C32.9334 0.00157593 33.8833 0.00138965 34.8333 0.00112852C35.8195 0.000858066 36.8057 0.000746433 37.7919 0.000812253C38.3093 0.000842413 38.8267 0.00080384 39.3442 0.000562364C44.5765 -0.00178429 44.5765 -0.0017843 46.4722 0.107092C46.5229 0.109885 46.5735 0.112678 46.6257 0.115555C51.3165 0.374791 55.9709 1.06649 72.132 6.13901C72.2087 6.17242 72.2087 6.17242 72.287 6.2065C74.3641 7.11451 76.4086 8.10546 78.3911 9.20562C78.4334 9.22902 78.4758 9.25242 78.5194 9.27653C79.1942 9.64949 79.8597 10.0364 80.5211 10.4325C80.6643 10.5182 80.8076 10.6035 80.9511 10.6888C81.0433 10.7438 81.1356 10.7989 81.2279 10.8539C81.2674 10.8774 81.307 10.9009 81.3477 10.9251C82.1048 11.3785 82.8425 11.8644 83.5788 12.3505C83.7015 12.4315 83.8243 12.5122 83.9471 12.5929C84.4362 12.915 84.9186 13.2448 85.3942 13.5865C85.453 13.6286 85.453 13.6286 85.513 13.6716C85.604 13.737 85.6947 13.8027 85.7854 13.8685C85.8516 13.9165 85.9178 13.9646 85.984 14.0126C86.0168 14.0364 86.0496 14.0602 86.0834 14.0847C86.1802 14.1547 86.2773 14.2244 86.3745 14.2939C86.8525 14.6365 87.3213 14.99 87.7874 15.3484C87.875 15.4157 87.9628 15.4828 88.0506 15.5498C88.3257 15.7601 88.5972 15.9747 88.867 16.1918C89.0262 16.3198 89.1863 16.4465 89.3476 16.5719C89.6111 16.7771 89.8672 16.9891 90.1197 17.2078C90.2705 17.3385 90.423 17.4666 90.5781 17.5923C91.0032 17.938 91.414 18.3013 91.8199 18.6693C91.9095 18.7502 91.9999 18.83 92.0909 18.9093C92.2595 19.0563 92.4257 19.2058 92.5917 19.3557C92.6639 19.421 92.7363 19.4861 92.8088 19.5512C93.6047 20.2651 93.6047 20.2651 93.9422 20.6103C94.0151 20.6819 94.0906 20.7478 94.1686 20.8139C94.4164 21.0299 94.6466 21.2638 94.8786 21.4965C94.9274 21.5454 94.9762 21.5942 95.0251 21.643C95.1268 21.7448 95.2286 21.8467 95.3302 21.9486C95.4596 22.0784 95.5893 22.208 95.719 22.3376C95.8197 22.4382 95.9202 22.5389 96.0208 22.6397C96.0685 22.6875 96.1162 22.7352 96.164 22.783C96.3988 23.0175 96.6309 23.2526 96.846 23.5057C96.9267 23.5995 97.0137 23.6858 97.1025 23.772C97.2461 23.9141 97.3806 24.0599 97.512 24.2132C97.6424 24.3611 97.7774 24.5044 97.9122 24.6482C98.1208 24.8711 98.327 25.0948 98.525 25.3272C98.6107 25.4277 98.6964 25.5281 98.7821 25.6284C98.8163 25.6684 98.8163 25.6684 98.8511 25.7093C98.9837 25.8642 99.1182 26.017 99.2554 26.1678C99.4216 26.3512 99.5786 26.5407 99.7341 26.7332C99.8454 26.8695 99.9591 27.0033 100.073 27.1371C100.258 27.3545 100.436 27.5766 100.611 27.8021C100.772 28.0082 100.938 28.2094 101.105 28.4103C101.324 28.6754 101.535 28.9452 101.74 29.2221C101.907 29.4472 102.078 29.6684 102.251 29.8888C102.486 30.1903 102.712 30.4969 102.932 30.81C103.018 30.9306 103.104 31.0501 103.191 31.1697C103.314 31.3392 103.436 31.5093 103.558 31.6795C103.581 31.7102 103.603 31.741 103.625 31.7726C104.012 32.3131 104.38 32.8653 104.748 33.4182C104.773 33.4544 104.797 33.4906 104.822 33.5279C105.244 34.1622 105.665 34.798 106.064 35.4471C106.088 35.4849 106.111 35.5228 106.135 35.5618C106.899 36.8043 107.631 38.0654 108.329 39.346C108.357 39.3966 108.385 39.4472 108.413 39.4993C109.25 41.0394 110.043 42.6093 110.749 44.214C110.814 44.361 110.88 44.5076 110.945 44.6542C111.888 46.754 112.713 48.9064 113.45 51.0868C113.469 51.1419 113.469 51.1419 113.488 51.1981C114.098 53.0011 114.62 54.8282 115.089 56.6724C115.096 56.7011 115.104 56.7299 115.111 56.7594C115.16 56.9498 115.208 57.1403 115.256 57.3309C115.268 57.3793 115.28 57.4277 115.293 57.4776C115.304 57.522 115.315 57.5665 115.326 57.6123C115.336 57.651 115.346 57.6896 115.356 57.7295C115.376 57.8333 115.376 57.8333 115.376 58.0086C107.692 58.0086 100.008 58.0086 92.0909 58.0086C91.932 57.5604 91.7731 57.1122 91.6094 56.6505C90.7585 54.4321 89.8158 52.2223 88.6519 50.1483C88.5855 50.0285 88.5211 49.9078 88.457 49.7867C88.1286 49.1674 87.7742 48.5679 87.407 47.9711C87.2949 47.7887 87.1857 47.6047 87.0773 47.4201C86.7301 46.8303 86.3466 46.2648 85.9632 45.6983C85.9355 45.6574 85.9079 45.6165 85.8794 45.5743C85.2508 44.6456 84.5956 43.7352 83.906 42.8507C83.8866 42.8257 83.8671 42.8007 83.8471 42.775C83.4835 42.308 83.1113 41.849 82.7281 41.398C82.5998 41.2468 82.474 41.0939 82.3495 40.9396C82.1798 40.7309 82.0015 40.5318 81.8196 40.3338C81.734 40.2402 81.65 40.1456 81.5671 40.0497C81.4003 39.8578 81.2283 39.6708 81.0562 39.4838C80.9733 39.3937 80.8908 39.3032 80.8086 39.2124C80.6094 38.9925 80.4075 38.7771 80.1965 38.5684C80.0655 38.4388 79.9383 38.3092 79.819 38.1687C79.5201 37.819 79.1861 37.494 78.8356 37.1967C78.7042 37.0785 78.5809 36.9527 78.4567 36.827C78.2818 36.6502 78.106 36.4788 77.9164 36.3176C77.7874 36.2055 77.6627 36.0891 77.5376 35.9728C77.3289 35.7793 77.1187 35.5886 76.9029 35.4032C76.8814 35.3848 76.86 35.3663 76.8378 35.3472C76.6818 35.2128 76.5254 35.0787 76.3689 34.9449C76.3181 34.9015 76.2674 34.858 76.2167 34.8145C75.9058 34.5475 75.5895 34.2894 75.2663 34.0375C75.1293 33.9306 74.9937 33.822 74.8584 33.7129C74.5775 33.4866 74.2939 33.265 74.0037 33.0507C73.9141 32.9845 73.8247 32.918 73.7353 32.8516C73.665 32.7995 73.5947 32.7474 73.5244 32.6953C73.4931 32.672 73.4617 32.6487 73.4293 32.6247C72.8347 32.1855 72.2264 31.7668 71.6111 31.3573C71.5031 31.2854 71.3953 31.2133 71.2874 31.1411C70.6148 30.6921 69.9344 30.256 69.2378 29.845C69.2133 29.8305 69.1887 29.816 69.1635 29.8011C68.6261 29.4835 68.083 29.1767 67.5362 28.8757C67.4924 28.8515 67.4485 28.8273 67.4033 28.8023C66.1077 28.0881 64.784 27.4396 63.427 26.8512C63.2618 26.7796 63.0971 26.7069 62.9324 26.634C62.101 26.2685 61.2543 25.9462 60.4018 25.6339C60.3685 25.6217 60.3352 25.6095 60.3009 25.5969C56.491 24.2035 52.5248 23.2777 45.8321 22.5782C45.7917 22.5756 45.7513 22.573 45.7098 22.5704C44.3529 22.4849 42.9949 22.473 41.6358 22.4728C41.4131 22.4727 41.1904 22.4724 40.9677 22.4721C40.579 22.4716 40.1902 22.4713 39.8015 22.4711C39.2235 22.4707 38.6455 22.4702 38.0676 22.4695C37.0949 22.4685 36.1222 22.4677 35.1495 22.4669C34.1874 22.4662 33.2252 22.4654 32.2631 22.4645C32.2181 22.4644 32.2181 22.4644 32.1722 22.4644C31.8985 22.4641 31.6247 22.4638 31.351 22.4636C30.6707 22.4629 29.9904 22.4623 29.3101 22.4616C29.2792 22.4616 29.2482 22.4616 29.2163 22.4615C27.7129 22.4601 26.2095 22.4589 24.7062 22.4576C24.185 22.4572 23.6638 22.4568 23.1426 22.4564C23.1103 22.4563 23.078 22.4563 23.0446 22.4563C21.5397 22.455 20.0348 22.4537 18.5299 22.4523C18.4313 22.4522 18.3328 22.4521 18.2342 22.452C17.0983 22.4509 15.9624 22.4499 14.8266 22.4488C9.88437 22.4442 4.94219 22.4401 0 22.4359C0 15.0339 0 7.63201 0 0.00578461Z" fill="#F47A38"/>
<path d="M0 95.5967C7.52528 95.5967 15.0506 95.5967 22.8039 95.5967C22.8039 101.495 22.8039 107.393 22.8039 113.471C15.2786 113.471 7.75332 113.471 0 113.471C0 107.572 0 101.674 0 95.5967Z" fill="#3D4284"/>
</svg>
