<svg width="168" height="95" viewBox="0 0 168 95" fill="none" xmlns="http://www.w3.org/2000/svg">
<path d="M73.4584 0.0052164C76.2546 -0.0457068 79.0561 0.276186 81.7643 0.971918C81.8177 0.985507 81.871 0.999095 81.926 1.0131C85.1762 1.84914 88.3549 3.26377 91.0872 5.22137C91.1348 5.25531 91.1348 5.25531 91.1835 5.28995C92.1015 5.94418 92.9891 6.63907 93.8221 7.39958C93.8883 7.45961 93.9548 7.51925 94.022 7.57811C94.3698 7.88413 94.695 8.21253 95.0219 8.54057C95.1222 8.64127 95.2228 8.74173 95.3235 8.84218C95.3883 8.90711 95.4531 8.97205 95.518 9.03701C95.5475 9.06654 95.5771 9.09608 95.6076 9.12651C95.8019 9.32187 95.9852 9.5244 96.1644 9.73367C96.2055 9.78109 96.2466 9.82849 96.2877 9.87587C96.8587 10.5387 97.4044 11.2134 97.9152 11.9241C97.9485 11.9701 97.9485 11.9701 97.9825 12.0171C98.592 12.8605 99.1489 13.7373 99.666 14.6402C99.6851 14.6736 99.7041 14.7069 99.7238 14.7412C99.8535 14.9688 99.9795 15.1982 100.104 15.4288C100.125 15.468 100.146 15.5072 100.168 15.5475C101.812 18.603 102.873 21.9731 103.769 28.1963C103.772 28.228 103.775 28.2596 103.777 28.2922C103.852 29.2249 103.877 30.1577 103.876 31.0932C103.876 31.1435 103.876 31.1939 103.876 31.2457C103.873 33.036 103.744 34.8074 103.474 36.5775C103.469 36.6119 103.463 36.6463 103.458 36.6818C103.379 37.1954 103.275 37.7001 103.168 38.2094C89.4025 38.2238 75.6374 38.2383 61.4552 38.2532C61.779 39.054 61.779 39.054 62.1528 39.8275C62.1856 39.8893 62.1856 39.8893 62.219 39.9523C62.6565 40.765 63.19 41.5204 63.8188 42.1959C63.8719 42.2569 63.9248 42.318 63.9775 42.3794C64.6584 43.1597 65.5171 43.7709 66.4012 44.2988C66.446 44.3258 66.446 44.3258 66.4917 44.3533C68.5769 45.6007 71.0924 46.1409 73.4918 46.314C73.568 46.3197 73.568 46.3197 73.6457 46.3255C74.2086 46.3648 74.7715 46.3684 75.3356 46.3687C75.3859 46.3688 75.4362 46.3688 75.488 46.3688C76.2898 46.3681 77.074 46.34 77.8688 46.2263C77.9227 46.2188 77.9766 46.2113 78.0322 46.2036C80.3696 45.8687 82.7033 45.0865 84.653 43.7293C84.6798 43.711 84.7065 43.6927 84.7341 43.6739C85.1217 43.4089 85.4823 43.1192 85.8348 42.8093C85.8731 42.7759 85.9113 42.7425 85.9507 42.7081C86.2299 42.4609 86.4928 42.199 86.754 41.9331C86.9199 41.9956 87.0717 42.0714 87.2266 42.1576C87.2753 42.1847 87.3241 42.2118 87.3743 42.2397C87.4265 42.2689 87.4787 42.2982 87.5309 42.3274C87.5849 42.3575 87.6389 42.3877 87.693 42.4178C88.0004 42.5897 88.306 42.7643 88.6086 42.9446C88.9011 43.1185 89.1967 43.2869 89.4923 43.4554C89.8792 43.6761 90.2652 43.8983 90.6495 44.1235C91.0239 44.3429 91.3997 44.5599 91.7765 44.7752C91.802 44.7898 91.8276 44.8044 91.8539 44.8194C92.036 44.9234 92.2181 45.0273 92.4002 45.1311C92.6082 45.2497 92.8161 45.3683 93.0239 45.4871C93.0495 45.5017 93.075 45.5163 93.1014 45.5313C93.4954 45.7565 93.8877 45.9845 94.2793 46.2139C94.7659 46.4986 95.2557 46.7778 95.7454 47.0571C96.0037 47.2044 96.2619 47.352 96.52 47.4995C96.5454 47.514 96.5708 47.5285 96.5969 47.5435C97.201 47.8889 97.8034 48.2372 98.4058 48.5856C99.1051 48.9901 99.8056 49.3923 100.507 49.7929C100.65 49.8744 100.793 49.9561 100.935 50.0377C100.862 50.2002 100.762 50.3423 100.659 50.4867C100.64 50.5133 100.621 50.5399 100.601 50.5672C100.382 50.8707 100.145 51.1596 99.906 51.4484C99.8179 51.5553 99.7311 51.6632 99.6441 51.7709C99.0136 52.5396 98.3347 53.2575 97.6334 53.9613C97.6088 53.9861 97.5842 54.0108 97.5588 54.0363C97.2916 54.3048 97.022 54.5672 96.7334 54.8129C96.663 54.8766 96.5928 54.9404 96.5228 55.0045C96.293 55.2118 96.0552 55.4074 95.8142 55.6014C95.7652 55.6414 95.7161 55.6815 95.667 55.7215C94.2222 56.8964 92.6483 57.8934 90.9996 58.7556C90.9577 58.7776 90.9159 58.7995 90.8727 58.8222C87.4633 60.5974 83.7199 61.5229 75.4082 62.2305C75.2951 62.2302 75.182 62.2301 75.0689 62.23C73.8682 62.2282 72.6744 62.2001 71.4784 62.0851C71.439 62.0814 71.3996 62.0777 71.359 62.0738C67.5457 61.7122 63.787 60.8378 57.3769 57.8195C57.2579 57.7506 57.1385 57.6826 57.019 57.6146C55.6795 56.8448 54.4031 55.9315 53.2298 54.927C53.1085 54.8234 52.9846 54.7236 52.86 54.6239C52.5733 54.3903 52.307 54.1355 52.0384 53.8815C51.9389 53.788 51.8383 53.6959 51.7375 53.6039C51.3398 53.2402 50.9461 52.868 50.5973 52.4564C50.5037 52.349 50.4066 52.2452 50.3091 52.1413C50.0823 51.8996 49.863 51.6554 49.656 51.3963C49.5753 51.2959 49.4938 51.1968 49.4111 51.0982C49.0291 50.6416 48.6706 50.1716 48.3244 49.6872C48.2829 49.6295 48.2829 49.6295 48.2406 49.5705C47.526 48.5715 46.8968 47.5246 46.311 46.4454C46.2887 46.4045 46.2664 46.3636 46.2434 46.3215C44.5137 43.1377 43.4595 39.5608 42.7568 34.0761C42.7539 34.0444 42.751 34.0128 42.748 33.9801C42.6937 33.3605 42.6707 32.7429 42.6693 32.1211C42.6691 32.0849 42.669 32.0486 42.6689 32.0112C42.6682 31.8183 42.6678 31.6254 42.6676 31.4325C42.6675 31.2774 42.6669 31.1224 42.6658 30.9674C42.6568 29.5485 42.7221 28.1364 42.9079 26.7287C42.9124 26.6938 42.9169 26.6589 42.9216 26.6229C43.3495 23.3108 44.269 20.1032 45.6869 17.08C45.7389 16.9689 45.7901 16.8574 45.8412 16.7458C47.0408 14.1414 48.7578 11.7202 50.7104 9.62853C50.7748 9.55919 50.8386 9.48935 50.9022 9.4193C51.3174 8.96288 51.7418 8.50504 52.2137 8.10658C52.3201 8.01407 52.4226 7.91793 52.5253 7.82134C52.7668 7.59429 53.0109 7.37475 53.2698 7.16743C53.3701 7.08673 53.4692 7.00515 53.5677 6.92238C54.0239 6.54003 54.4938 6.18152 54.9774 5.83469C55.0311 5.79604 55.0311 5.79604 55.086 5.75661C57.3726 4.11875 59.8977 2.82262 62.5495 1.8919C62.6 1.87408 62.6505 1.85627 62.7026 1.83791C64.7002 1.1387 66.7576 0.655676 68.8523 0.358596C68.8826 0.354284 68.913 0.349973 68.9442 0.345531C70.4403 0.134805 71.9486 0.0362204 73.4584 0.0052164ZM64.4753 19.0211C64.4467 19.0486 64.4181 19.0761 64.3887 19.1045C63.9731 19.5052 63.5899 19.9124 63.2498 20.3792C63.231 20.4045 63.2123 20.4299 63.1929 20.456C62.9292 20.8126 62.6852 21.1784 62.4619 21.562C62.4441 21.5924 62.4262 21.6227 62.4078 21.6539C61.4815 23.2273 61.4815 23.2273 61.0613 24.9791C69.381 24.9791 77.7007 24.9791 86.2725 24.9791C85.8924 23.2672 85.0641 21.5625 83.9527 20.204C83.9339 20.1808 83.915 20.1577 83.8955 20.1339C83.4954 19.6464 83.0824 19.1614 82.5959 18.7583C82.5557 18.723 82.5155 18.6877 82.4741 18.6513C81.9046 18.1527 81.2835 17.7303 80.6263 17.3564C80.5768 17.3278 80.5273 17.2991 80.4763 17.2696C79.2161 16.5577 77.7829 16.1377 76.3615 15.9025C76.3209 15.8957 76.2803 15.8889 76.2385 15.8819C75.4365 15.7567 74.6336 15.7188 73.8228 15.7218C73.7545 15.7219 73.7545 15.7219 73.6848 15.722C70.3443 15.7318 66.9236 16.6405 64.4753 19.0211Z" fill="#3D4284"/>
<path d="M105.586 1.82118C108.165 1.80514 110.744 1.79279 113.323 1.78539C113.628 1.78452 113.932 1.78361 114.237 1.78268C114.267 1.78259 114.297 1.7825 114.328 1.7824C115.31 1.77942 116.292 1.77415 117.273 1.7677C118.311 1.7609 119.348 1.7567 120.386 1.75523C121.007 1.75427 121.629 1.75123 122.25 1.74554C122.676 1.74184 123.103 1.74072 123.529 1.74163C123.775 1.74208 124.02 1.74138 124.266 1.73763C124.492 1.73421 124.717 1.73405 124.942 1.73644C125.023 1.73674 125.105 1.73585 125.186 1.73365C125.778 1.71856 125.778 1.71856 125.974 1.8903C126.12 2.05824 126.229 2.24293 126.332 2.43923C126.391 2.54968 126.462 2.65014 126.536 2.75143C126.57 2.80058 126.57 2.80058 126.606 2.85072C126.628 2.88324 126.651 2.91576 126.675 2.94926C126.727 3.0237 126.779 3.09814 126.831 3.17258C126.857 3.2098 126.883 3.24702 126.91 3.28537C126.989 3.39774 127.068 3.51018 127.146 3.62265C127.385 3.96453 127.624 4.30618 127.865 4.64685C128.184 5.09931 128.501 5.55352 128.818 6.00761C129.083 6.38688 129.349 6.76603 129.615 7.14394C129.935 7.59641 130.252 8.05062 130.569 8.50471C130.834 8.88398 131.099 9.26312 131.366 9.64104C131.686 10.0935 132.003 10.5477 132.32 11.0018C132.585 11.3811 132.85 11.7602 133.117 12.1381C133.384 12.5162 133.649 12.8956 133.914 13.2751C134.042 13.4583 134.171 13.6416 134.299 13.8248C134.453 14.0453 134.607 14.2659 134.761 14.4865C135.028 14.8686 135.296 15.2503 135.565 15.6311C135.727 15.8609 135.889 16.0911 136.05 16.3219C136.245 16.1415 136.387 15.9406 136.534 15.7195C136.584 15.6443 136.635 15.5692 136.686 15.4941C136.711 15.4565 136.737 15.4188 136.763 15.3801C136.872 15.2189 136.985 15.0598 137.097 14.9008C137.141 14.8396 137.184 14.7783 137.227 14.717C137.26 14.6705 137.26 14.6705 137.294 14.623C137.418 14.4477 137.541 14.2718 137.664 14.0958C137.702 14.041 137.702 14.041 137.741 13.9851C137.819 13.8732 137.897 13.7614 137.975 13.6495C138.288 13.2025 138.6 12.7556 138.915 12.3101C139.187 11.9252 139.456 11.5387 139.726 11.1524C140.039 10.7054 140.351 10.2585 140.666 9.81305C140.937 9.42807 141.207 9.04164 141.477 8.65535C141.789 8.20827 142.102 7.76142 142.417 7.31595C142.662 6.96806 142.906 6.61896 143.15 6.26989C143.303 6.05019 143.457 5.83058 143.611 5.61096C143.739 5.42681 143.868 5.24263 143.997 5.05841C144.257 4.68592 144.518 4.31386 144.78 3.94268C144.947 3.70597 145.113 3.46873 145.279 3.23128C145.317 3.17716 145.317 3.17716 145.356 3.12195C145.492 2.92737 145.628 2.73262 145.763 2.5377C145.805 2.47741 145.805 2.47741 145.848 2.41591C145.902 2.33849 145.956 2.26102 146.01 2.18349C146.034 2.14875 146.058 2.11401 146.083 2.07822C146.115 2.03221 146.115 2.03221 146.148 1.98527C146.204 1.9088 146.204 1.9088 146.292 1.82118C146.402 1.81263 146.508 1.80961 146.619 1.8104C146.67 1.81025 146.67 1.81025 146.723 1.8101C146.839 1.80986 146.955 1.81026 147.071 1.81065C147.155 1.81061 147.239 1.81053 147.322 1.81042C147.553 1.81022 147.784 1.81058 148.015 1.81101C148.264 1.81139 148.512 1.81126 148.761 1.8112C149.192 1.81115 149.623 1.81143 150.054 1.81192C150.677 1.81263 151.3 1.81286 151.924 1.81297C152.934 1.81316 153.945 1.81374 154.956 1.81457C155.939 1.81538 156.921 1.816 157.903 1.81637C157.934 1.81638 157.964 1.81639 157.995 1.81641C158.299 1.81652 158.603 1.81663 158.907 1.81674C161.457 1.81766 164.007 1.8192 166.557 1.82118C166.484 2.01515 166.383 2.16666 166.259 2.33046C166.069 2.58448 165.887 2.84261 165.709 3.10533C165.522 3.38152 165.331 3.65428 165.134 3.924C164.94 4.19108 164.751 4.46104 164.565 4.73446C164.382 5.00407 164.196 5.27053 164.005 5.53397C163.754 5.87795 163.511 6.22634 163.269 6.57598C163.095 6.82721 162.92 7.07786 162.743 7.32739C162.555 7.59423 162.367 7.86173 162.18 8.12964C161.883 8.55499 161.584 8.97908 161.284 9.40288C161.001 9.80364 160.719 10.2051 160.438 10.6074C160.254 10.8709 160.069 11.1337 159.884 11.3963C159.715 11.6358 159.547 11.8759 159.379 12.1162C159.082 12.5416 158.783 12.9657 158.483 13.3895C158.2 13.7902 157.918 14.1917 157.637 14.594C157.453 14.8575 157.268 15.1203 157.083 15.3829C156.913 15.6224 156.745 15.8625 156.577 16.1028C156.28 16.5282 155.981 16.9523 155.682 17.3761C155.399 17.7768 155.117 18.1783 154.836 18.5806C154.652 18.8441 154.467 19.1069 154.281 19.3695C154.112 19.609 153.944 19.8491 153.776 20.0894C153.479 20.5148 153.18 20.9389 152.881 21.3627C152.598 21.7634 152.316 22.1649 152.035 22.5672C151.851 22.8307 151.665 23.0935 151.48 23.3561C151.311 23.5956 151.143 23.8357 150.975 24.076C150.678 24.5014 150.379 24.9255 150.079 25.3493C149.796 25.75 149.514 26.1515 149.233 26.5537C149.049 26.8172 148.864 27.0801 148.679 27.3427C148.51 27.5822 148.342 27.8223 148.174 28.0626C147.919 28.4273 147.663 28.7911 147.406 29.1545C147.341 29.2467 147.276 29.3389 147.211 29.4311C147.189 29.462 147.168 29.4928 147.145 29.5246C147.102 29.5862 147.058 29.6479 147.015 29.7097C146.9 29.8732 146.784 30.0355 146.666 30.1964C146.641 30.2302 146.616 30.264 146.591 30.2987C146.544 30.3637 146.496 30.4284 146.448 30.4926C146.416 30.5364 146.416 30.5364 146.384 30.5811C146.355 30.6194 146.355 30.6194 146.327 30.6585C146.284 30.7345 146.284 30.7345 146.302 30.8232C146.359 30.9716 146.455 31.0961 146.546 31.2251C146.578 31.2712 146.578 31.2712 146.611 31.3182C146.679 31.4161 146.748 31.5136 146.817 31.6111C146.86 31.673 146.904 31.7348 146.947 31.7966C147.057 31.9522 147.166 32.1074 147.276 32.2626C147.384 32.415 147.492 32.5675 147.599 32.72C147.621 32.7504 147.642 32.7808 147.664 32.8121C147.861 33.091 148.056 33.3707 148.252 33.6505C148.481 33.9778 148.711 34.3043 148.941 34.6306C149.05 34.785 149.159 34.9394 149.268 35.0939C149.312 35.156 149.355 35.218 149.399 35.2801C149.662 35.6525 149.924 36.0249 150.187 36.3972C150.209 36.4279 150.23 36.4586 150.253 36.4903C150.297 36.5525 150.34 36.6146 150.384 36.6768C150.493 36.8304 150.601 36.9839 150.709 37.1374C150.971 37.5077 151.231 37.8788 151.491 38.2504C151.72 38.5778 151.95 38.9043 152.18 39.2305C152.289 39.3849 152.398 39.5394 152.507 39.6938C152.551 39.7559 152.594 39.818 152.638 39.88C152.901 40.2524 153.163 40.6248 153.426 40.9971C153.448 41.0279 153.469 41.0586 153.492 41.0902C153.536 41.1524 153.579 41.2145 153.623 41.2767C153.731 41.4303 153.84 41.5838 153.948 41.7373C154.21 42.1076 154.47 42.4787 154.73 42.8503C154.958 43.1777 155.189 43.5042 155.419 43.8304C155.528 43.9848 155.637 44.1393 155.746 44.2938C155.79 44.3558 155.833 44.4179 155.877 44.4799C156.14 44.8523 156.402 45.2247 156.665 45.5971C156.687 45.6278 156.708 45.6585 156.731 45.6901C156.774 45.7523 156.818 45.8145 156.862 45.8766C156.97 46.0302 157.079 46.1837 157.187 46.3372C157.449 46.7075 157.709 47.0786 157.969 47.4502C158.197 47.7776 158.427 48.1041 158.658 48.4303C158.767 48.5847 158.876 48.7392 158.985 48.8937C159.029 48.9557 159.072 49.0178 159.116 49.0799C159.379 49.4522 159.641 49.8246 159.904 50.197C159.926 50.2277 159.947 50.2584 159.97 50.29C160.013 50.3522 160.057 50.4144 160.101 50.4766C160.209 50.6301 160.318 50.7836 160.426 50.9371C160.688 51.3074 160.948 51.6785 161.208 52.0501C161.436 52.3775 161.666 52.704 161.897 53.0302C162.006 53.1846 162.115 53.3391 162.224 53.4936C162.267 53.5556 162.311 53.6177 162.355 53.6798C162.618 54.0522 162.88 54.4245 163.143 54.7969C163.165 54.8276 163.186 54.8583 163.208 54.89C163.252 54.9521 163.296 55.0143 163.34 55.0765C163.448 55.23 163.557 55.3836 163.665 55.537C163.927 55.9073 164.187 56.2784 164.446 56.6501C164.675 56.9774 164.905 57.3039 165.136 57.6302C165.245 57.7845 165.354 57.939 165.463 58.0935C165.506 58.1556 165.55 58.2176 165.594 58.2797C165.681 58.4038 165.769 58.5279 165.857 58.6521C165.878 58.6828 165.9 58.7135 165.922 58.7452C165.966 58.8072 166.01 58.8692 166.053 58.9313C166.163 59.087 166.273 59.2428 166.383 59.3984C166.515 59.5838 166.645 59.7695 166.776 59.9554C166.799 59.9882 166.822 60.021 166.846 60.0548C166.914 60.152 166.982 60.2494 167.049 60.3469C167.07 60.3767 167.091 60.4066 167.113 60.4373C167.257 60.6462 167.257 60.6462 167.257 60.7439C164.685 60.762 162.113 60.7759 159.541 60.7842C159.238 60.7852 158.934 60.7862 158.63 60.7873C158.585 60.7874 158.585 60.7874 158.539 60.7876C157.56 60.7909 156.581 60.7968 155.602 60.8041C154.567 60.8118 153.532 60.8165 152.497 60.8181C151.878 60.8192 151.258 60.8226 150.638 60.829C150.213 60.8332 149.788 60.8345 149.363 60.8334C149.118 60.8329 148.873 60.8337 148.628 60.8379C147.077 60.8634 147.077 60.8634 146.753 60.5707C146.619 60.4099 146.531 60.2429 146.459 60.0471C146.41 59.9222 146.337 59.823 146.255 59.7175C146.21 59.6526 146.164 59.5877 146.119 59.5228C146.068 59.4491 146.017 59.3755 145.965 59.3018C145.94 59.2652 145.914 59.2285 145.888 59.1907C145.758 59.0046 145.628 58.8188 145.498 58.6329C145.473 58.5965 145.447 58.5601 145.421 58.5227C145.194 58.1976 144.965 57.8733 144.736 57.5493C144.627 57.3949 144.518 57.2404 144.41 57.0859C144.366 57.0238 144.322 56.9618 144.278 56.8997C144.191 56.7756 144.103 56.6515 144.016 56.5273C143.994 56.4966 143.972 56.4659 143.95 56.4343C143.906 56.3721 143.862 56.3099 143.818 56.2478C143.71 56.0942 143.602 55.9407 143.493 55.7872C143.232 55.4169 142.972 55.0458 142.712 54.6742C142.483 54.3468 142.253 54.0203 142.023 53.6941C141.914 53.5397 141.805 53.3852 141.696 53.2307C141.652 53.1687 141.608 53.1066 141.565 53.0445C141.477 52.9204 141.389 52.7963 141.302 52.6722C141.28 52.6415 141.259 52.6108 141.236 52.5791C141.192 52.5169 141.149 52.4548 141.105 52.3926C140.996 52.239 140.888 52.0855 140.78 51.932C140.518 51.5617 140.258 51.1906 139.998 50.819C139.769 50.4916 139.539 50.1651 139.309 49.8389C139.2 49.6845 139.091 49.53 138.982 49.3756C138.938 49.3135 138.895 49.2514 138.851 49.1894C138.763 49.0653 138.676 48.9411 138.588 48.817C138.567 48.7863 138.545 48.7556 138.523 48.7239C138.479 48.6618 138.435 48.5996 138.391 48.5374C138.283 48.3839 138.174 48.2303 138.066 48.0769C137.831 47.7437 137.596 47.41 137.363 47.0756C136.943 46.4746 136.52 45.8757 136.093 45.2794C135.934 45.4264 135.819 45.5904 135.699 45.7696C135.657 45.8328 135.614 45.896 135.571 45.9592C135.549 45.9917 135.527 46.0242 135.504 46.0577C135.396 46.2146 135.287 46.37 135.177 46.5253C135.155 46.5562 135.133 46.5871 135.111 46.619C135.066 46.6817 135.022 46.7444 134.978 46.8072C134.87 46.9595 134.762 47.112 134.654 47.2645C134.633 47.2949 134.612 47.3253 134.589 47.3566C134.419 47.5984 134.249 47.8407 134.08 48.0832C133.825 48.4479 133.569 48.8117 133.313 49.1751C133.204 49.3295 133.095 49.4839 132.986 49.6384C132.942 49.7005 132.898 49.7625 132.854 49.8246C132.833 49.8553 132.811 49.886 132.789 49.9177C132.067 50.9417 132.067 50.9417 132.001 51.0348C131.957 51.097 131.913 51.1591 131.869 51.2213C131.761 51.3749 131.653 51.5284 131.544 51.6819C131.309 52.015 131.075 52.3488 130.841 52.6831C130.586 53.0478 130.33 53.4116 130.074 53.775C129.965 53.9294 129.856 54.0839 129.747 54.2383C129.703 54.3004 129.659 54.3625 129.615 54.4245C129.594 54.4552 129.572 54.486 129.55 54.5176C129.353 54.7969 129.353 54.7969 129.287 54.89C129.243 54.9521 129.2 55.0143 129.156 55.0765C129.047 55.23 128.939 55.3836 128.831 55.537C128.595 55.8702 128.361 56.2039 128.127 56.5383C127.873 56.903 127.617 57.2668 127.36 57.6302C127.251 57.7845 127.142 57.939 127.033 58.0935C126.989 58.1556 126.946 58.2176 126.902 58.2797C126.88 58.3104 126.858 58.3411 126.836 58.3728C126.595 58.7141 126.355 59.0555 126.114 59.3968C126.092 59.4276 126.071 59.4584 126.048 59.4901C126.005 59.5516 125.961 59.6131 125.918 59.6746C125.802 59.8383 125.687 60.0022 125.572 60.1662C125.535 60.2178 125.535 60.2178 125.498 60.2703C125.452 60.3367 125.405 60.403 125.359 60.4694C125.2 60.6952 125.2 60.6952 125.151 60.7439C125.043 60.7483 124.937 60.7497 124.829 60.7493C124.795 60.7494 124.761 60.7494 124.725 60.7495C124.609 60.7496 124.493 60.7494 124.376 60.7492C124.293 60.7492 124.209 60.7493 124.125 60.7493C123.895 60.7494 123.664 60.7492 123.433 60.749C123.184 60.7488 122.935 60.7489 122.687 60.7489C122.256 60.749 121.824 60.7488 121.393 60.7486C120.77 60.7482 120.147 60.7481 119.523 60.748C118.512 60.7479 117.501 60.7477 116.489 60.7472C115.507 60.7468 114.524 60.7465 113.542 60.7463C113.496 60.7463 113.496 60.7463 113.45 60.7463C113.146 60.7463 112.842 60.7462 112.538 60.7462C109.987 60.7457 107.436 60.7449 104.886 60.7439C104.939 60.6061 104.992 60.487 105.078 60.3668C105.099 60.3377 105.12 60.3087 105.141 60.2787C105.163 60.2479 105.186 60.2171 105.209 60.1854C105.256 60.1185 105.304 60.0517 105.352 59.9848C105.376 59.9508 105.401 59.9168 105.426 59.8817C105.538 59.7243 105.65 59.566 105.761 59.4078C105.805 59.3457 105.849 59.2836 105.892 59.2216C105.914 59.1909 105.936 59.1601 105.958 59.1285C107.206 57.3597 107.206 57.3597 107.271 57.2666C107.315 57.2045 107.359 57.1423 107.403 57.0801C107.511 56.9266 107.619 56.7731 107.728 56.6196C107.963 56.2864 108.197 55.9527 108.431 55.6183C108.686 55.2536 108.942 54.8898 109.198 54.5265C109.307 54.3721 109.416 54.2176 109.525 54.0631C109.569 54.001 109.613 53.939 109.657 53.8769C109.678 53.8462 109.7 53.8155 109.722 53.7838C110.444 52.7598 110.444 52.7598 110.51 52.6667C110.554 52.6046 110.598 52.5424 110.642 52.4802C110.75 52.3267 110.858 52.1731 110.967 52.0197C111.202 51.6865 111.436 51.3528 111.67 51.0184C111.925 50.6537 112.181 50.2899 112.437 49.9265C112.546 49.7721 112.655 49.6177 112.764 49.4632C112.808 49.4011 112.852 49.3391 112.896 49.277C112.917 49.2463 112.939 49.2156 112.961 49.1839C113.683 48.1599 113.683 48.1599 113.749 48.0668C113.793 48.0046 113.837 47.9425 113.881 47.8803C113.989 47.7267 114.097 47.5732 114.206 47.4197C114.441 47.0866 114.675 46.7528 114.909 46.4185C115.164 46.0538 115.42 45.69 115.676 45.3266C115.785 45.1722 115.894 45.0177 116.003 44.8633C116.047 44.8012 116.091 44.7391 116.134 44.6771C116.156 44.6464 116.178 44.6156 116.2 44.584C116.397 44.3047 116.397 44.3047 116.463 44.2116C116.507 44.1495 116.55 44.0873 116.594 44.0251C116.703 43.8716 116.811 43.718 116.919 43.5646C117.155 43.2314 117.389 42.8977 117.623 42.5633C117.877 42.1986 118.133 41.8348 118.39 41.4714C118.499 41.3171 118.608 41.1626 118.717 41.0081C118.761 40.946 118.804 40.884 118.848 40.8219C118.87 40.7912 118.892 40.7605 118.914 40.7288C119.636 39.7048 119.636 39.7048 119.702 39.6117C119.746 39.5496 119.789 39.4874 119.833 39.4252C119.941 39.2717 120.05 39.1181 120.158 38.9647C120.393 38.6315 120.628 38.2977 120.862 37.9634C121.116 37.5987 121.372 37.2349 121.629 36.8715C121.738 36.7171 121.847 36.5627 121.956 36.4082C122 36.3461 122.043 36.2841 122.087 36.222C122.109 36.1913 122.13 36.1606 122.153 36.1289C122.875 35.1049 122.875 35.1049 122.941 35.0118C122.984 34.9496 123.028 34.8875 123.072 34.8253C123.18 34.6717 123.289 34.5182 123.397 34.3647C123.632 34.0316 123.867 33.6978 124.101 33.3635C124.355 32.999 124.611 32.6354 124.868 32.2722C124.934 32.1783 125 32.0843 125.066 31.9903C125.341 31.6001 125.617 31.2108 125.895 30.8226C125.728 30.5476 125.551 30.2841 125.359 30.0258C125.191 29.7996 125.028 29.5712 124.869 29.3385C124.638 29.0002 124.403 28.6653 124.166 28.3311C124.059 28.1787 123.951 28.0262 123.843 27.8737C123.822 27.8433 123.801 27.8129 123.778 27.7816C123.582 27.5026 123.386 27.2228 123.191 26.943C123.028 26.7097 122.864 26.4769 122.7 26.2446C122.509 25.9749 122.32 25.7047 122.131 25.4341C121.855 25.039 121.577 24.6449 121.299 24.2513C120.995 23.8204 120.692 23.3888 120.389 22.9564C120.226 22.7232 120.063 22.4904 119.899 22.258C119.708 21.9883 119.519 21.7181 119.33 21.4475C119.054 21.0524 118.776 20.6583 118.498 20.2647C118.194 19.8338 117.89 19.4022 117.588 18.9698C117.425 18.7366 117.262 18.5038 117.097 18.2714C116.907 18.0018 116.717 17.7315 116.528 17.4609C116.252 17.0658 115.975 16.6717 115.697 16.2781C115.392 15.8472 115.089 15.4156 114.787 14.9832C114.624 14.75 114.46 14.5172 114.296 14.2848C114.079 13.9779 113.864 13.6702 113.649 13.3622C113.486 13.129 113.322 12.8962 113.158 12.6638C112.968 12.3942 112.778 12.124 112.589 11.8534C112.313 11.4583 112.036 11.0642 111.758 10.6705C111.453 10.2397 111.15 9.80812 110.848 9.37566C110.685 9.14244 110.521 8.90965 110.357 8.67725C110.166 8.40764 109.977 8.13739 109.788 7.86679C109.512 7.47169 109.234 7.07762 108.956 6.68395C108.652 6.25307 108.349 5.82153 108.046 5.38906C107.883 5.15585 107.72 4.92305 107.556 4.69066C107.365 4.42104 107.176 4.15079 106.987 3.88019C106.796 3.60691 106.604 3.33392 106.412 3.06152C106.391 3.03175 106.37 3.00198 106.349 2.97131C106.235 2.81058 106.121 2.65018 106.007 2.49012C105.983 2.45608 105.959 2.42204 105.934 2.38696C105.887 2.32156 105.841 2.25625 105.794 2.19104C105.773 2.16172 105.752 2.13239 105.731 2.10218C105.712 2.0764 105.694 2.05063 105.675 2.02408C105.63 1.95261 105.63 1.95261 105.586 1.82118Z" fill="#3D4284"/>
<path d="M36.1247 0.635742C36.1247 7.257 36.1247 13.8782 36.1247 20.7001C35.2931 20.6125 35.2931 20.6125 35.0646 20.5863C33.1887 20.3764 31.2795 20.4789 29.4279 20.8316C29.3877 20.8391 29.3475 20.8467 29.3061 20.8544C26.8457 21.3257 24.3839 22.3837 22.5341 24.1035C22.4373 24.1933 22.3389 24.2803 22.2388 24.3664C20.2299 26.1191 19.1527 28.7918 18.7126 31.3594C18.7041 31.4088 18.6956 31.4583 18.6868 31.5093C18.544 32.3976 18.5164 33.2863 18.5172 34.1843C18.5169 34.2996 18.5167 34.4149 18.5164 34.5301C18.5158 34.7788 18.5156 35.0275 18.5155 35.2762C18.5155 35.646 18.5149 36.0158 18.5143 36.3856C18.5132 37.0079 18.5125 37.6303 18.512 38.2526C18.5115 38.8681 18.5109 39.4837 18.51 40.0992C18.51 40.1376 18.5099 40.176 18.5098 40.2155C18.5096 40.4104 18.5093 40.6054 18.509 40.8003C18.507 42.1783 18.5054 43.5563 18.5041 44.9343C18.5027 46.2725 18.5012 47.6106 18.4995 48.9487C18.4994 49.033 18.4993 49.1172 18.4992 49.2015C18.4983 49.8862 18.4974 50.5708 18.4964 51.2555C18.4923 54.4174 18.489 57.5794 18.4856 60.7413C12.6502 60.7413 6.8149 60.7413 0.802734 60.7413C0.802734 41.2968 0.802734 21.8523 0.802734 1.81858C6.63808 1.81858 12.4734 1.81858 18.4856 1.81858C18.5 5.14366 18.5145 8.46874 18.5294 11.8946C18.6882 11.4753 18.8471 11.0561 19.0108 10.6241C19.7004 9.11522 20.5432 7.74164 21.6724 6.52254C21.7567 6.43106 21.8381 6.33795 21.9188 6.24326C22.2211 5.89565 22.555 5.5769 22.9063 5.27947C22.945 5.24559 22.9837 5.2117 23.0236 5.17679C23.9804 4.34412 25.0352 3.65436 26.1452 3.04522C26.1949 3.01789 26.2445 2.99056 26.2956 2.96241C26.6799 2.75277 27.0706 2.56524 27.472 2.39083C27.502 2.37772 27.532 2.3646 27.563 2.35109C28.1452 2.09766 28.7358 1.88117 29.3404 1.68715C29.3809 1.67381 29.4213 1.66047 29.463 1.64672C31.6124 0.938724 33.8671 0.635742 36.1247 0.635742Z" fill="#3D4284"/>
<path d="M92.5953 74.9388C94.6615 74.889 96.5171 75.4131 98.0758 76.7989C98.1648 76.8885 98.2417 76.9894 98.3206 77.0881C98.335 76.5532 98.3495 76.0183 98.3643 75.4672C100.184 75.4672 102.004 75.4672 103.879 75.4672C103.879 81.5102 103.879 87.5531 103.879 93.7792C102.059 93.7792 100.239 93.7792 98.3643 93.7792C98.3499 93.2588 98.3355 92.7383 98.3206 92.2021C98.1617 92.3612 98.0028 92.5202 97.8391 92.684C96.7911 93.5952 95.4856 94.089 94.1187 94.2611C94.0869 94.2653 94.055 94.2694 94.0222 94.2736C93.6867 94.3125 93.3509 94.3156 93.0135 94.3159C92.9673 94.3159 92.9673 94.3159 92.9202 94.316C90.6198 94.3125 88.5853 93.3482 86.9405 91.764C86.8332 91.6512 86.7338 91.5332 86.6341 91.4136C86.5977 91.3722 86.5614 91.3309 86.5239 91.2883C86.0423 90.7387 85.6603 90.1321 85.3211 89.486C85.3049 89.4553 85.2887 89.4246 85.272 89.393C84.2304 87.3889 83.9357 85.0004 84.3144 82.7832C84.3214 82.7419 84.3284 82.7006 84.3357 82.6581C84.6843 80.7069 85.5774 78.9548 86.9405 77.5262C86.9787 77.4856 87.0169 77.4451 87.0563 77.4033C88.4817 75.9286 90.5437 74.9968 92.5953 74.9388ZM91.0111 81.2937C90.9833 81.3179 90.9556 81.3421 90.927 81.367C90.2529 81.9922 89.8745 82.9401 89.7418 83.8347C89.7369 83.8669 89.7321 83.8991 89.7271 83.9324C89.5786 85.131 89.7927 86.4825 90.5435 87.4581C90.6757 87.6181 90.819 87.764 90.9673 87.9089C91.0024 87.9444 91.0375 87.9799 91.0737 88.0165C91.8557 88.7697 93.0084 89.1046 94.0749 89.0917C95.2687 89.0455 96.3287 88.6747 97.1826 87.8213C97.2361 87.7684 97.2361 87.7684 97.2908 87.7145C98.1302 86.8383 98.3892 85.5958 98.3736 84.4185C98.3419 83.3389 97.9916 82.3247 97.2701 81.5128C97.241 81.4796 97.212 81.4464 97.1821 81.4122C96.4988 80.679 95.4567 80.2564 94.4676 80.1896C94.3338 80.1853 94.2006 80.1841 94.0667 80.1848C94.0191 80.1851 93.9715 80.1853 93.9224 80.1856C92.8312 80.2019 91.8312 80.5576 91.0111 81.2937Z" fill="#3D4284"/>
<path d="M164.553 77.2328C164.616 77.2929 164.68 77.3531 164.742 77.4139C164.81 77.4789 164.878 77.5429 164.946 77.607C166.604 79.1898 167.584 81.6358 167.661 83.9125C167.666 84.1411 167.667 84.3695 167.666 84.5981C167.666 84.6382 167.666 84.6783 167.666 84.7196C167.664 85.4356 167.661 86.1664 167.433 86.8515C163.172 86.8515 158.911 86.8515 154.521 86.8515C155.065 87.9395 155.642 88.6355 156.797 89.042C157.438 89.2414 158.088 89.3215 158.759 89.3185C158.816 89.3183 158.874 89.318 158.933 89.3177C159.358 89.3124 159.757 89.2867 160.167 89.1734C160.215 89.1603 160.215 89.1603 160.264 89.147C160.969 88.9463 161.676 88.638 162.17 88.0754C162.202 88.0474 162.235 88.0194 162.268 87.9905C162.454 88.0047 162.585 88.0529 162.743 88.1482C162.804 88.184 162.804 88.184 162.865 88.2206C162.908 88.2468 162.952 88.273 162.996 88.2999C163.091 88.3562 163.185 88.4125 163.28 88.4687C163.329 88.4981 163.379 88.5275 163.43 88.5579C163.655 88.6919 163.884 88.8217 164.112 88.9517C164.241 89.0251 164.37 89.0986 164.498 89.1722C164.524 89.1868 164.549 89.2013 164.576 89.2164C164.991 89.4535 165.405 89.6926 165.818 89.9324C165.938 90.0019 166.059 90.0708 166.18 90.1396C166.248 90.1789 166.317 90.2183 166.385 90.2576C166.416 90.2749 166.447 90.2922 166.479 90.31C166.684 90.4289 166.684 90.4289 166.733 90.5753C166.675 90.6678 166.618 90.7482 166.55 90.8326C166.52 90.8702 166.52 90.8702 166.49 90.9086C164.857 92.9445 162.563 93.9792 160.001 94.2691C157.191 94.5392 154.195 93.9309 151.983 92.1086C151.494 91.704 151.065 91.2929 150.669 90.7943C150.634 90.7499 150.598 90.7055 150.561 90.6598C150.285 90.3143 150.055 89.9519 149.838 89.5677C149.823 89.5418 149.808 89.516 149.792 89.4894C148.462 87.1923 148.325 84.2789 148.978 81.754C149.614 79.441 151.157 77.4262 153.232 76.2292C154.466 75.5372 155.826 75.1111 157.235 74.9794C157.282 74.9745 157.33 74.9696 157.379 74.9646C159.964 74.7367 162.619 75.4597 164.553 77.2328ZM155.214 81.064C154.868 81.4627 154.39 82.1416 154.39 82.6897C156.946 82.6897 159.503 82.6897 162.137 82.6897C162.105 82.432 162.105 82.432 162.025 82.2071C162.011 82.177 161.997 82.1468 161.983 82.1158C161.968 82.0847 161.953 82.0536 161.937 82.0216C161.922 81.9889 161.906 81.9561 161.89 81.9224C161.45 81.0325 160.735 80.4137 159.807 80.0721C158.254 79.557 156.369 79.8494 155.214 81.064Z" fill="#3D4284"/>
<path d="M49.562 75.457C51.3819 75.457 53.2018 75.457 55.0769 75.457C55.0786 76.2327 55.0802 77.0083 55.0819 77.8075C55.0832 78.2992 55.0846 78.7909 55.0861 79.2827C55.0869 79.5411 55.0876 79.7995 55.0884 80.058C55.0885 80.0904 55.0886 80.1227 55.0887 80.1561C55.0902 80.6776 55.0913 81.1991 55.0923 81.7206C55.0932 82.2566 55.0947 82.7926 55.0966 83.3286C55.0977 83.6588 55.0985 83.989 55.0988 84.3192C55.099 84.5733 55.1 84.8273 55.1012 85.0814C55.1016 85.185 55.1017 85.2886 55.1017 85.3922C55.1011 86.5088 55.2135 87.5083 55.9988 88.3642C56.6233 88.9648 57.4856 89.1863 58.3317 89.1824C59.2473 89.1605 60.107 88.8734 60.7514 88.1997C60.938 87.9721 61.0732 87.7231 61.2046 87.4606C61.2316 87.4083 61.2316 87.4083 61.259 87.3549C61.5829 86.6437 61.5806 85.83 61.5787 85.0656C61.5791 84.9602 61.5795 84.8548 61.5801 84.7493C61.5813 84.4659 61.5814 84.1825 61.5814 83.899C61.5814 83.632 61.5824 83.365 61.5834 83.0979C61.5851 82.5697 61.5862 82.0415 61.5867 81.5133C61.5872 81.0008 61.5881 80.4883 61.5895 79.9759C61.5896 79.9278 61.5896 79.9278 61.5897 79.8788C61.5905 79.6002 61.5913 79.3216 61.592 79.043C61.5953 77.8477 61.5968 76.6524 61.5986 75.457C63.4329 75.457 65.2673 75.457 67.1573 75.457C67.1573 81.5 67.1573 87.543 67.1573 93.7691C65.3229 93.7691 63.4885 93.7691 61.5986 93.7691C61.5841 93.2631 61.5697 92.7571 61.5548 92.2358C61.3959 92.4093 61.237 92.5827 61.0733 92.7615C60.1321 93.5497 59.0817 93.9863 57.8782 94.2072C57.8476 94.2129 57.817 94.2187 57.7854 94.2246C55.9816 94.546 54.0137 94.1876 52.4945 93.1558C51.0032 92.0732 50.0937 90.5209 49.7261 88.7283C49.7195 88.6964 49.7129 88.6644 49.7061 88.6315C49.5585 87.8594 49.5497 87.0926 49.552 86.309C49.5521 86.1902 49.552 86.0714 49.552 85.9526C49.552 85.6984 49.5522 85.4441 49.5527 85.1899C49.5534 84.8224 49.5537 84.4549 49.5538 84.0873C49.554 83.4908 49.5545 82.8943 49.5554 82.2977C49.5562 81.7188 49.5568 81.1399 49.5572 80.5609C49.5572 80.5248 49.5572 80.4886 49.5572 80.4514C49.5574 80.1687 49.5576 79.886 49.5578 79.6032C49.5586 78.2212 49.5603 76.8391 49.562 75.457Z" fill="#3D4284"/>
<path d="M123.654 76.601C124.889 77.7406 125.605 79.2813 125.852 80.9347C125.859 80.9819 125.866 81.0292 125.874 81.0778C125.956 81.676 125.951 82.2711 125.949 82.8739C125.949 82.9932 125.949 83.1124 125.949 83.2316C125.949 83.4869 125.949 83.7422 125.948 83.9974C125.948 84.3665 125.947 84.7355 125.947 85.1046C125.947 85.7036 125.946 86.3026 125.946 86.9016C125.945 87.4829 125.944 88.0643 125.944 88.6456C125.944 88.6819 125.944 88.7182 125.944 88.7556C125.944 89.0394 125.943 89.3233 125.943 89.6071C125.942 90.995 125.941 92.3828 125.939 93.7707C124.119 93.7707 122.299 93.7707 120.424 93.7707C120.422 92.995 120.421 92.2194 120.419 91.4202C120.418 90.9285 120.416 90.4367 120.415 89.945C120.414 89.6866 120.413 89.4282 120.413 89.1697C120.412 89.1211 120.412 89.1211 120.412 89.0716C120.411 88.5501 120.41 88.0286 120.409 87.5071C120.408 86.9711 120.406 86.4351 120.404 85.8991C120.403 85.5689 120.403 85.2387 120.402 84.9085C120.402 84.6544 120.401 84.4004 120.4 84.1463C120.399 84.0427 120.399 83.9391 120.399 83.8355C120.4 82.8069 120.326 81.8417 119.636 81.0223C119.613 80.9941 119.59 80.966 119.566 80.9369C118.991 80.3033 118.149 80.1062 117.33 80.0623C116.482 80.0308 115.61 80.2764 114.956 80.8307C114.164 81.6113 113.937 82.6766 113.928 83.7538C113.927 83.8982 113.927 84.0425 113.927 84.1869C113.927 84.2919 113.926 84.3969 113.926 84.5019C113.925 84.7847 113.924 85.0675 113.924 85.3503C113.924 85.6166 113.923 85.8828 113.922 86.1491C113.92 86.6759 113.919 87.2028 113.918 87.7296C113.917 88.2408 113.916 88.7521 113.914 89.2633C113.914 89.2952 113.914 89.3272 113.914 89.36C113.913 89.6378 113.912 89.9156 113.911 90.1933C113.907 91.3858 113.905 92.5782 113.902 93.7707C112.068 93.7707 110.234 93.7707 108.344 93.7707C108.344 87.7277 108.344 81.6847 108.344 75.4586C110.178 75.4586 112.013 75.4586 113.902 75.4586C113.924 76.2393 113.924 76.2393 113.946 77.0357C114.098 76.8622 114.098 76.8622 114.253 76.6852C114.724 76.1716 115.286 75.8304 115.916 75.5462C115.943 75.534 115.969 75.5218 115.997 75.5093C116.647 75.2163 117.352 75.0511 118.061 74.9767C118.126 74.9694 118.126 74.9694 118.194 74.962C120.167 74.7768 122.159 75.2566 123.654 76.601Z" fill="#3D4284"/>
<path d="M25.4879 76.292C25.5101 76.3097 25.5323 76.3273 25.5551 76.3455C26.7752 77.3195 27.5176 78.6366 27.9089 80.139C27.924 80.1956 27.924 80.1956 27.9394 80.2534C28.1558 81.1392 28.1768 82.0429 28.1727 82.9496C28.1726 83.0684 28.1727 83.1873 28.1728 83.3061C28.1728 83.5596 28.1724 83.8131 28.1717 84.0666C28.1706 84.4331 28.1703 84.7996 28.1701 85.166C28.1698 85.761 28.169 86.3559 28.1677 86.9508C28.1665 87.528 28.1656 88.1051 28.165 88.6822C28.165 88.7183 28.165 88.7544 28.1649 88.7915C28.1646 89.0737 28.1644 89.3559 28.1641 89.6381C28.1629 91.016 28.1603 92.3938 28.1578 93.7717C26.3379 93.7717 24.5179 93.7717 22.6429 93.7717C22.6417 92.9976 22.6406 92.2234 22.6394 91.4259C22.6383 90.9347 22.6372 90.4436 22.6359 89.9525C22.6352 89.6943 22.6345 89.4361 22.6338 89.178C22.6337 89.1456 22.6336 89.1133 22.6335 89.0799C22.6322 88.5594 22.6314 88.0388 22.6309 87.5182C22.6304 86.983 22.6292 86.4477 22.6273 85.9125C22.6262 85.5829 22.6257 85.2533 22.6257 84.9237C22.6257 84.6699 22.6248 84.416 22.6236 84.1622C22.6232 84.0589 22.6231 83.9556 22.6234 83.8522C22.6256 82.7523 22.5053 81.7155 21.7193 80.882C21.0649 80.2441 20.1848 80.0528 19.2979 80.0609C18.4506 80.0993 17.6245 80.3726 17.0207 80.9864C16.2228 81.8768 16.1383 83.0252 16.1411 84.1631C16.1407 84.2685 16.1403 84.374 16.1397 84.4794C16.1385 84.7628 16.1384 85.0463 16.1384 85.3297C16.1384 85.5967 16.1373 85.8638 16.1364 86.1308C16.1346 86.659 16.1336 87.1872 16.1331 87.7154C16.1326 88.2279 16.1317 88.7404 16.1303 89.2528C16.1302 89.2849 16.1301 89.3169 16.13 89.3499C16.1293 89.6285 16.1285 89.9071 16.1278 90.1857C16.1245 91.3811 16.123 92.5764 16.1212 93.7717C14.2868 93.7717 12.4525 93.7717 10.5625 93.7717C10.5625 87.7287 10.5625 81.6857 10.5625 75.4596C12.3969 75.4596 14.2313 75.4596 16.1212 75.4596C16.1429 76.2403 16.1429 76.2403 16.165 77.0368C16.3166 76.8633 16.3166 76.8633 16.4714 76.6863C17.4389 75.633 18.886 75.1242 20.2793 74.9777C20.3452 74.9705 20.3452 74.9705 20.4125 74.963C22.1852 74.7966 24.0776 75.1454 25.4879 76.292Z" fill="#3D4284"/>
<path d="M43.3015 75.9453C43.3431 75.9684 43.3431 75.9684 43.3855 75.992C43.9666 76.3184 44.4809 76.713 44.9648 77.172C45.0039 77.2088 45.0431 77.2457 45.0834 77.2837C45.4823 77.6701 45.8062 78.0951 46.1082 78.5601C46.1253 78.5865 46.1424 78.6128 46.1601 78.6399C46.2778 78.8256 46.2778 78.8256 46.2778 78.9243C46.2467 78.941 46.2155 78.9577 46.1834 78.9749C44.8086 79.7108 44.8086 79.7108 43.4383 80.4549C43.0834 80.6488 42.7283 80.8423 42.3724 81.0343C42.3174 81.064 42.2625 81.0937 42.2076 81.1236C42.1309 81.1652 42.054 81.2067 41.9771 81.2481C41.9328 81.272 41.8886 81.296 41.8429 81.3206C41.7436 81.369 41.6586 81.4007 41.5507 81.4214C41.53 81.3885 41.5093 81.3557 41.488 81.3218C41.0609 80.6602 40.5829 80.1442 39.8054 79.921C39.1793 79.7885 38.5255 79.8142 37.9716 80.1549C37.7828 80.2917 37.697 80.4525 37.6553 80.6767C37.6446 80.9384 37.6948 81.1368 37.8741 81.3338C38.3746 81.714 39.0224 81.8866 39.6212 82.0465C39.7238 82.0739 39.8262 82.1018 39.9286 82.1299C40.0678 82.168 40.2071 82.2059 40.3464 82.2438C43.6619 83.1452 43.6619 83.1452 44.8772 84.2252C44.9315 84.2701 44.9315 84.2701 44.9868 84.3159C45.9788 85.158 46.4712 86.3701 46.6046 87.6434C46.7339 89.2766 46.3388 90.7459 45.2964 92.0214C43.9978 93.5221 41.8865 94.1464 39.9733 94.2912C38.0498 94.4016 35.992 94.2443 34.2756 93.293C34.1977 93.2499 34.119 93.2083 34.0402 93.1668C32.7818 92.4911 31.6063 91.2631 31.0898 89.9203C31.4607 89.6878 31.8357 89.468 32.2196 89.2577C32.6065 89.0446 32.9906 88.8273 33.3713 88.6033C33.7743 88.3662 34.1805 88.1356 34.589 87.9081C34.9184 87.7245 35.2451 87.5369 35.5693 87.3443C35.8075 87.2042 35.8075 87.2042 35.9045 87.2042C35.9262 87.2533 35.9479 87.3025 35.9703 87.3532C36.1804 87.8201 36.3997 88.2103 36.7799 88.5622C36.7997 88.5823 36.8195 88.6023 36.8399 88.623C37.4679 89.2202 38.337 89.3343 39.1634 89.3277C39.7016 89.3131 40.2624 89.2519 40.6753 88.8689C40.8631 88.6556 40.911 88.4502 40.9063 88.1688C40.8761 87.9482 40.7101 87.7855 40.5401 87.6542C39.8589 87.1997 39.0079 87.0258 38.2307 86.8059C33.6992 85.5233 33.6992 85.5233 32.5312 83.4683C32.1005 82.6871 31.9387 81.8489 31.9488 80.9641C31.949 80.9326 31.9492 80.9011 31.9494 80.8687C31.9545 80.1372 32.073 79.4829 32.3154 78.7929C32.331 78.748 32.3466 78.7031 32.3627 78.6568C32.9174 77.2031 34.1685 76.2291 35.5422 75.606C37.926 74.5647 41.0308 74.6715 43.3015 75.9453Z" fill="#3D4284"/>
<path d="M142.309 75.5015C142.344 75.5144 142.379 75.5272 142.416 75.5404C143.245 75.8464 144.005 76.2454 144.716 76.772C144.755 76.8009 144.755 76.8009 144.795 76.8303C145.772 77.5578 146.772 78.5215 147.255 79.6634C146.746 79.9862 146.222 80.2835 145.699 80.5837C145.457 80.723 145.215 80.8626 144.973 81.0023C144.926 81.0294 144.879 81.0565 144.831 81.0844C144.467 81.2945 144.104 81.5063 143.742 81.7185C143.309 81.9711 142.875 82.2196 142.44 82.4671C142.341 82.337 142.254 82.2045 142.169 82.0646C141.635 81.2286 140.82 80.7657 139.877 80.5276C138.694 80.2774 137.499 80.5004 136.487 81.1529C135.613 81.7598 135.124 82.6573 134.893 83.6821C134.689 84.8375 134.841 86.0905 135.503 87.079C135.667 87.3118 135.849 87.5228 136.05 87.7242C136.079 87.7542 136.107 87.7842 136.137 87.8151C136.597 88.2597 137.191 88.5207 137.8 88.688C137.837 88.6982 137.874 88.7084 137.913 88.719C139.037 88.9832 140.24 88.7629 141.214 88.1623C141.355 88.0683 141.483 87.968 141.608 87.8556C141.641 87.827 141.674 87.7984 141.707 87.7689C142.004 87.4917 142.215 87.1671 142.396 86.8042C142.551 86.8342 142.672 86.8976 142.81 86.9745C142.857 87.0008 142.905 87.0272 142.953 87.0543C143.005 87.0832 143.056 87.1121 143.107 87.141C143.161 87.1709 143.214 87.2008 143.268 87.2307C143.649 87.4444 144.027 87.6632 144.404 87.8846C144.737 88.0798 145.071 88.2723 145.405 88.4635C145.43 88.4778 145.456 88.4922 145.482 88.507C145.584 88.5656 145.687 88.6241 145.789 88.6826C146.071 88.8435 146.353 89.0049 146.635 89.1662C146.767 89.2414 146.898 89.3165 147.03 89.3917C147.105 89.4346 147.18 89.4775 147.255 89.5203C146.844 90.5805 145.899 91.5447 145.022 92.2365C144.956 92.2901 144.956 92.2901 144.888 92.3448C144.568 92.6006 144.235 92.8202 143.879 93.0224C143.826 93.0525 143.773 93.0829 143.72 93.1136C142.72 93.6955 141.605 94.0224 140.47 94.2079C140.439 94.2131 140.409 94.2184 140.377 94.2238C139.33 94.3953 138.184 94.3489 137.144 94.1641C137.102 94.1568 137.061 94.1495 137.018 94.142C135.496 93.8648 134.004 93.2331 132.811 92.2365C132.764 92.1989 132.718 92.1614 132.671 92.1239C132.12 91.6734 131.627 91.1753 131.203 90.6027C131.15 90.5311 131.095 90.4605 131.04 90.39C129.534 88.4142 129.012 85.707 129.315 83.2694C129.58 81.3556 130.355 79.5234 131.67 78.0976C131.751 78.009 131.828 77.9183 131.905 77.8262C133.456 76.053 135.914 75.1148 138.215 74.9457C139.605 74.8594 140.996 75.0252 142.309 75.5015Z" fill="#3D4284"/>
<path d="M82.6072 75.1182C82.6072 77.1855 82.6072 79.2528 82.6072 81.3828C82.4917 81.3684 82.3761 81.3539 82.2571 81.339C80.9306 81.27 79.5502 81.4502 78.5044 82.3447C78.4717 82.3743 78.439 82.4038 78.4054 82.4342C78.3722 82.4633 78.3391 82.4924 78.305 82.5224C77.5813 83.1968 77.2437 84.1802 77.1798 85.1504C77.1707 85.4309 77.1717 85.7117 77.1708 85.9923C77.1704 86.0774 77.17 86.1625 77.1695 86.2476C77.1683 86.4776 77.1674 86.7075 77.1665 86.9375C77.1656 87.1782 77.1644 87.4189 77.1632 87.6596C77.161 88.115 77.1591 88.5704 77.1572 89.0257C77.1546 89.6414 77.1517 90.257 77.1488 90.8727C77.1443 91.842 77.1402 92.8113 77.136 93.7807C75.3161 93.7807 73.4962 93.7807 71.6211 93.7807C71.6211 87.7377 71.6211 81.6947 71.6211 75.4686C73.441 75.4686 75.261 75.4686 77.136 75.4686C77.1505 76.4372 77.1649 77.4059 77.1798 78.4038C77.2954 78.1725 77.4109 77.9412 77.53 77.7029C78.2331 76.4713 79.4616 75.6951 80.8024 75.3196C81.4108 75.1567 81.9678 75.1182 82.6072 75.1182Z" fill="#3D4284"/>
<path d="M0.583984 75.457C2.40392 75.457 4.22385 75.457 6.09893 75.457C6.09893 81.5 6.09893 87.543 6.09893 93.7691C4.279 93.7691 2.45907 93.7691 0.583984 93.7691C0.583984 87.7261 0.583984 81.6831 0.583984 75.457Z" fill="#3D4284"/>
<path d="M5.30704 67.9053C5.36661 67.9551 5.42591 68.0053 5.48486 68.0559C5.51064 68.0754 5.53643 68.0949 5.56299 68.1151C6.13389 68.5602 6.5118 69.3209 6.62286 70.0272C6.74171 71.0018 6.52323 71.902 5.91434 72.6859C5.33871 73.3532 4.55891 73.8109 3.67313 73.892C2.72565 73.9513 1.84605 73.6952 1.12484 73.0619C0.419146 72.3902 0.0349516 71.5597 0 70.5831C0.0223609 69.6221 0.416884 68.7654 1.10791 68.0997C2.2973 67.0843 4.04367 66.9414 5.30704 67.9053Z" fill="#3D4284"/>
</svg>
