<svg width="47" height="49" viewBox="0 0 47 49" fill="none" xmlns="http://www.w3.org/2000/svg">
<path d="M6.55078 19.332V41.9677" stroke="#846011" stroke-opacity="0.4" stroke-width="1.43555" stroke-miterlimit="10" stroke-linecap="round" stroke-linejoin="round"/>
<path d="M47.3262 42.1562C47.8547 42.1562 48.2832 42.5847 48.2832 43.1133V47.3251C48.2832 47.8536 47.8547 48.2821 47.3262 48.2821H1.67578C1.14721 48.2821 0.71875 47.8536 0.71875 47.3251V43.1133C0.71875 42.5847 1.14721 42.1562 1.67578 42.1562H47.3262Z" stroke="#846011" stroke-opacity="0.4" stroke-width="1.43555" stroke-miterlimit="10" stroke-linecap="round" stroke-linejoin="round"/>
<path d="M42.4531 41.968V19.2695" stroke="#846011" stroke-opacity="0.4" stroke-width="1.43555" stroke-miterlimit="10" stroke-linecap="round" stroke-linejoin="round"/>
<path d="M11.8801 9.33548L23.1243 1.16607C23.9452 0.569645 25.0567 0.569645 25.8775 1.16607L47.3175 16.7431C48.364 17.5034 48.5959 18.968 47.8357 20.0145C47.3774 20.6452 46.6632 20.9801 45.939 20.9801C45.4616 20.9801 44.9801 20.8346 44.5643 20.5326L24.5009 5.95582L4.43754 20.5326C3.39122 21.2929 1.92648 21.0609 1.16622 20.0145C0.405952 18.968 0.63784 17.5034 1.68435 16.7431L9.25782 11.2406" stroke="#846011" stroke-opacity="0.4" stroke-width="1.43555" stroke-miterlimit="10" stroke-linecap="round" stroke-linejoin="round"/>
<path d="M28.5936 24.332L24.4285 28.497L21.5195 25.588" stroke="#846011" stroke-opacity="0.4" stroke-width="1.43555" stroke-miterlimit="10" stroke-linecap="round" stroke-linejoin="round"/>
<path d="M42.4531 10.0742V12.8851" stroke="#846011" stroke-opacity="0.4" stroke-width="1.43555" stroke-miterlimit="10" stroke-linecap="round" stroke-linejoin="round"/>
<path d="M35.3477 7.56229V1.67578C35.3477 1.14721 35.7761 0.71875 36.3047 0.71875H41.4943C42.0229 0.71875 42.4513 1.14721 42.4513 1.67578V6.88797" stroke="#846011" stroke-opacity="0.4" stroke-width="1.43555" stroke-miterlimit="10" stroke-linecap="round" stroke-linejoin="round"/>
<path d="M31.8885 30.5567C33.2291 27.8891 33.957 24.9094 33.957 21.8336V19.2261C33.957 18.5959 33.5705 18.0302 32.9835 17.801L25.0563 14.7063C24.6986 14.5667 24.3014 14.5667 23.9436 14.7063L16.0165 17.801C15.4294 18.0302 15.043 18.5959 15.043 19.2261V21.8336C15.043 28.3095 18.2698 34.3598 23.6477 37.9675C24.1633 38.3134 24.8367 38.3134 25.3522 37.9675C27.285 36.6709 28.94 35.0588 30.2672 33.2247" stroke="#846011" stroke-opacity="0.4" stroke-width="1.43555" stroke-miterlimit="10" stroke-linecap="round" stroke-linejoin="round"/>
</svg>
