<svg width="40" height="40" viewBox="0 0 40 40" fill="none" xmlns="http://www.w3.org/2000/svg">
<path d="M0 19.6456C3.83403 19.6444 3.83403 19.6444 5.30606 19.6442C5.32669 19.6442 5.34732 19.6442 5.36796 19.6441C5.3783 19.6441 5.38865 19.6441 5.39931 19.6441C5.76477 19.6441 6.13024 19.644 6.49571 19.644C6.53059 19.6439 6.56546 19.6439 6.60034 19.6439C7.13355 19.6438 7.66676 19.6437 8.19996 19.6435C8.21712 19.6435 8.21712 19.6435 8.23463 19.6435C8.41906 19.6434 8.60348 19.6434 8.78791 19.6433C9.32 19.6431 9.85208 19.6429 10.3842 19.6428C10.3951 19.6428 10.4061 19.6428 10.4174 19.6428C10.6585 19.6428 10.8996 19.6428 11.1406 19.6427C11.2377 19.6427 11.3347 19.6427 11.4318 19.6427C11.4424 19.6427 11.453 19.6427 11.464 19.6427C11.8045 19.6427 12.145 19.6426 12.4855 19.6424C12.8389 19.6422 13.1924 19.6421 13.5459 19.6421C13.7314 19.6422 13.9168 19.6421 14.1023 19.642C15.5484 19.6407 15.5484 19.6407 16.176 19.6764C16.1985 19.6776 16.221 19.6789 16.2435 19.6801C16.3612 19.6866 16.4787 19.6943 16.5962 19.7033C16.6216 19.7052 16.6216 19.7052 16.6476 19.7071C18.3336 19.833 20.0142 20.1177 21.8058 20.6294C21.8198 20.6335 21.8338 20.6376 21.8482 20.6417C23.1939 21.0319 24.496 21.5393 26.7263 22.6208C26.7562 22.6369 26.7862 22.653 26.8161 22.6691C27.045 22.7922 27.2725 22.9173 27.4974 23.0478C27.5439 23.0749 27.5906 23.1017 27.6372 23.1286C27.8715 23.2642 28.102 23.4053 28.3308 23.5501C28.3502 23.5624 28.3502 23.5624 28.3699 23.5749C28.4403 23.6195 28.5105 23.6645 28.5805 23.7097C28.6082 23.7275 28.6359 23.7453 28.6636 23.7631C28.863 23.8911 29.0604 24.0212 29.2542 24.1575C29.2859 24.1797 29.3177 24.2018 29.3495 24.2238C29.5827 24.3854 29.8123 24.5513 30.0393 24.7217C30.0756 24.7489 30.1121 24.776 30.1486 24.803C30.3032 24.9176 30.4555 25.0348 30.6062 25.1547C30.6351 25.1778 30.6641 25.2007 30.6931 25.2236C30.8184 25.3227 30.942 25.4239 31.0651 25.5258C31.0894 25.5458 31.1137 25.5659 31.1381 25.5859C31.2369 25.6674 31.3343 25.7505 31.4314 25.8341C31.4568 25.8559 31.4823 25.8777 31.5078 25.8994C31.5961 25.9746 31.6829 26.051 31.7682 26.1297C31.8086 26.1659 31.8501 26.2002 31.8921 26.2344C31.9495 26.2815 32.0025 26.33 32.0538 26.3838C32.0796 26.41 32.1063 26.4341 32.1339 26.4583C32.2239 26.537 32.3105 26.6194 32.3976 26.7013C32.4073 26.7105 32.417 26.7196 32.427 26.729C32.5432 26.8382 32.6585 26.948 32.7692 27.063C32.8095 27.1045 32.8508 27.1438 32.8945 27.1818C32.9704 27.2483 33.0409 27.3201 33.1117 27.3921C33.1248 27.4053 33.1378 27.4184 33.1512 27.432C33.2177 27.4994 33.2815 27.5679 33.3428 27.6402C33.3895 27.6935 33.4399 27.7429 33.4901 27.7928C33.561 27.8631 33.6292 27.9344 33.6936 28.0109C33.7183 28.0393 33.7442 28.066 33.7709 28.0925C33.8159 28.1375 33.8575 28.1845 33.8987 28.2331C33.9304 28.2695 33.9629 28.3051 33.9956 28.3406C34.0716 28.423 34.1436 28.507 34.2133 28.595C34.2539 28.6443 34.2966 28.6912 34.3399 28.7381C34.407 28.8108 34.4704 28.8852 34.5319 28.9628C34.5735 29.0146 34.6164 29.0652 34.6595 29.1157C34.7204 29.1873 34.78 29.2597 34.8379 29.3338C34.8722 29.3776 34.9071 29.4209 34.942 29.4642C35.0229 29.5646 35.1024 29.6657 35.1799 29.7688C35.2094 29.8079 35.2392 29.8468 35.2692 29.8855C35.3976 30.0516 35.5224 30.22 35.6449 30.3906C35.6576 30.4082 35.6576 30.4082 35.6705 30.4262C35.7814 30.5807 35.891 30.736 35.9992 30.8924C36.0167 30.9177 36.0342 30.9429 36.0517 30.968C36.2148 31.2025 36.3717 31.4407 36.525 31.6819C36.5343 31.6964 36.5436 31.711 36.5531 31.726C36.9991 32.4279 37.4099 33.1502 37.789 33.8913C37.809 33.9301 37.8291 33.9687 37.8493 34.0073C37.9375 34.1758 38.0227 34.3455 38.1051 34.517C38.1112 34.5298 38.1174 34.5425 38.1237 34.5557C38.2443 34.807 38.358 35.0612 38.468 35.3175C38.493 35.3756 38.5182 35.4336 38.5434 35.4917C39.1012 36.7752 39.5477 38.109 39.9137 39.5773C39.9181 39.5949 39.9225 39.6126 39.927 39.6308C39.9394 39.6807 39.9516 39.7306 39.9638 39.7806C39.9693 39.803 39.9693 39.8029 39.975 39.8258C39.9783 39.8395 39.9816 39.8533 39.985 39.8674C39.9879 39.8794 39.9908 39.8913 39.9938 39.9036C40 39.9366 40 39.9366 40 39.9981C37.336 39.9981 34.6719 39.9981 31.9272 39.9981C31.8671 39.8256 31.807 39.6531 31.7451 39.4754C31.7004 39.3574 31.6554 39.2399 31.6085 39.1228C31.5998 39.101 31.5998 39.101 31.591 39.0787C31.5023 38.8557 31.4107 38.6344 31.3114 38.416C31.2891 38.3669 31.267 38.3177 31.245 38.2685C31.0569 37.8502 30.857 37.4364 30.6288 37.039C30.5923 36.9746 30.5576 36.9092 30.5226 36.8439C30.4387 36.6885 30.3494 36.5367 30.258 36.3857C30.2496 36.3718 30.2412 36.3579 30.2326 36.3437C29.944 35.8666 29.632 35.4047 29.302 34.9561C29.294 34.9451 29.2859 34.9342 29.2777 34.9229C29.1391 34.7339 28.9971 34.548 28.8493 34.3663C28.8274 34.3394 28.8056 34.3124 28.784 34.2853C28.6982 34.1783 28.61 34.0736 28.5212 33.9692C28.4981 33.9419 28.475 33.9145 28.452 33.887C28.3623 33.7799 28.2704 33.6754 28.1758 33.5726C28.1397 33.5333 28.1043 33.4935 28.069 33.4535C27.8927 33.2546 27.7089 33.063 27.5221 32.8743C27.4882 32.84 27.4543 32.8057 27.4205 32.7713C27.3984 32.749 27.3764 32.7267 27.3544 32.7044C27.3445 32.6944 27.3346 32.6843 27.3244 32.674C27.2664 32.6155 27.2067 32.5598 27.1445 32.5059C27.1164 32.4808 27.09 32.4545 27.0637 32.4274C27.0187 32.3811 26.9716 32.3382 26.923 32.2958C26.8842 32.2616 26.8465 32.2263 26.8086 32.191C26.74 32.1276 26.6692 32.0679 26.5969 32.0089C26.5549 31.9735 26.5148 31.9366 26.4748 31.899C26.4044 31.8334 26.3313 31.7734 26.2558 31.7142C26.1987 31.6694 26.1429 31.6234 26.0878 31.5762C25.9853 31.489 25.879 31.4073 25.7723 31.3255C25.734 31.296 25.6958 31.2663 25.6577 31.2366C25.4942 31.1094 25.3289 30.9859 25.1593 30.8671C25.1398 30.8533 25.1202 30.8396 25.1006 30.8258C24.3815 30.3208 23.6306 29.8738 22.8528 29.4683C22.839 29.461 22.8252 29.4538 22.8109 29.4463C22.5373 29.3028 22.2564 29.1768 21.9742 29.052C21.9447 29.0389 21.9153 29.0258 21.8859 29.0127C20.4541 28.3724 18.9202 27.9401 14.7147 27.5271C14.6359 27.5272 14.5571 27.527 14.4783 27.5269C14.341 27.5267 14.2036 27.5266 14.0662 27.5266C13.862 27.5266 13.6577 27.5264 13.4534 27.5261C13.1097 27.5257 12.7659 27.5255 12.4221 27.5253C12.0821 27.5252 11.7422 27.5249 11.4022 27.5246C11.3916 27.5246 11.381 27.5246 11.3701 27.5246C11.2733 27.5245 11.1765 27.5244 11.0797 27.5243C10.8392 27.5241 10.5987 27.5239 10.3581 27.5237C10.3417 27.5237 10.3417 27.5237 10.325 27.5237C9.79372 27.5232 9.26248 27.5229 8.73124 27.5225C8.54711 27.5224 8.36299 27.5223 8.17886 27.5222C8.16744 27.5222 8.15602 27.5222 8.14426 27.5222C7.61239 27.5218 7.08053 27.5214 6.54866 27.521C6.51382 27.5209 6.47898 27.5209 6.44414 27.5209C6.081 27.5206 5.71786 27.5203 5.35472 27.52C5.33916 27.52 5.33916 27.52 5.32328 27.5199C5.29536 27.5199 5.26743 27.5199 5.2395 27.5199C3.493 27.5184 1.7465 27.5173 0 27.5161C0 24.9188 0 22.3216 0 19.6456Z" fill="#3D4284"/>
<path d="M0 0.00202974C3.70822 0.00140905 3.70822 0.00140905 5.13214 0.00128935C5.51573 0.00125703 5.89931 0.00122384 6.2829 0.00118845C6.31664 0.00118535 6.35038 0.00118227 6.38411 0.0011792C6.89986 0.00113216 7.4156 0.00107234 7.93134 0.000974237C7.9424 0.000972133 7.95347 0.000970028 7.96487 0.00096786C8.14323 0.000933858 8.3216 0.000898752 8.49996 0.000863499C9.0146 0.000761801 9.52924 0.000668454 10.0439 0.000628749C10.0545 0.000627926 10.0651 0.000627103 10.0761 0.000626256C10.3093 0.000608323 10.5425 0.000594573 10.7757 0.000584767C10.8695 0.000580747 10.9634 0.000576125 11.0573 0.000571298C11.0727 0.000570527 11.0727 0.000570527 11.0884 0.00056974C11.4178 0.000552972 11.7471 0.000487611 12.0764 0.000395981C12.4183 0.000301084 12.7602 0.000261914 13.1021 0.000285009C13.2815 0.000295592 13.4609 0.000282057 13.6403 0.000197326C15.4543 -0.000626085 15.4543 -0.000626087 16.1115 0.0375773C16.1291 0.0385572 16.1467 0.0395372 16.1648 0.0405468C17.791 0.131509 19.4046 0.374216 25.0076 2.1541C25.0342 2.16582 25.0342 2.16582 25.0613 2.17778C25.7814 2.49639 26.4902 2.8441 27.1775 3.23013C27.1922 3.23834 27.2069 3.24655 27.2221 3.25501C27.456 3.38588 27.6867 3.52165 27.916 3.66064C27.9657 3.6907 28.0154 3.72064 28.0651 3.75056C28.0971 3.76987 28.1291 3.78918 28.161 3.8085C28.1748 3.81674 28.1885 3.82498 28.2026 3.83348C28.4651 3.99258 28.7208 4.16307 28.9761 4.33364C29.0186 4.36204 29.0612 4.39037 29.1038 4.41869C29.2733 4.53172 29.4406 4.64742 29.6055 4.76732C29.6259 4.78211 29.6259 4.78211 29.6467 4.7972C29.6782 4.82014 29.7097 4.84318 29.7411 4.86628C29.764 4.88314 29.787 4.89999 29.81 4.91684C29.8213 4.92519 29.8327 4.93353 29.8444 4.94213C29.878 4.96671 29.9117 4.99115 29.9453 5.01556C30.111 5.13574 30.2736 5.2598 30.4352 5.38556C30.4656 5.40917 30.496 5.43273 30.5264 5.45624C30.6218 5.53002 30.7159 5.60531 30.8095 5.68149C30.8646 5.72642 30.9202 5.77087 30.9761 5.81488C31.0674 5.88687 31.1562 5.96125 31.2438 6.038C31.2961 6.08386 31.3489 6.12881 31.4027 6.17289C31.5501 6.29422 31.6925 6.42167 31.8332 6.55083C31.8643 6.57921 31.8956 6.60719 31.9272 6.63501C31.9856 6.6866 32.0432 6.73906 32.1008 6.79167C32.1258 6.81457 32.1509 6.83744 32.1761 6.86025C32.452 7.11077 32.452 7.11077 32.569 7.23189C32.5943 7.25701 32.6205 7.28014 32.6475 7.30333C32.7334 7.37913 32.8132 7.4612 32.8937 7.54286C32.9106 7.55999 32.9275 7.57712 32.9444 7.59424C32.9797 7.62996 33.015 7.66572 33.0502 7.70149C33.0951 7.74704 33.14 7.79251 33.185 7.83797C33.2199 7.87327 33.2548 7.90861 33.2896 7.94397C33.3062 7.96074 33.3227 7.9775 33.3393 7.99424C33.4207 8.07655 33.5012 8.15903 33.5757 8.24783C33.6037 8.28077 33.6339 8.31105 33.6646 8.34129C33.7144 8.39114 33.7611 8.4423 33.8066 8.49609C33.8518 8.54798 33.8986 8.59827 33.9454 8.64873C34.0177 8.72693 34.0892 8.80544 34.1578 8.887C34.1875 8.92224 34.2172 8.95746 34.247 8.99268C34.2588 9.00672 34.2588 9.00672 34.2709 9.02104C34.3168 9.07541 34.3635 9.12902 34.411 9.18195C34.4687 9.2463 34.5231 9.3128 34.577 9.38034C34.6156 9.42815 34.655 9.47511 34.6946 9.52205C34.7588 9.59834 34.8204 9.67625 34.8811 9.75539C34.9368 9.8277 34.9943 9.89832 35.0522 9.9688C35.1284 10.0618 35.2015 10.1565 35.2725 10.2536C35.3302 10.3327 35.3896 10.4102 35.4495 10.4876C35.5312 10.5934 35.6095 10.701 35.6857 10.8108C35.7153 10.8531 35.7455 10.8951 35.7755 10.937C35.8182 10.9965 35.8606 11.0562 35.9029 11.1159C35.9105 11.1267 35.9182 11.1375 35.9261 11.1486C36.06 11.3382 36.1878 11.532 36.3154 11.726C36.3238 11.7387 36.3322 11.7514 36.3408 11.7645C36.4873 11.9871 36.6331 12.2102 36.7716 12.4379C36.7797 12.4512 36.7878 12.4645 36.7961 12.4782C37.061 12.9142 37.3148 13.3566 37.5569 13.806C37.5665 13.8238 37.576 13.8415 37.5859 13.8598C37.8762 14.4002 38.151 14.951 38.3958 15.5141C38.4183 15.5657 38.441 15.6172 38.4638 15.6686C38.7908 16.4054 39.0766 17.1606 39.3323 17.9257C39.3388 17.945 39.3388 17.945 39.3454 17.9647C39.5568 18.5974 39.7377 19.2385 39.9004 19.8856C39.903 19.8957 39.9055 19.9058 39.9081 19.9161C39.925 19.983 39.9416 20.0498 39.9582 20.1167C39.9625 20.1336 39.9667 20.1506 39.9711 20.1681C39.9749 20.1837 39.9788 20.1993 39.9827 20.2154C39.9861 20.229 39.9894 20.2425 39.9929 20.2565C40 20.293 40 20.293 40 20.3544C37.336 20.3544 34.6719 20.3544 31.9272 20.3544C31.8721 20.1972 31.817 20.0399 31.7602 19.8779C31.4652 19.0995 31.1384 18.3241 30.7349 17.5964C30.7119 17.5543 30.6895 17.512 30.6673 17.4695C30.5535 17.2522 30.4306 17.0418 30.3033 16.8324C30.2644 16.7684 30.2266 16.7039 30.189 16.6391C30.0686 16.4322 29.9357 16.2337 29.8027 16.0349C29.7931 16.0206 29.7836 16.0062 29.7737 15.9914C29.5558 15.6655 29.3286 15.3461 29.0895 15.0358C29.0828 15.027 29.076 15.0182 29.0691 15.0092C28.943 14.8453 28.814 14.6843 28.6812 14.526C28.6367 14.473 28.5931 14.4193 28.5499 14.3652C28.4911 14.2919 28.4293 14.2221 28.3662 14.1526C28.3365 14.1198 28.3074 14.0866 28.2786 14.0529C28.2208 13.9856 28.1612 13.92 28.1015 13.8543C28.0728 13.8227 28.0442 13.791 28.0157 13.7591C27.9466 13.682 27.8766 13.6064 27.8035 13.5332C27.7581 13.4877 27.714 13.4422 27.6726 13.3929C27.569 13.2702 27.4532 13.1562 27.3317 13.0518C27.2861 13.0104 27.2434 12.9662 27.2003 12.9221C27.1397 12.8601 27.0787 12.7999 27.013 12.7434C26.9683 12.7041 26.925 12.6632 26.8816 12.6224C26.8093 12.5545 26.7364 12.4876 26.6616 12.4225C26.6542 12.416 26.6467 12.4096 26.6391 12.4029C26.585 12.3557 26.5308 12.3087 26.4765 12.2617C26.4589 12.2465 26.4413 12.2312 26.4237 12.2159C26.3159 12.1223 26.2063 12.0317 26.0942 11.9433C26.0467 11.9058 25.9997 11.8677 25.9528 11.8294C25.8554 11.75 25.7571 11.6723 25.6565 11.5971C25.6254 11.5738 25.5944 11.5505 25.5634 11.5272C25.5391 11.5089 25.5147 11.4906 25.4903 11.4724C25.4794 11.4642 25.4686 11.456 25.4574 11.4476C25.2512 11.2935 25.0403 11.1466 24.827 11.0029C24.7895 10.9776 24.7522 10.9523 24.7148 10.927C24.4816 10.7695 24.2457 10.6164 24.0042 10.4722C23.9957 10.4671 23.9872 10.4621 23.9784 10.4568C23.7921 10.3454 23.6038 10.2377 23.4143 10.1321C23.3991 10.1236 23.3838 10.1151 23.3682 10.1063C22.919 9.85576 22.4601 9.6282 21.9896 9.42174C21.9324 9.3966 21.8752 9.37109 21.8182 9.34551C21.5299 9.21726 21.2364 9.10417 20.9408 8.9946C20.9293 8.99032 20.9177 8.98603 20.9058 8.98162C19.585 8.4927 18.2099 8.16786 15.8896 7.92241C15.8756 7.9215 15.8616 7.92059 15.8472 7.91965C15.3768 7.88966 14.906 7.88547 14.4348 7.88541C14.3576 7.88538 14.2804 7.88526 14.2032 7.88516C14.0684 7.88499 13.9336 7.88488 13.7989 7.8848C13.5985 7.88469 13.3981 7.88448 13.1977 7.88427C12.8605 7.8839 12.5233 7.88361 12.1861 7.88335C11.8525 7.8831 11.5189 7.88281 11.1853 7.88249C11.1698 7.88247 11.1698 7.88247 11.1539 7.88246C11.0589 7.88236 10.964 7.88227 10.8691 7.88218C10.6333 7.88195 10.3974 7.88172 10.1616 7.8815C10.1508 7.88148 10.1401 7.88147 10.1291 7.88146C9.60784 7.88097 9.08663 7.88053 8.56542 7.8801C8.38473 7.87994 8.20404 7.87979 8.02335 7.87964C8.01215 7.87963 8.00094 7.87962 7.98939 7.87961C7.46765 7.87917 6.94591 7.87869 6.42416 7.87821C6.38999 7.87817 6.35582 7.87814 6.32165 7.87811C5.92785 7.87774 5.53405 7.87737 5.14025 7.877C3.42683 7.87539 1.71342 7.87393 0 7.87245C0 5.27521 0 2.67797 0 0.00202974Z" fill="#F47A38"/>
<path d="M0 33.5439C2.60895 33.5439 5.21791 33.5439 7.90592 33.5439C7.90592 35.6136 7.90592 37.6833 7.90592 39.8157C5.29697 39.8157 2.68801 39.8157 0 39.8157C0 37.746 0 35.6763 0 33.5439Z" fill="#3D4284"/>
</svg>
