<svg width="25" height="10" viewBox="0 0 25 10" fill="none" xmlns="http://www.w3.org/2000/svg">
<path d="M0 4.50642C0.889993 4.50613 0.889993 4.50613 1.23169 4.50608C1.23648 4.50608 1.24127 4.50608 1.24606 4.50608C1.24846 4.50608 1.25087 4.50608 1.25334 4.50608C1.33818 4.50606 1.42301 4.50605 1.50785 4.50603C1.51594 4.50603 1.52404 4.50603 1.53214 4.50603C1.65591 4.50601 1.77968 4.50598 1.90346 4.50594C1.90744 4.50593 1.90744 4.50593 1.9115 4.50593C1.95431 4.50592 1.99712 4.5059 2.03993 4.50588C2.16345 4.50584 2.28696 4.5058 2.41048 4.50578C2.41302 4.50578 2.41557 4.50578 2.41819 4.50578C2.47415 4.50577 2.53011 4.50576 2.58607 4.50576C2.6086 4.50575 2.63113 4.50575 2.65365 4.50575C2.65612 4.50575 2.65858 4.50575 2.66112 4.50575C2.74017 4.50574 2.81921 4.50571 2.89825 4.50567C2.9803 4.50563 3.06235 4.50561 3.1444 4.50562C3.18746 4.50562 3.23051 4.50562 3.27357 4.50558C3.60924 4.50529 3.60924 4.50529 3.75494 4.51347C3.76016 4.51376 3.76538 4.51404 3.77061 4.51432C3.79792 4.51582 3.82519 4.51758 3.85246 4.51964C3.85838 4.52007 3.85838 4.52007 3.86441 4.52052C4.25578 4.5494 4.64589 4.6147 5.06177 4.73206C5.06502 4.73299 5.06827 4.73392 5.07162 4.73488C5.38399 4.82437 5.68624 4.94073 6.20397 5.18878C6.21092 5.19248 6.21786 5.19617 6.22481 5.19987C6.27794 5.22809 6.33076 5.25679 6.38296 5.28673C6.39377 5.29293 6.40459 5.29909 6.41542 5.30526C6.4698 5.33635 6.52332 5.36871 6.57642 5.40193C6.58092 5.40474 6.58092 5.40474 6.58551 5.40761C6.60184 5.41785 6.61812 5.42816 6.63438 5.43852C6.64081 5.44262 6.64724 5.4467 6.65368 5.45079C6.69995 5.48014 6.74578 5.50996 6.79078 5.54124C6.79813 5.54633 6.8055 5.5514 6.81288 5.55645C6.86701 5.5935 6.92032 5.63156 6.97301 5.67064C6.98145 5.67688 6.98991 5.68309 6.99839 5.68929C7.03428 5.71557 7.06963 5.74246 7.1046 5.76996C7.11132 5.77524 7.11805 5.7805 7.12478 5.78575C7.15387 5.80848 7.18256 5.83168 7.21114 5.85505C7.21678 5.85966 7.22243 5.86426 7.22808 5.86885C7.25102 5.88754 7.27362 5.9066 7.29616 5.92578C7.30206 5.93078 7.30797 5.93576 7.31389 5.94074C7.3344 5.95799 7.35454 5.97551 7.37435 5.99357C7.38372 6.00186 7.39336 6.00973 7.4031 6.01759C7.41643 6.02838 7.42873 6.03952 7.44065 6.05184C7.44662 6.05785 7.45283 6.06339 7.45924 6.06893C7.48012 6.08699 7.50024 6.10587 7.52044 6.12468C7.5227 6.12677 7.52495 6.12887 7.52728 6.13102C7.55425 6.15607 7.581 6.18126 7.6067 6.20762C7.61606 6.21715 7.62566 6.22615 7.63579 6.23487C7.65341 6.25013 7.66978 6.26658 7.68622 6.28311C7.68924 6.28613 7.69227 6.28914 7.69539 6.29225C7.71081 6.30771 7.72563 6.32342 7.73986 6.34C7.75069 6.35222 7.76241 6.36356 7.77406 6.375C7.7905 6.39114 7.80634 6.40747 7.82129 6.42502C7.82702 6.43155 7.83302 6.43766 7.83922 6.44375C7.84969 6.45406 7.85933 6.46485 7.8689 6.47599C7.87626 6.48435 7.8838 6.4925 7.8914 6.50064C7.90902 6.51954 7.92575 6.53881 7.94192 6.55899C7.95135 6.57031 7.96125 6.58107 7.97131 6.59182C7.98688 6.60848 8.0016 6.62556 8.01588 6.64336C8.02555 6.65523 8.0355 6.66683 8.04551 6.67842C8.05965 6.69485 8.07348 6.71144 8.08691 6.72845C8.09488 6.73849 8.10297 6.74842 8.11108 6.75835C8.12986 6.78137 8.1483 6.80457 8.1663 6.8282C8.17314 6.83718 8.18006 6.84609 8.18702 6.85498C8.21684 6.89306 8.24581 6.9317 8.27425 6.97083C8.27718 6.97486 8.27718 6.97486 8.28018 6.97898C8.30592 7.01442 8.33136 7.05005 8.35649 7.08593C8.36054 7.09171 8.36461 7.09749 8.36867 7.10326C8.40654 7.15705 8.44294 7.21167 8.47855 7.26698C8.4807 7.27032 8.48285 7.27366 8.48507 7.2771C8.58858 7.4381 8.68394 7.60375 8.77195 7.77373C8.77658 7.78261 8.78125 7.79148 8.78594 7.80033C8.80641 7.83898 8.82621 7.8779 8.84532 7.91723C8.84675 7.92016 8.84817 7.92309 8.84964 7.9261C8.87765 7.98375 8.90403 8.04204 8.92958 8.10082C8.93537 8.11416 8.94122 8.12747 8.94708 8.14078C9.07655 8.43515 9.18019 8.74107 9.26516 9.07782C9.26617 9.08188 9.26719 9.08593 9.26824 9.0901C9.27111 9.10155 9.27395 9.113 9.27678 9.12446C9.27807 9.12959 9.27807 9.12959 9.27938 9.13483C9.28015 9.13798 9.28092 9.14113 9.28171 9.14438C9.28239 9.14711 9.28306 9.14985 9.28376 9.15267C9.28519 9.16023 9.28519 9.16023 9.28519 9.17434C8.66679 9.17434 8.04839 9.17434 7.41124 9.17434C7.39729 9.13478 7.38335 9.09522 7.36897 9.05447C7.3586 9.02741 7.34815 9.00045 7.33727 8.9736C7.33526 8.96859 7.33526 8.96859 7.3332 8.96349C7.31262 8.91234 7.29136 8.86159 7.2683 8.81149C7.26312 8.80023 7.25801 8.78894 7.2529 8.77765C7.20922 8.68173 7.16283 8.58682 7.10986 8.49567C7.10138 8.4809 7.09332 8.4659 7.0852 8.45092C7.06572 8.41527 7.045 8.38045 7.02377 8.34582C7.02183 8.34264 7.01989 8.33946 7.01789 8.33619C6.95089 8.22676 6.87847 8.12083 6.80186 8.01793C6.8 8.01543 6.79813 8.01292 6.79622 8.01033C6.76404 7.96699 6.73108 7.92435 6.69678 7.88267C6.6917 7.8765 6.68665 7.87031 6.68161 7.8641C6.66171 7.83956 6.64124 7.81554 6.62062 7.7916C6.61525 7.78533 6.6099 7.77904 6.60456 7.77274C6.58372 7.74818 6.56239 7.7242 6.54044 7.70063C6.53206 7.69163 6.52383 7.6825 6.51566 7.67331C6.47473 7.62769 6.43206 7.58376 6.3887 7.54048C6.38082 7.53261 6.37296 7.52473 6.3651 7.51684C6.35999 7.51173 6.35488 7.50662 6.34977 7.50151C6.34748 7.49921 6.34518 7.4969 6.34281 7.49452C6.32934 7.48111 6.31549 7.46835 6.30105 7.45598C6.29452 7.45022 6.28839 7.44419 6.2823 7.43797C6.27184 7.42734 6.2609 7.41752 6.24962 7.4078C6.24063 7.39994 6.23186 7.39186 6.22308 7.38376C6.20715 7.36921 6.19072 7.35552 6.17394 7.34198C6.16418 7.33387 6.15488 7.32541 6.14558 7.31678C6.12926 7.30174 6.11227 7.28797 6.09475 7.27439C6.0815 7.26411 6.06855 7.25358 6.05576 7.24274C6.03196 7.22276 6.00728 7.20402 5.98252 7.18525C5.97362 7.17849 5.96476 7.17168 5.95591 7.16486C5.91796 7.13568 5.87959 7.10735 5.84023 7.08012C5.83568 7.07696 5.83114 7.07379 5.82659 7.07063C5.65967 6.95482 5.48537 6.85229 5.30482 6.75929C5.30161 6.75762 5.2984 6.75596 5.2951 6.75424C5.23157 6.72134 5.16638 6.69243 5.10086 6.66381C5.09402 6.66081 5.08719 6.6578 5.08037 6.65479C4.74801 6.50793 4.39194 6.40879 3.41572 6.31408C3.39743 6.31408 3.37914 6.31405 3.36085 6.31402C3.32896 6.31397 3.29707 6.31395 3.26519 6.31395C3.21777 6.31394 3.17036 6.3139 3.12294 6.31384C3.04314 6.31376 2.96334 6.3137 2.88354 6.31366C2.80463 6.31363 2.72571 6.31357 2.64679 6.3135C2.64433 6.3135 2.64187 6.3135 2.63934 6.3135C2.61687 6.31348 2.5944 6.31346 2.57193 6.31344C2.5161 6.31338 2.46026 6.31334 2.40443 6.31329C2.40062 6.31329 2.40062 6.31329 2.39673 6.31328C2.27341 6.31318 2.1501 6.3131 2.02678 6.31302C1.98404 6.313 1.9413 6.31297 1.89856 6.31294C1.89591 6.31294 1.89326 6.31294 1.89052 6.31294C1.76706 6.31286 1.6436 6.31276 1.52014 6.31266C1.51205 6.31265 1.50396 6.31265 1.49588 6.31264C1.41158 6.31257 1.32729 6.3125 1.24299 6.31243C1.23938 6.31243 1.23938 6.31243 1.23569 6.31243C1.22921 6.31242 1.22273 6.31242 1.21624 6.31241C0.81083 6.31207 0.405415 6.31181 0 6.31154C0 5.71585 0 5.12016 0 4.50642Z" fill="#3D4284"/>
<path d="M0 0.000465531C0.860788 0.000323171 0.860788 0.000323171 1.19132 0.000295719C1.28036 0.000288305 1.36941 0.000280693 1.45845 0.000272576C1.46628 0.000271864 1.47411 0.000271159 1.48194 0.000270454C1.60166 0.000259666 1.72138 0.000245945 1.8411 0.000223446C1.84367 0.000222963 1.84624 0.00022248 1.84888 0.000221983C1.89029 0.000214184 1.93169 0.000206133 1.97309 0.000198047C2.09256 0.000174723 2.21202 0.000153313 2.33148 0.000144206C2.33395 0.000144018 2.33641 0.000143829 2.33895 0.000143635C2.39308 0.000139522 2.44722 0.000136368 2.50135 0.000134119C2.52314 0.000133197 2.54494 0.000132137 2.56673 0.00013103C2.5703 0.000130853 2.5703 0.000130853 2.57395 0.000130673C2.6504 0.000126827 2.72685 0.000111836 2.80329 9.08201e-05C2.88266 6.9055e-05 2.96203 6.00711e-05 3.04139 6.53681e-05C3.08304 6.77953e-05 3.12468 6.46911e-05 3.16632 4.52577e-05C3.58741 -0.000143595 3.58741 -0.000143596 3.73997 0.00861852C3.74404 0.00884327 3.74812 0.00906802 3.75232 0.00929959C4.12983 0.0301622 4.5044 0.0858281 5.805 0.494052C5.81118 0.496741 5.81118 0.496741 5.81748 0.499483C5.98464 0.572558 6.14917 0.652307 6.30872 0.740845C6.31213 0.742729 6.31553 0.744612 6.31905 0.746552C6.37335 0.776566 6.42691 0.807707 6.48014 0.839585C6.49166 0.84648 6.5032 0.853346 6.51474 0.860207C6.52216 0.864636 6.52959 0.869065 6.53701 0.873497C6.5402 0.875387 6.54338 0.877277 6.54666 0.879225C6.60759 0.915716 6.66695 0.954818 6.72621 0.993939C6.73609 1.00045 6.74597 1.00695 6.75585 1.01345C6.79521 1.03937 6.83404 1.06591 6.87231 1.09341C6.87704 1.0968 6.87704 1.0968 6.88187 1.10026C6.88919 1.10552 6.8965 1.1108 6.90379 1.1161C6.90912 1.11997 6.91445 1.12383 6.91978 1.1277C6.92242 1.12961 6.92506 1.13153 6.92778 1.1335C6.93557 1.13914 6.94338 1.14474 6.95121 1.15034C6.98967 1.17791 7.0274 1.20636 7.06491 1.2352C7.07196 1.24062 7.07902 1.24602 7.08609 1.25141C7.10823 1.26833 7.13008 1.2856 7.15179 1.30307C7.1646 1.31338 7.17749 1.32357 7.19047 1.33367C7.21168 1.35018 7.23229 1.36724 7.2526 1.38484C7.26475 1.39536 7.27701 1.40567 7.2895 1.41578C7.32371 1.44361 7.35677 1.47284 7.38943 1.50246C7.39664 1.50897 7.40392 1.51539 7.41124 1.52177C7.42481 1.5336 7.43819 1.54563 7.45155 1.5577C7.45736 1.56295 7.46319 1.5682 7.46902 1.57343C7.53307 1.63089 7.53307 1.63089 7.56023 1.65867C7.5661 1.66443 7.57218 1.66973 7.57845 1.67505C7.5984 1.69244 7.61692 1.71126 7.63559 1.72999C7.63952 1.73392 7.64345 1.73785 7.64738 1.74177C7.65557 1.74997 7.66375 1.75817 7.67194 1.76637C7.68235 1.77682 7.69279 1.78725 7.70322 1.79767C7.71133 1.80577 7.71942 1.81388 7.72751 1.82198C7.73135 1.82583 7.7352 1.82967 7.73904 1.83352C7.75793 1.85239 7.77662 1.87131 7.79392 1.89168C7.80042 1.89923 7.80742 1.90618 7.81456 1.91311C7.82612 1.92455 7.83695 1.93628 7.84752 1.94862C7.85801 1.96052 7.86888 1.97205 7.87973 1.98363C7.89652 2.00156 7.91311 2.01957 7.92904 2.03827C7.93594 2.04636 7.94284 2.05443 7.94974 2.06251C7.95249 2.06573 7.95249 2.06573 7.95529 2.06902C7.96596 2.08149 7.97678 2.09378 7.98783 2.10592C8.0012 2.12068 8.01383 2.13593 8.02635 2.15142C8.03531 2.16239 8.04446 2.17316 8.05365 2.18392C8.06854 2.20142 8.08286 2.21929 8.09694 2.23744C8.10986 2.25403 8.12321 2.27022 8.13665 2.28639C8.15434 2.30772 8.17132 2.32944 8.18779 2.35172C8.2012 2.36984 8.21499 2.38763 8.22889 2.40538C8.24785 2.42964 8.26602 2.45432 8.28372 2.47951C8.29059 2.48921 8.29758 2.49883 8.30457 2.50846C8.31446 2.5221 8.3243 2.53579 8.33413 2.54949C8.3359 2.55196 8.33768 2.55443 8.33951 2.55698C8.3706 2.60047 8.40026 2.64492 8.42989 2.68941C8.43184 2.69232 8.43378 2.69524 8.43578 2.69824C8.46978 2.74929 8.50363 2.80045 8.53579 2.85269C8.53767 2.85574 8.53954 2.85878 8.54148 2.86192C8.60295 2.96192 8.66187 3.06341 8.71807 3.16647C8.72029 3.17054 8.72252 3.17461 8.7248 3.17881C8.79218 3.30275 8.85599 3.42909 8.91282 3.55823C8.91803 3.57007 8.9233 3.58186 8.9286 3.59366C9.00449 3.76265 9.07085 3.93587 9.1302 4.11134C9.1317 4.11577 9.1317 4.11577 9.13324 4.12029C9.18231 4.2654 9.2243 4.41243 9.26207 4.56085C9.26266 4.56316 9.26325 4.56548 9.26386 4.56786C9.26777 4.58318 9.27164 4.59851 9.27549 4.61385C9.27648 4.61774 9.27746 4.62164 9.27848 4.62565C9.27937 4.62923 9.28026 4.63281 9.28118 4.63649C9.28196 4.63961 9.28274 4.64272 9.28354 4.64592C9.28519 4.65428 9.28519 4.65428 9.28519 4.66838C8.66679 4.66838 8.04839 4.66838 7.41124 4.66838C7.39846 4.63232 7.38567 4.59625 7.3725 4.55909C7.30402 4.38056 7.22815 4.20272 7.13448 4.03581C7.12914 4.02616 7.12395 4.01645 7.1188 4.00671C7.09236 3.95687 7.06384 3.90862 7.0343 3.86059C7.02528 3.84591 7.01649 3.83111 7.00777 3.81625C6.97982 3.76879 6.94896 3.72327 6.9181 3.67769C6.91587 3.67439 6.91365 3.6711 6.91136 3.66771C6.86077 3.59296 6.80804 3.5197 6.75254 3.44852C6.75098 3.44651 6.74941 3.4445 6.7478 3.44242C6.71854 3.40485 6.68859 3.3679 6.65775 3.33161C6.64742 3.31944 6.6373 3.30713 6.62728 3.29471C6.61363 3.27792 6.59927 3.2619 6.58464 3.24596C6.57775 3.23843 6.57099 3.23082 6.56431 3.2231C6.5509 3.20766 6.53705 3.19261 6.5232 3.17756C6.51653 3.1703 6.50989 3.16302 6.50328 3.15571C6.48724 3.13802 6.471 3.12068 6.45402 3.10389C6.44347 3.09346 6.43323 3.08303 6.42364 3.07172C6.39958 3.04358 6.3727 3.01742 6.34449 2.99349C6.33391 2.98398 6.32399 2.97386 6.314 2.96375C6.29992 2.94952 6.28577 2.93572 6.27052 2.92275C6.26014 2.91373 6.2501 2.90436 6.24003 2.895C6.22324 2.87943 6.20632 2.86408 6.18895 2.84916C6.18722 2.84768 6.1855 2.84619 6.18372 2.84465C6.17116 2.83384 6.15858 2.82305 6.14598 2.81228C6.14189 2.80878 6.13781 2.80528 6.13373 2.80178C6.10871 2.7803 6.08325 2.75952 6.05725 2.73925C6.04622 2.73065 6.03531 2.72191 6.02442 2.71313C6.00181 2.69492 5.97899 2.67709 5.95563 2.65984C5.94842 2.65451 5.94122 2.64916 5.93403 2.64381C5.92837 2.63962 5.92272 2.63543 5.91706 2.63124C5.91454 2.62936 5.91201 2.62748 5.90941 2.62555C5.86156 2.59021 5.8126 2.55651 5.76308 2.52356C5.75439 2.51777 5.74571 2.51197 5.73703 2.50616C5.6829 2.47002 5.62814 2.43493 5.57208 2.40185C5.57011 2.40069 5.56814 2.39952 5.5661 2.39832C5.52286 2.37276 5.47915 2.34807 5.43515 2.32385C5.43162 2.3219 5.42809 2.31995 5.42445 2.31794C5.32019 2.26046 5.21365 2.20827 5.10445 2.16092C5.09115 2.15515 5.0779 2.1493 5.06464 2.14344C4.99774 2.11402 4.92959 2.08808 4.86099 2.06295C4.85831 2.06197 4.85563 2.06099 4.85286 2.05997C4.54625 1.94784 4.22706 1.87333 3.68845 1.81704C3.6852 1.81683 3.68195 1.81662 3.67861 1.81641C3.56941 1.80953 3.46012 1.80857 3.35075 1.80855C3.33282 1.80855 3.3149 1.80852 3.29698 1.8085C3.26569 1.80846 3.23441 1.80843 3.20313 1.80841C3.15661 1.80839 3.1101 1.80834 3.06358 1.80829C2.9853 1.80821 2.90702 1.80814 2.82875 1.80808C2.75131 1.80802 2.67388 1.80796 2.59645 1.80788C2.59283 1.80788 2.59283 1.80788 2.58914 1.80788C2.56711 1.80786 2.54508 1.80783 2.52305 1.80781C2.4683 1.80776 2.41355 1.80771 2.35881 1.80766C2.35631 1.80765 2.35382 1.80765 2.35125 1.80765C2.23027 1.80754 2.10928 1.80743 1.98829 1.80734C1.94635 1.8073 1.9044 1.80727 1.86246 1.80723C1.85986 1.80723 1.85726 1.80723 1.85458 1.80722C1.73346 1.80712 1.61235 1.80701 1.49124 1.8069C1.48331 1.80689 1.47538 1.80689 1.46744 1.80688C1.37603 1.8068 1.28462 1.80671 1.1932 1.80663C0.795469 1.80625 0.397735 1.80592 0 1.80558C0 1.20989 0 0.614205 0 0.000465531Z" fill="#F47A38"/>
<path d="M0 7.69357C0.605616 7.69357 1.21123 7.69357 1.8352 7.69357C1.8352 8.16826 1.8352 8.64295 1.8352 9.13202C1.22958 9.13202 0.623968 9.13202 0 9.13202C0 8.65733 0 8.18264 0 7.69357Z" fill="#3D4284"/>
<path d="M16.9122 1.59387C17.1372 1.58977 17.3627 1.61568 17.5807 1.67167C17.5849 1.67276 17.5892 1.67386 17.5937 1.67498C17.8552 1.74227 18.111 1.85611 18.3309 2.01365C18.3348 2.01639 18.3348 2.01639 18.3387 2.01917C18.4126 2.07182 18.484 2.12775 18.551 2.18895C18.5564 2.19378 18.5617 2.19858 18.5671 2.20332C18.5951 2.22795 18.6213 2.25438 18.6476 2.28078C18.6557 2.28888 18.6638 2.29696 18.6719 2.30505C18.6771 2.31027 18.6823 2.3155 18.6875 2.32073C18.6899 2.3231 18.6923 2.32548 18.6947 2.32793C18.7104 2.34365 18.7251 2.35995 18.7395 2.37679C18.7428 2.38061 18.7461 2.38442 18.7495 2.38824C18.7954 2.44158 18.8393 2.49588 18.8804 2.55307C18.8831 2.55678 18.8831 2.55678 18.8859 2.56056C18.9349 2.62843 18.9797 2.69899 19.0213 2.77166C19.0229 2.77434 19.0244 2.77702 19.026 2.77979C19.0364 2.7981 19.0466 2.81657 19.0566 2.83512C19.0583 2.83828 19.06 2.84143 19.0617 2.84468C19.194 3.09058 19.2794 3.36179 19.3516 3.86262C19.3518 3.86517 19.352 3.86771 19.3522 3.87034C19.3582 3.9454 19.3602 4.02047 19.3602 4.09575C19.3601 4.0998 19.3601 4.10385 19.3601 4.10803C19.3599 4.2521 19.3496 4.39467 19.3278 4.53712C19.3274 4.53989 19.3269 4.54266 19.3265 4.54551C19.3202 4.58685 19.3118 4.62746 19.3031 4.66844C18.1954 4.66961 17.0876 4.67077 15.9462 4.67197C15.9723 4.73642 15.9723 4.73642 16.0024 4.79867C16.005 4.80364 16.005 4.80364 16.0077 4.80871C16.0429 4.87412 16.0858 4.93491 16.1364 4.98928C16.1407 4.99418 16.145 4.9991 16.1492 5.00404C16.204 5.06684 16.2731 5.11603 16.3443 5.1585C16.3479 5.16068 16.3479 5.16068 16.3516 5.16289C16.5194 5.26328 16.7218 5.30675 16.9149 5.32068C16.921 5.32114 16.921 5.32114 16.9273 5.32161C16.9726 5.32478 17.0179 5.32507 17.0633 5.32509C17.0673 5.32509 17.0714 5.3251 17.0756 5.3251C17.1401 5.32504 17.2032 5.32278 17.2672 5.31363C17.2715 5.31303 17.2758 5.31242 17.2803 5.3118C17.4684 5.28485 17.6562 5.2219 17.8131 5.11267C17.8153 5.1112 17.8174 5.10973 17.8197 5.10822C17.8508 5.08689 17.8799 5.06358 17.9082 5.03863C17.9113 5.03595 17.9144 5.03326 17.9176 5.03049C17.94 5.0106 17.9612 4.98952 17.9822 4.96812C17.9956 4.97315 18.0078 4.97925 18.0202 4.98619C18.0242 4.98837 18.0281 4.99055 18.0321 4.9928C18.0363 4.99515 18.0405 4.9975 18.0447 4.99985C18.0491 5.00228 18.0534 5.00471 18.0578 5.00713C18.0825 5.02096 18.1071 5.03502 18.1315 5.04952C18.155 5.06352 18.1788 5.07707 18.2026 5.09064C18.2337 5.1084 18.2648 5.12628 18.2957 5.1444C18.3258 5.16206 18.3561 5.17952 18.3864 5.19685C18.3885 5.19802 18.3905 5.19919 18.3926 5.2004C18.4073 5.20877 18.4219 5.21713 18.4366 5.22549C18.4533 5.23503 18.4701 5.24458 18.4868 5.25414C18.4889 5.25531 18.4909 5.25649 18.493 5.2577C18.5247 5.27582 18.5563 5.29417 18.5878 5.31263C18.627 5.33554 18.6664 5.35801 18.7058 5.38049C18.7266 5.39235 18.7474 5.40422 18.7682 5.4161C18.7702 5.41726 18.7722 5.41843 18.7743 5.41963C18.823 5.44743 18.8714 5.47546 18.9199 5.5035C18.9762 5.53605 19.0326 5.56842 19.089 5.60066C19.1005 5.60722 19.112 5.61379 19.1235 5.62036C19.1176 5.63344 19.1096 5.64487 19.1012 5.6565C19.0997 5.65864 19.0982 5.66077 19.0966 5.66298C19.0789 5.6874 19.0598 5.71065 19.0407 5.73389C19.0336 5.74249 19.0266 5.75117 19.0196 5.75984C18.9688 5.82171 18.9142 5.87948 18.8578 5.93612C18.8558 5.93812 18.8538 5.94011 18.8518 5.94216C18.8302 5.96377 18.8086 5.98488 18.7853 6.00465C18.7797 6.00978 18.774 6.01492 18.7684 6.02008C18.7499 6.03676 18.7307 6.0525 18.7114 6.06811C18.7074 6.07134 18.7035 6.07456 18.6995 6.07778C18.5832 6.17233 18.4566 6.25257 18.3239 6.32196C18.3205 6.32373 18.3171 6.32549 18.3137 6.32731C18.0393 6.47018 17.738 6.54466 17.0691 6.6016C17.06 6.60158 17.0509 6.60157 17.0418 6.60157C16.9452 6.60142 16.8491 6.59916 16.7529 6.58991C16.7497 6.58961 16.7465 6.58931 16.7433 6.589C16.4364 6.5599 16.1339 6.48952 15.618 6.24662C15.6084 6.24108 15.5988 6.2356 15.5892 6.23013C15.4814 6.16818 15.3787 6.09468 15.2843 6.01384C15.2745 6.0055 15.2645 5.99747 15.2545 5.98945C15.2314 5.97065 15.21 5.95014 15.1884 5.9297C15.1804 5.92218 15.1723 5.91476 15.1642 5.90736C15.1322 5.87809 15.1005 5.84814 15.0724 5.81501C15.0649 5.80637 15.0571 5.79802 15.0492 5.78965C15.031 5.7702 15.0133 5.75055 14.9967 5.7297C14.9902 5.72162 14.9836 5.71364 14.977 5.70571C14.9462 5.66896 14.9174 5.63113 14.8895 5.59216C14.8862 5.58751 14.8862 5.58751 14.8828 5.58277C14.8252 5.50236 14.7746 5.41812 14.7275 5.33126C14.7257 5.32797 14.7239 5.32468 14.722 5.32129C14.5828 5.06507 14.498 4.77721 14.4414 4.33581C14.4412 4.33326 14.441 4.33071 14.4407 4.32809C14.4364 4.27822 14.4345 4.22852 14.4344 4.17848C14.4344 4.17556 14.4344 4.17264 14.4344 4.16963C14.4343 4.15411 14.4343 4.13858 14.4343 4.12306C14.4342 4.11058 14.4342 4.0981 14.4341 4.08563C14.4334 3.97144 14.4386 3.8578 14.4536 3.74451C14.454 3.7417 14.4543 3.73889 14.4547 3.73599C14.4891 3.46945 14.5631 3.21131 14.6772 2.96801C14.6814 2.95906 14.6855 2.95009 14.6897 2.94111C14.7862 2.73152 14.9244 2.53666 15.0815 2.36833C15.0867 2.36275 15.0918 2.35713 15.0969 2.35149C15.1304 2.31476 15.1645 2.27792 15.2025 2.24585C15.2111 2.2384 15.2193 2.23067 15.2276 2.22289C15.247 2.20462 15.2667 2.18695 15.2875 2.17027C15.2956 2.16377 15.3035 2.15721 15.3115 2.15055C15.3482 2.11978 15.386 2.09092 15.4249 2.06301C15.4292 2.0599 15.4292 2.0599 15.4337 2.05673C15.6177 1.92492 15.8209 1.82061 16.0343 1.74571C16.0384 1.74427 16.0424 1.74284 16.0466 1.74136C16.2074 1.68509 16.373 1.64622 16.5415 1.62231C16.544 1.62196 16.5464 1.62162 16.5489 1.62126C16.6693 1.6043 16.7907 1.59637 16.9122 1.59387ZM16.1893 3.12422C16.187 3.12644 16.1847 3.12865 16.1823 3.13093C16.1489 3.16318 16.118 3.19596 16.0907 3.23352C16.0891 3.23556 16.0876 3.2376 16.0861 3.2397C16.0649 3.2684 16.0452 3.29783 16.0272 3.32871C16.0258 3.33115 16.0244 3.33359 16.0229 3.33611C15.9483 3.46272 15.9483 3.46272 15.9145 3.60371C16.5841 3.60371 17.2536 3.60371 17.9435 3.60371C17.9129 3.46593 17.8462 3.32875 17.7568 3.21942C17.7553 3.21756 17.7537 3.2157 17.7522 3.21378C17.72 3.17454 17.6867 3.13552 17.6476 3.10307C17.6443 3.10023 17.6411 3.09739 17.6378 3.09446C17.5919 3.05434 17.542 3.02034 17.4891 2.99025C17.4851 2.98795 17.4811 2.98564 17.477 2.98327C17.3756 2.92597 17.2602 2.89217 17.1458 2.87324C17.1426 2.8727 17.1393 2.87215 17.136 2.87159C17.0714 2.86151 17.0068 2.85846 16.9415 2.8587C16.936 2.85871 16.936 2.85871 16.9304 2.85872C16.6616 2.85951 16.3863 2.93264 16.1893 3.12422Z" fill="#3D4284"/>
<path d="M19.5779 1.72806C19.7854 1.72677 19.993 1.72578 20.2005 1.72518C20.225 1.72511 20.2495 1.72504 20.274 1.72496C20.2765 1.72496 20.2789 1.72495 20.2814 1.72494C20.3604 1.7247 20.4394 1.72428 20.5184 1.72376C20.6019 1.72321 20.6854 1.72287 20.7689 1.72276C20.8189 1.72268 20.869 1.72243 20.919 1.72198C20.9533 1.72168 20.9875 1.72159 21.0218 1.72166C21.0416 1.7217 21.0614 1.72164 21.0812 1.72134C21.0993 1.72106 21.1174 1.72105 21.1356 1.72124C21.1421 1.72127 21.1487 1.7212 21.1552 1.72102C21.2028 1.7198 21.2028 1.7198 21.2187 1.73363C21.2304 1.74714 21.2392 1.762 21.2474 1.7778C21.2522 1.78669 21.2579 1.79478 21.2639 1.80293C21.2666 1.80688 21.2666 1.80688 21.2695 1.81092C21.2713 1.81353 21.2731 1.81615 21.275 1.81885C21.2792 1.82484 21.2834 1.83083 21.2876 1.83682C21.2897 1.83982 21.2918 1.84281 21.294 1.8459C21.3003 1.85494 21.3066 1.86399 21.313 1.87304C21.3322 1.90055 21.3514 1.92805 21.3708 1.95547C21.3965 1.99188 21.422 2.02843 21.4476 2.06498C21.4689 2.0955 21.4902 2.12601 21.5117 2.15643C21.5374 2.19284 21.5629 2.22939 21.5885 2.26594C21.6098 2.29646 21.6311 2.32697 21.6526 2.35739C21.6783 2.3938 21.7038 2.43035 21.7294 2.4669C21.7507 2.49742 21.772 2.52793 21.7935 2.55835C21.815 2.58878 21.8363 2.6193 21.8577 2.64984C21.868 2.66459 21.8783 2.67934 21.8886 2.69408C21.901 2.71183 21.9134 2.72958 21.9258 2.74734C21.9473 2.77809 21.9689 2.80881 21.9905 2.83945C22.0035 2.85795 22.0165 2.87647 22.0295 2.89504C22.0452 2.88053 22.0566 2.86436 22.0685 2.84657C22.0725 2.84052 22.0766 2.83447 22.0807 2.82843C22.0828 2.8254 22.0848 2.82237 22.0869 2.81925C22.0957 2.80628 22.1047 2.79347 22.1138 2.78068C22.1173 2.77575 22.1208 2.77082 22.1243 2.76589C22.1269 2.76215 22.1269 2.76215 22.1296 2.75833C22.1396 2.74421 22.1495 2.73006 22.1594 2.7159C22.1625 2.71148 22.1625 2.71148 22.1656 2.70698C22.1719 2.69798 22.1782 2.68898 22.1845 2.67998C22.2096 2.644 22.2348 2.60804 22.2601 2.57219C22.282 2.54121 22.3037 2.51011 22.3254 2.47902C22.3505 2.44304 22.3757 2.40708 22.401 2.37123C22.4229 2.34025 22.4446 2.30915 22.4663 2.27806C22.4914 2.24208 22.5166 2.20612 22.5419 2.17027C22.5617 2.14227 22.5813 2.11418 22.6009 2.08608C22.6133 2.0684 22.6256 2.05073 22.638 2.03306C22.6483 2.01823 22.6587 2.00341 22.6691 1.98859C22.69 1.95861 22.711 1.92867 22.7321 1.8988C22.7456 1.87975 22.7589 1.86065 22.7723 1.84154C22.7753 1.83719 22.7753 1.83719 22.7784 1.83275C22.7894 1.81709 22.8003 1.80141 22.8112 1.78573C22.8146 1.78087 22.8146 1.78087 22.8181 1.77593C22.8224 1.76969 22.8267 1.76346 22.8311 1.75722C22.833 1.75443 22.835 1.75163 22.837 1.74875C22.8395 1.74505 22.8395 1.74505 22.8422 1.74127C22.8467 1.73511 22.8467 1.73511 22.8538 1.72806C22.8627 1.72737 22.8712 1.72713 22.8801 1.7272C22.8842 1.72718 22.8842 1.72718 22.8885 1.72717C22.8978 1.72715 22.9072 1.72718 22.9165 1.72722C22.9232 1.72721 22.93 1.72721 22.9367 1.7272C22.9553 1.72718 22.9739 1.72721 22.9924 1.72724C23.0125 1.72728 23.0325 1.72726 23.0525 1.72726C23.0872 1.72726 23.1218 1.72728 23.1565 1.72732C23.2067 1.72737 23.2568 1.72739 23.307 1.7274C23.3884 1.72742 23.4697 1.72746 23.5511 1.72753C23.6301 1.7276 23.7092 1.72765 23.7882 1.72768C23.7907 1.72768 23.7931 1.72768 23.7956 1.72768C23.8201 1.72769 23.8445 1.7277 23.869 1.72771C24.0742 1.72778 24.2794 1.7279 24.4846 1.72806C24.4788 1.74367 24.4707 1.75587 24.4606 1.76905C24.4454 1.78949 24.4307 1.81026 24.4164 1.83141C24.4013 1.85364 24.386 1.87559 24.3702 1.89729C24.3545 1.91879 24.3393 1.94051 24.3244 1.96252C24.3097 1.98421 24.2947 2.00566 24.2792 2.02686C24.2591 2.05454 24.2395 2.08258 24.22 2.11072C24.206 2.13094 24.192 2.15111 24.1778 2.17119C24.1626 2.19266 24.1475 2.21419 24.1324 2.23575C24.1085 2.26998 24.0844 2.30411 24.0603 2.33822C24.0376 2.37047 24.0149 2.40278 23.9922 2.43515C23.9774 2.45636 23.9625 2.47751 23.9476 2.49864C23.934 2.51792 23.9205 2.53724 23.907 2.55658C23.883 2.59081 23.859 2.62494 23.8349 2.65905C23.8121 2.6913 23.7894 2.72362 23.7668 2.75598C23.752 2.77719 23.7371 2.79834 23.7222 2.81948C23.7086 2.83875 23.695 2.85807 23.6815 2.87741C23.6576 2.91164 23.6336 2.94578 23.6095 2.97988C23.5867 3.01213 23.564 3.04445 23.5414 3.07682C23.5266 3.09802 23.5117 3.11918 23.4967 3.14031C23.4831 3.15958 23.4696 3.17891 23.4561 3.19825C23.4322 3.23248 23.4081 3.26661 23.384 3.30071C23.3612 3.33297 23.3385 3.36528 23.3159 3.39765C23.3011 3.41885 23.2862 3.44001 23.2713 3.46114C23.2577 3.48041 23.2442 3.49974 23.2307 3.51908C23.2067 3.55331 23.1827 3.58744 23.1586 3.62154C23.1358 3.6538 23.1131 3.68611 23.0905 3.71848C23.0757 3.73968 23.0608 3.76084 23.0459 3.78197C23.0323 3.80124 23.0187 3.82057 23.0052 3.83991C22.9847 3.86926 22.9641 3.89854 22.9435 3.92778C22.9382 3.9352 22.933 3.94262 22.9277 3.95004C22.926 3.95252 22.9242 3.95501 22.9224 3.95756C22.9189 3.96253 22.9155 3.96749 22.912 3.97246C22.9027 3.98562 22.8934 3.99868 22.8838 4.01163C22.8819 4.01435 22.8799 4.01707 22.8778 4.01987C22.874 4.02509 22.8702 4.0303 22.8663 4.03547C22.8638 4.03899 22.8638 4.03899 22.8612 4.04259C22.8589 4.04567 22.8589 4.04567 22.8566 4.04882C22.8531 4.05493 22.8531 4.05494 22.8546 4.06207C22.8592 4.07402 22.8669 4.08403 22.8742 4.09441C22.8768 4.09813 22.8768 4.09813 22.8795 4.10191C22.885 4.10979 22.8905 4.11764 22.896 4.12548C22.8995 4.13046 22.903 4.13544 22.9065 4.14041C22.9153 4.15293 22.9241 4.16543 22.933 4.17792C22.9417 4.19018 22.9503 4.20245 22.959 4.21473C22.9607 4.21717 22.9624 4.21962 22.9642 4.22213C22.98 4.24458 22.9958 4.26709 23.0115 4.28961C23.0299 4.31595 23.0484 4.34223 23.067 4.36848C23.0757 4.38091 23.0845 4.39334 23.0933 4.40577C23.0968 4.41076 23.1003 4.41576 23.1038 4.42075C23.125 4.45072 23.1461 4.48069 23.1672 4.51066C23.169 4.51313 23.1707 4.5156 23.1725 4.51815C23.1761 4.52315 23.1796 4.52815 23.1831 4.53316C23.1918 4.54551 23.2005 4.55787 23.2093 4.57022C23.2303 4.60002 23.2513 4.62989 23.2722 4.6598C23.2906 4.68614 23.3091 4.71242 23.3276 4.73867C23.3364 4.7511 23.3452 4.76353 23.3539 4.77596C23.3575 4.78095 23.361 4.78595 23.3645 4.79094C23.3856 4.82091 23.4068 4.85088 23.4279 4.88085C23.4297 4.88332 23.4314 4.88579 23.4332 4.88834C23.4367 4.89334 23.4402 4.89834 23.4438 4.90335C23.4525 4.9157 23.4612 4.92806 23.4699 4.94041C23.491 4.97021 23.5119 5.00008 23.5328 5.02998C23.5512 5.05633 23.5698 5.08261 23.5883 5.10886C23.5971 5.12129 23.6058 5.13372 23.6146 5.14615C23.6181 5.15114 23.6216 5.15614 23.6252 5.16113C23.6463 5.1911 23.6674 5.22107 23.6886 5.25104C23.6903 5.25351 23.6921 5.25598 23.6939 5.25853C23.6974 5.26353 23.7009 5.26853 23.7044 5.27354C23.7132 5.28589 23.7219 5.29825 23.7306 5.3106C23.7516 5.3404 23.7726 5.37027 23.7935 5.40017C23.8119 5.42652 23.8304 5.4528 23.849 5.47905C23.8577 5.49148 23.8665 5.50391 23.8753 5.51634C23.8788 5.52133 23.8823 5.52633 23.8858 5.53132C23.907 5.56129 23.9281 5.59126 23.9492 5.62123C23.951 5.6237 23.9527 5.62617 23.9545 5.62872C23.958 5.63372 23.9616 5.63872 23.9651 5.64373C23.9738 5.65608 23.9825 5.66844 23.9913 5.68079C24.0123 5.71059 24.0332 5.74046 24.0541 5.77036C24.0726 5.79671 24.0911 5.82299 24.1096 5.84924C24.1184 5.86167 24.1272 5.8741 24.1359 5.88653C24.1394 5.89152 24.143 5.89652 24.1465 5.90151C24.1676 5.93148 24.1888 5.96145 24.2099 5.99142C24.2116 5.99389 24.2134 5.99636 24.2152 5.99891C24.2187 6.00391 24.2222 6.00891 24.2258 6.01392C24.2345 6.02627 24.2432 6.03863 24.2519 6.05098C24.273 6.08078 24.2939 6.11065 24.3148 6.14055C24.3332 6.1669 24.3517 6.19318 24.3703 6.21943C24.3791 6.23186 24.3878 6.24429 24.3966 6.25672C24.4001 6.26171 24.4036 6.26671 24.4072 6.2717C24.4142 6.28169 24.4212 6.29168 24.4283 6.30167C24.43 6.30414 24.4318 6.30662 24.4336 6.30916C24.4371 6.31416 24.4406 6.31915 24.4441 6.32414C24.453 6.33668 24.4618 6.34921 24.4707 6.36173C24.4812 6.37665 24.4918 6.3916 24.5023 6.40656C24.5041 6.4092 24.506 6.41184 24.5079 6.41456C24.5134 6.42238 24.5188 6.43022 24.5243 6.43807C24.526 6.44047 24.5276 6.44287 24.5294 6.44534C24.541 6.46216 24.541 6.46216 24.541 6.47002C24.334 6.47147 24.127 6.47259 23.92 6.47326C23.8956 6.47334 23.8712 6.47342 23.8467 6.47351C23.8431 6.47352 23.8431 6.47352 23.8394 6.47353C23.7606 6.4738 23.6818 6.47428 23.603 6.47486C23.5197 6.47548 23.4365 6.47586 23.3532 6.47599C23.3033 6.47608 23.2534 6.47635 23.2036 6.47687C23.1694 6.4772 23.1352 6.4773 23.101 6.47722C23.0812 6.47718 23.0615 6.47724 23.0418 6.47758C22.917 6.47963 22.917 6.47963 22.8909 6.45608C22.8801 6.44314 22.873 6.4297 22.8672 6.41394C22.8633 6.40389 22.8574 6.3959 22.8508 6.38741C22.8471 6.38219 22.8435 6.37697 22.8399 6.37174C22.8357 6.36582 22.8316 6.35989 22.8275 6.35396C22.8254 6.35101 22.8234 6.34806 22.8213 6.34502C22.8108 6.33004 22.8004 6.31509 22.7899 6.30013C22.7879 6.2972 22.7858 6.29427 22.7837 6.29126C22.7654 6.26509 22.747 6.239 22.7286 6.21292C22.7198 6.20049 22.711 6.18806 22.7023 6.17563C22.6988 6.17064 22.6952 6.16564 22.6917 6.16065C22.6847 6.15066 22.6776 6.14067 22.6706 6.13068C22.6688 6.12821 22.6671 6.12574 22.6653 6.12319C22.6618 6.11819 22.6582 6.11318 22.6547 6.10818C22.646 6.09582 22.6373 6.08347 22.6286 6.07111C22.6075 6.04131 22.5866 6.01145 22.5657 5.98154C22.5473 5.95519 22.5287 5.92892 22.5102 5.90266C22.5014 5.89024 22.4927 5.87781 22.4839 5.86538C22.4804 5.86038 22.4768 5.85539 22.4733 5.85039C22.4663 5.8404 22.4592 5.83041 22.4522 5.82042C22.4504 5.81795 22.4487 5.81548 22.4469 5.81293C22.4434 5.80793 22.4399 5.80293 22.4363 5.79792C22.4276 5.78557 22.4189 5.77321 22.4102 5.76086C22.3891 5.73106 22.3682 5.70119 22.3473 5.67129C22.3289 5.64494 22.3103 5.61866 22.2918 5.59241C22.283 5.57999 22.2743 5.56755 22.2655 5.55512C22.262 5.55013 22.2585 5.54513 22.2549 5.54014C22.2479 5.53015 22.2408 5.52016 22.2338 5.51017C22.2321 5.5077 22.2303 5.50523 22.2285 5.50268C22.225 5.49768 22.2215 5.49267 22.2179 5.48767C22.2092 5.47531 22.2005 5.46296 22.1918 5.45061C22.1728 5.42379 22.154 5.39693 22.1352 5.37003C22.1014 5.32166 22.0674 5.27346 22.033 5.22548C22.0202 5.2373 22.011 5.2505 22.0013 5.26492C21.9979 5.27001 21.9944 5.27509 21.991 5.28018C21.9892 5.28279 21.9874 5.28541 21.9856 5.2881C21.9769 5.30074 21.9681 5.31324 21.9593 5.32574C21.9575 5.32823 21.9557 5.33072 21.9539 5.33328C21.9504 5.33833 21.9468 5.34338 21.9432 5.34842C21.9345 5.36068 21.9259 5.37296 21.9172 5.38523C21.9155 5.38768 21.9138 5.39012 21.912 5.39264C21.8983 5.4121 21.8846 5.4316 21.871 5.45112C21.8505 5.48046 21.8299 5.50974 21.8092 5.53899C21.8005 5.55141 21.7917 5.56384 21.7829 5.57627C21.7794 5.58127 21.7759 5.58626 21.7724 5.59126C21.7706 5.59373 21.7689 5.5962 21.7671 5.59875C21.709 5.68116 21.709 5.68116 21.7037 5.68865C21.7001 5.69365 21.6966 5.69866 21.6931 5.70366C21.6844 5.71602 21.6757 5.72837 21.6669 5.74073C21.648 5.76754 21.6291 5.7944 21.6103 5.82131C21.5898 5.85065 21.5692 5.87993 21.5486 5.90918C21.5398 5.9216 21.531 5.93403 21.5223 5.94647C21.5187 5.95146 21.5152 5.95645 21.5117 5.96145C21.51 5.96392 21.5082 5.96639 21.5064 5.96894C21.4906 5.99142 21.4906 5.99142 21.4853 5.99891C21.4817 6.00391 21.4782 6.00891 21.4747 6.01392C21.466 6.02627 21.4573 6.03863 21.4485 6.05098C21.4296 6.07779 21.4107 6.10465 21.3919 6.13156C21.3714 6.16091 21.3508 6.19019 21.3302 6.21943C21.3214 6.23186 21.3126 6.24429 21.3039 6.25672C21.3003 6.26171 21.2968 6.26671 21.2933 6.2717C21.2916 6.27418 21.2898 6.27665 21.288 6.27919C21.2686 6.30667 21.2493 6.33414 21.2299 6.36161C21.2282 6.36408 21.2264 6.36656 21.2246 6.36911C21.2211 6.37406 21.2176 6.37901 21.2141 6.38396C21.2048 6.39714 21.1955 6.41033 21.1863 6.42352C21.1833 6.42767 21.1833 6.42767 21.1804 6.43191C21.1766 6.43724 21.1729 6.44258 21.1691 6.44792C21.1563 6.4661 21.1563 6.4661 21.1524 6.47002C21.1437 6.47037 21.1352 6.47048 21.1265 6.47045C21.1237 6.47046 21.121 6.47046 21.1181 6.47047C21.1088 6.47047 21.0994 6.47046 21.0901 6.47044C21.0833 6.47044 21.0766 6.47045 21.0699 6.47045C21.0513 6.47046 21.0327 6.47045 21.0141 6.47043C20.9941 6.47041 20.9741 6.47042 20.9541 6.47042C20.9194 6.47042 20.8847 6.47041 20.85 6.47039C20.7998 6.47036 20.7497 6.47035 20.6995 6.47035C20.6181 6.47034 20.5367 6.47032 20.4553 6.47028C20.3763 6.47025 20.2972 6.47023 20.2181 6.47021C20.2145 6.47021 20.2145 6.47021 20.2107 6.47021C20.1863 6.47021 20.1618 6.4702 20.1373 6.4702C19.9321 6.47016 19.7268 6.4701 19.5215 6.47002C19.5258 6.45892 19.53 6.44934 19.537 6.43967C19.5387 6.43733 19.5403 6.43499 19.542 6.43258C19.5438 6.4301 19.5456 6.42762 19.5475 6.42507C19.5513 6.41969 19.5552 6.41431 19.559 6.40893C19.561 6.40619 19.5629 6.40345 19.565 6.40063C19.574 6.38797 19.583 6.37523 19.592 6.36249C19.5955 6.35749 19.599 6.3525 19.6025 6.3475C19.6043 6.34503 19.606 6.34256 19.6078 6.34001C19.7082 6.19767 19.7082 6.19767 19.7135 6.19018C19.717 6.18517 19.7205 6.18017 19.7241 6.17517C19.7328 6.16281 19.7415 6.15045 19.7502 6.1381C19.7692 6.11129 19.788 6.08443 19.8068 6.05752C19.8273 6.02817 19.8479 5.99889 19.8686 5.96965C19.8774 5.95723 19.8861 5.94479 19.8949 5.93236C19.8984 5.92737 19.9019 5.92237 19.9055 5.91738C19.9072 5.91491 19.9089 5.91243 19.9107 5.90989C19.9689 5.82748 19.9689 5.82748 19.9741 5.81999C19.9777 5.81498 19.9812 5.80998 19.9847 5.80498C19.9934 5.79262 20.0022 5.78026 20.0109 5.76791C20.0298 5.7411 20.0487 5.71424 20.0675 5.68733C20.088 5.65798 20.1086 5.6287 20.1292 5.59946C20.138 5.58704 20.1468 5.5746 20.1556 5.56217C20.1591 5.55718 20.1626 5.55218 20.1661 5.54719C20.1679 5.54472 20.1696 5.54224 20.1714 5.5397C20.2295 5.45729 20.2295 5.45729 20.2348 5.4498C20.2383 5.44479 20.2419 5.43979 20.2454 5.43479C20.2541 5.42243 20.2628 5.41007 20.2715 5.39772C20.2905 5.37091 20.3093 5.34405 20.3281 5.31714C20.3487 5.28779 20.3693 5.25851 20.3899 5.22927C20.3987 5.21685 20.4074 5.20441 20.4162 5.19198C20.4197 5.18699 20.4233 5.18199 20.4268 5.177C20.4285 5.17453 20.4303 5.17205 20.4321 5.16951C20.4479 5.14703 20.4479 5.14703 20.4532 5.13954C20.4567 5.13454 20.4603 5.12954 20.4638 5.12453C20.4725 5.11217 20.4812 5.09982 20.4899 5.08747C20.5089 5.06065 20.5277 5.0338 20.5465 5.00689C20.567 4.97754 20.5876 4.94826 20.6083 4.91902C20.6171 4.90659 20.6258 4.89416 20.6346 4.88173C20.6381 4.87673 20.6416 4.87174 20.6452 4.86674C20.6469 4.86427 20.6487 4.8618 20.6505 4.85925C20.7086 4.77684 20.7086 4.77684 20.7139 4.76935C20.7174 4.76435 20.7209 4.75935 20.7244 4.75434C20.7332 4.74198 20.7419 4.72963 20.7506 4.71728C20.7695 4.69046 20.7884 4.66361 20.8072 4.6367C20.8277 4.60735 20.8483 4.57807 20.869 4.54883C20.8777 4.5364 20.8865 4.52397 20.8953 4.51154C20.8988 4.50654 20.9023 4.50155 20.9058 4.49655C20.9076 4.49408 20.9093 4.49161 20.9111 4.48906C20.9692 4.40665 20.9692 4.40665 20.9745 4.39916C20.978 4.39416 20.9816 4.38916 20.9851 4.38415C20.9938 4.37179 21.0025 4.35944 21.0113 4.34709C21.0302 4.32027 21.0491 4.29342 21.0679 4.26651C21.0884 4.23718 21.1089 4.20791 21.1296 4.17868C21.1349 4.17113 21.1403 4.16357 21.1456 4.156C21.1677 4.12459 21.1899 4.09326 21.2123 4.06202C21.1988 4.0399 21.1846 4.01869 21.1691 3.9979C21.1556 3.9797 21.1425 3.96132 21.1297 3.94259C21.1112 3.91536 21.0922 3.88841 21.0732 3.86151C21.0645 3.84925 21.0558 3.83698 21.0472 3.8247C21.0454 3.82226 21.0437 3.81981 21.0419 3.8173C21.0261 3.79484 21.0104 3.77232 20.9946 3.7498C20.9815 3.73103 20.9684 3.7123 20.9551 3.69359C20.9398 3.6719 20.9246 3.65015 20.9094 3.62837C20.8871 3.59657 20.8648 3.56486 20.8424 3.53318C20.8179 3.4985 20.7935 3.46377 20.7692 3.42897C20.7561 3.4102 20.7429 3.39147 20.7297 3.37276C20.7144 3.35107 20.6991 3.32932 20.6839 3.30754C20.6617 3.27574 20.6394 3.24403 20.617 3.21235C20.5925 3.17767 20.5681 3.14294 20.5438 3.10814C20.5306 3.08937 20.5175 3.07064 20.5043 3.05193C20.4889 3.03023 20.4737 3.00849 20.4585 2.98671C20.4363 2.95491 20.4139 2.9232 20.3916 2.89152C20.3671 2.85684 20.3426 2.82211 20.3183 2.78731C20.3052 2.76854 20.292 2.7498 20.2788 2.7311C20.2614 2.70641 20.2441 2.68164 20.2267 2.65686C20.2136 2.63809 20.2005 2.61936 20.1873 2.60065C20.1719 2.57896 20.1567 2.55721 20.1415 2.53543C20.1192 2.50363 20.0969 2.47192 20.0745 2.44024C20.05 2.40556 20.0256 2.37083 20.0013 2.33603C19.9882 2.31726 19.975 2.29853 19.9618 2.27982C19.9465 2.25812 19.9312 2.23638 19.916 2.2146C19.8938 2.1828 19.8715 2.15109 19.8491 2.11941C19.8246 2.08473 19.8002 2.05 19.7759 2.0152C19.7628 1.99643 19.7496 1.97769 19.7364 1.95899C19.7211 1.93729 19.7058 1.91554 19.6906 1.89377C19.6752 1.87177 19.6598 1.8498 19.6444 1.82788C19.6427 1.82549 19.641 1.82309 19.6392 1.82062C19.6301 1.80769 19.621 1.79478 19.6118 1.7819C19.6098 1.77916 19.6079 1.77642 19.6058 1.7736C19.6021 1.76833 19.5983 1.76308 19.5946 1.75783C19.5929 1.75547 19.5912 1.75311 19.5895 1.75068C19.588 1.7486 19.5865 1.74653 19.585 1.74439C19.5814 1.73864 19.5814 1.73864 19.5779 1.72806Z" fill="#3D4284"/>
<path d="M13.9877 1.63286C13.9877 2.16572 13.9877 2.69858 13.9877 3.24759C13.9208 3.24054 13.9208 3.24054 13.9024 3.23843C13.7515 3.22154 13.5978 3.22979 13.4488 3.25817C13.4456 3.25878 13.4423 3.25938 13.439 3.26001C13.241 3.29793 13.0429 3.38308 12.894 3.52149C12.8862 3.52871 12.8783 3.53571 12.8702 3.54264C12.7086 3.6837 12.6219 3.89879 12.5865 4.10542C12.5858 4.1094 12.5851 4.11339 12.5844 4.11749C12.5729 4.18897 12.5707 4.2605 12.5707 4.33277C12.5707 4.34204 12.5707 4.35132 12.5707 4.36059C12.5706 4.38061 12.5706 4.40062 12.5706 4.42064C12.5706 4.4504 12.5705 4.48016 12.5705 4.50992C12.5704 4.56 12.5703 4.61009 12.5703 4.66017C12.5703 4.70971 12.5702 4.75925 12.5701 4.80878C12.5701 4.81187 12.5701 4.81496 12.5701 4.81814C12.5701 4.83383 12.5701 4.84951 12.5701 4.8652C12.5699 4.9761 12.5698 5.087 12.5697 5.1979C12.5696 5.30559 12.5694 5.41328 12.5693 5.52097C12.5693 5.52775 12.5693 5.53453 12.5693 5.54131C12.5692 5.59641 12.5691 5.65151 12.5691 5.70661C12.5687 5.96107 12.5685 6.21554 12.5682 6.47001C12.0986 6.47001 11.629 6.47001 11.1451 6.47001C11.1451 4.90516 11.1451 3.34032 11.1451 1.72805C11.6147 1.72805 12.0843 1.72805 12.5682 1.72805C12.5693 1.99565 12.5705 2.26324 12.5717 2.53894C12.5845 2.5052 12.5973 2.47146 12.6105 2.4367C12.6659 2.31527 12.7338 2.20472 12.8246 2.10661C12.8314 2.09925 12.838 2.09176 12.8445 2.08414C12.8688 2.05616 12.8957 2.03051 12.9239 2.00658C12.9271 2.00385 12.9302 2.00112 12.9334 1.99831C13.0104 1.9313 13.0953 1.87579 13.1846 1.82677C13.1886 1.82457 13.1926 1.82237 13.1967 1.8201C13.2276 1.80323 13.2591 1.78814 13.2914 1.7741C13.2938 1.77305 13.2962 1.77199 13.2987 1.77091C13.3456 1.75051 13.3931 1.73309 13.4418 1.71747C13.445 1.7164 13.4483 1.71533 13.4516 1.71422C13.6246 1.65724 13.806 1.63286 13.9877 1.63286Z" fill="#3D4284"/>
<path d="M18.5324 7.61209C18.6987 7.60809 18.848 7.65026 18.9735 7.76179C18.9806 7.769 18.9868 7.77713 18.9932 7.78507C18.9943 7.74202 18.9955 7.69897 18.9967 7.65462C19.1431 7.65462 19.2896 7.65462 19.4405 7.65462C19.4405 8.14094 19.4405 8.62727 19.4405 9.12833C19.294 9.12833 19.1476 9.12833 18.9967 9.12833C18.9955 9.08644 18.9944 9.04456 18.9932 9.00141C18.9804 9.0142 18.9676 9.027 18.9544 9.04019C18.8701 9.11352 18.765 9.15325 18.655 9.16711C18.6524 9.16744 18.6499 9.16777 18.6472 9.16812C18.6202 9.17124 18.5932 9.17149 18.5661 9.17152C18.5623 9.17152 18.5623 9.17152 18.5585 9.17152C18.3734 9.17124 18.2097 9.09364 18.0773 8.96615C18.0687 8.95707 18.0607 8.94757 18.0527 8.93794C18.0497 8.93462 18.0468 8.93129 18.0438 8.92786C18.005 8.88364 17.9743 8.83481 17.947 8.78282C17.9457 8.78035 17.9444 8.77788 17.943 8.77534C17.8592 8.61405 17.8355 8.42183 17.866 8.2434C17.8665 8.24007 17.8671 8.23675 17.8677 8.23333C17.8957 8.0763 17.9676 7.93529 18.0773 7.82032C18.0804 7.81706 18.0835 7.8138 18.0866 7.81044C18.2013 7.69175 18.3673 7.61676 18.5324 7.61209ZM18.4049 8.12353C18.4027 8.12547 18.4004 8.12742 18.3981 8.12942C18.3439 8.17973 18.3134 8.25602 18.3028 8.32801C18.3024 8.33061 18.302 8.3332 18.3016 8.33588C18.2896 8.43234 18.3069 8.54111 18.3673 8.61962C18.3779 8.63249 18.3894 8.64424 18.4014 8.6559C18.4042 8.65875 18.407 8.66161 18.4099 8.66456C18.4729 8.72518 18.5656 8.75213 18.6515 8.75109C18.7475 8.74737 18.8329 8.71753 18.9016 8.64884C18.9059 8.64459 18.9059 8.64459 18.9103 8.64025C18.9778 8.56974 18.9987 8.46974 18.9974 8.375C18.9949 8.28812 18.9667 8.2065 18.9086 8.14116C18.9063 8.13848 18.9039 8.13581 18.9015 8.13306C18.8465 8.07406 18.7627 8.04004 18.6831 8.03467C18.6723 8.03432 18.6616 8.03423 18.6508 8.03428C18.647 8.0343 18.6432 8.03432 18.6392 8.03434C18.5514 8.03566 18.4709 8.06429 18.4049 8.12353Z" fill="#3D4284"/>
<path d="M24.3233 7.79715C24.3284 7.80199 24.3335 7.80683 24.3386 7.81173C24.344 7.81696 24.3495 7.82211 24.3549 7.82727C24.4883 7.95465 24.5673 8.1515 24.5734 8.33472C24.5739 8.35312 24.5739 8.3715 24.5738 8.3899C24.5738 8.39312 24.5738 8.39635 24.5738 8.39967C24.5737 8.4573 24.5735 8.5161 24.5551 8.57125C24.2122 8.57125 23.8693 8.57125 23.516 8.57125C23.5597 8.6588 23.6062 8.71482 23.6992 8.74753C23.7508 8.76358 23.803 8.77003 23.857 8.76978C23.8616 8.76976 23.8663 8.76974 23.871 8.76972C23.9052 8.76929 23.9373 8.76722 23.9704 8.7581C23.9742 8.75705 23.9742 8.75705 23.9781 8.75598C24.0349 8.73983 24.0918 8.71502 24.1315 8.66974C24.1342 8.66749 24.1368 8.66523 24.1395 8.66291C24.1544 8.66405 24.165 8.66793 24.1777 8.6756C24.1825 8.67848 24.1825 8.67848 24.1875 8.68143C24.191 8.68353 24.1944 8.68564 24.198 8.68781C24.2056 8.69234 24.2132 8.69687 24.2209 8.70139C24.2248 8.70376 24.2288 8.70613 24.2329 8.70857C24.2511 8.71935 24.2695 8.7298 24.2878 8.74026C24.2982 8.74617 24.3086 8.75209 24.3189 8.75801C24.321 8.75918 24.323 8.76035 24.3252 8.76156C24.3586 8.78064 24.3919 8.79989 24.4251 8.81919C24.4348 8.82478 24.4445 8.83033 24.4543 8.83586C24.4598 8.83903 24.4653 8.84219 24.4708 8.84536C24.4733 8.84675 24.4757 8.84814 24.4783 8.84957C24.4948 8.85915 24.4948 8.85915 24.4987 8.87092C24.4941 8.87837 24.4895 8.88484 24.484 8.89164C24.4816 8.89466 24.4816 8.89466 24.4792 8.89775C24.3478 9.06159 24.1632 9.14486 23.957 9.16819C23.7309 9.18993 23.4898 9.14097 23.3117 8.99432C23.2724 8.96176 23.2378 8.92867 23.206 8.88855C23.2031 8.88498 23.2002 8.88141 23.1973 8.87773C23.1751 8.84992 23.1566 8.82075 23.1391 8.78983C23.1379 8.78775 23.1367 8.78568 23.1354 8.78353C23.0284 8.59867 23.0173 8.3642 23.0698 8.16101C23.1211 7.97486 23.2452 7.81272 23.4123 7.71639C23.5115 7.6607 23.621 7.62641 23.7344 7.6158C23.7382 7.61541 23.742 7.61502 23.7459 7.61462C23.954 7.59627 24.1677 7.65446 24.3233 7.79715ZM23.5718 8.10548C23.5439 8.13757 23.5054 8.1922 23.5054 8.23631C23.7112 8.23631 23.9169 8.23631 24.1289 8.23631C24.1263 8.21557 24.1263 8.21557 24.1199 8.19747C24.1187 8.19505 24.1176 8.19262 24.1165 8.19012C24.1153 8.18762 24.1141 8.18512 24.1128 8.18255C24.1116 8.17991 24.1103 8.17728 24.109 8.17456C24.0736 8.10294 24.0161 8.05314 23.9414 8.02566C23.8164 7.9842 23.6647 8.00773 23.5718 8.10548Z" fill="#3D4284"/>
<path d="M15.0691 7.65458C15.2156 7.65458 15.3621 7.65458 15.513 7.65458C15.5131 7.71701 15.5132 7.77943 15.5134 7.84374C15.5135 7.88331 15.5136 7.92289 15.5137 7.96246C15.5138 7.98326 15.5138 8.00406 15.5139 8.02485C15.5139 8.02746 15.5139 8.03007 15.5139 8.03275C15.514 8.07472 15.5141 8.11669 15.5142 8.15866C15.5143 8.2018 15.5144 8.24493 15.5145 8.28807C15.5146 8.31464 15.5147 8.34122 15.5147 8.36779C15.5147 8.38824 15.5148 8.40868 15.5149 8.42912C15.5149 8.43746 15.515 8.4458 15.515 8.45414C15.5149 8.54401 15.524 8.62444 15.5872 8.69332C15.6374 8.74165 15.7068 8.75948 15.7749 8.75917C15.8486 8.75741 15.9178 8.7343 15.9696 8.68008C15.9847 8.66176 15.9955 8.64173 16.0061 8.6206C16.0083 8.61639 16.0083 8.61639 16.0105 8.61209C16.0366 8.55486 16.0364 8.48937 16.0362 8.42786C16.0362 8.41938 16.0363 8.41089 16.0363 8.4024C16.0364 8.37959 16.0364 8.35678 16.0364 8.33397C16.0364 8.31248 16.0365 8.29099 16.0366 8.2695C16.0367 8.22699 16.0368 8.18449 16.0369 8.14198C16.0369 8.10073 16.037 8.05949 16.0371 8.01825C16.0371 8.01438 16.0371 8.01438 16.0371 8.01044C16.0372 7.98802 16.0372 7.96559 16.0373 7.94317C16.0375 7.84698 16.0377 7.75078 16.0378 7.65458C16.1854 7.65458 16.3331 7.65458 16.4852 7.65458C16.4852 8.14091 16.4852 8.62723 16.4852 9.12829C16.3375 9.12829 16.1899 9.12829 16.0378 9.12829C16.0366 9.08757 16.0355 9.04685 16.0343 9.0049C16.0215 9.01886 16.0087 9.03282 15.9955 9.0472C15.9198 9.11064 15.8353 9.14577 15.7384 9.16355C15.7359 9.16401 15.7335 9.16447 15.7309 9.16495C15.5858 9.19082 15.4274 9.16197 15.3051 9.07893C15.1851 8.99181 15.1119 8.86688 15.0823 8.72263C15.0818 8.72005 15.0813 8.71748 15.0807 8.71483C15.0689 8.65269 15.0682 8.59098 15.0683 8.52792C15.0683 8.51836 15.0683 8.5088 15.0683 8.49924C15.0683 8.47878 15.0684 8.45832 15.0684 8.43786C15.0684 8.40828 15.0685 8.37871 15.0685 8.34913C15.0685 8.30112 15.0685 8.25311 15.0686 8.20511C15.0687 8.15852 15.0687 8.11192 15.0687 8.06533C15.0688 8.06242 15.0688 8.05951 15.0688 8.05652C15.0688 8.03377 15.0688 8.01101 15.0688 7.98826C15.0689 7.87703 15.069 7.76581 15.0691 7.65458Z" fill="#3D4284"/>
<path d="M21.0319 7.74656C21.1313 7.83827 21.1889 7.96226 21.2088 8.09532C21.2094 8.09913 21.2099 8.10293 21.2106 8.10684C21.2172 8.15498 21.2168 8.20287 21.2166 8.25139C21.2166 8.26098 21.2166 8.27058 21.2166 8.28018C21.2166 8.30072 21.2166 8.32126 21.2166 8.34181C21.2165 8.37151 21.2165 8.40121 21.2165 8.43091C21.2165 8.47911 21.2164 8.52732 21.2163 8.57552C21.2163 8.62231 21.2162 8.6691 21.2162 8.71588C21.2162 8.7188 21.2162 8.72172 21.2162 8.72473C21.2162 8.74757 21.2162 8.77042 21.2162 8.79326C21.2161 8.90495 21.2159 9.01664 21.2158 9.12833C21.0694 9.12833 20.9229 9.12833 20.772 9.12833C20.7719 9.06591 20.7717 9.00349 20.7716 8.93917C20.7715 8.8996 20.7714 8.86003 20.7712 8.82045C20.7712 8.79965 20.7711 8.77886 20.7711 8.75806C20.771 8.75415 20.771 8.75415 20.771 8.75016C20.7709 8.70819 20.7708 8.66622 20.7708 8.62425C20.7707 8.58112 20.7706 8.53798 20.7704 8.49485C20.7703 8.46827 20.7702 8.4417 20.7702 8.41512C20.7702 8.39468 20.7701 8.37423 20.77 8.35379C20.77 8.34545 20.77 8.33711 20.77 8.32878C20.77 8.24599 20.7641 8.16831 20.7086 8.10238C20.7067 8.10011 20.7048 8.09784 20.7029 8.0955C20.6567 8.04451 20.5889 8.02865 20.523 8.02512C20.4547 8.02258 20.3845 8.04235 20.3319 8.08695C20.2682 8.14977 20.2499 8.23551 20.2492 8.3222C20.2491 8.33382 20.2491 8.34543 20.2491 8.35705C20.2491 8.3655 20.2491 8.37395 20.249 8.3824C20.2489 8.40516 20.2489 8.42792 20.2489 8.45068C20.2489 8.47211 20.2488 8.49354 20.2487 8.51497C20.2485 8.55737 20.2484 8.59976 20.2484 8.64216C20.2483 8.6833 20.2482 8.72445 20.2481 8.76559C20.2481 8.76816 20.248 8.77073 20.248 8.77338C20.248 8.79573 20.2479 8.81808 20.2478 8.84044C20.2475 8.9364 20.2473 9.03237 20.2471 9.12833C20.0995 9.12833 19.9519 9.12833 19.7998 9.12833C19.7998 8.64201 19.7998 8.15568 19.7998 7.65462C19.9474 7.65462 20.095 7.65462 20.2471 7.65462C20.2489 7.71745 20.2489 7.71745 20.2507 7.78154C20.2629 7.76758 20.2629 7.76758 20.2753 7.75334C20.3133 7.712 20.3585 7.68454 20.4092 7.66167C20.4113 7.66069 20.4135 7.65971 20.4157 7.6587C20.468 7.63512 20.5248 7.62183 20.5818 7.61584C20.5871 7.61525 20.5871 7.61525 20.5925 7.61466C20.7513 7.59975 20.9116 7.63836 21.0319 7.74656Z" fill="#3D4284"/>
<path d="M13.1318 7.72161C13.1336 7.72303 13.1354 7.72445 13.1372 7.72591C13.2354 7.8043 13.2951 7.9103 13.3266 8.0312C13.3278 8.03576 13.3278 8.03576 13.3291 8.04041C13.3465 8.1117 13.3482 8.18443 13.3479 8.25739C13.3478 8.26696 13.3479 8.27652 13.3479 8.28609C13.3479 8.30649 13.3478 8.32689 13.3478 8.34729C13.3477 8.37678 13.3477 8.40628 13.3476 8.43577C13.3476 8.48365 13.3476 8.53152 13.3475 8.5794C13.3474 8.62585 13.3473 8.6723 13.3472 8.71874C13.3472 8.72165 13.3472 8.72455 13.3472 8.72754C13.3472 8.75025 13.3472 8.77296 13.3472 8.79567C13.3471 8.90656 13.3469 9.01744 13.3467 9.12833C13.2002 9.12833 13.0537 9.12833 12.9028 9.12833C12.9027 9.06603 12.9026 9.00373 12.9025 8.93954C12.9025 8.90002 12.9024 8.86049 12.9023 8.82097C12.9022 8.80019 12.9021 8.77942 12.9021 8.75864C12.9021 8.75604 12.9021 8.75343 12.9021 8.75075C12.902 8.70886 12.9019 8.66696 12.9019 8.62507C12.9018 8.58199 12.9017 8.53892 12.9016 8.49584C12.9015 8.46931 12.9014 8.44279 12.9014 8.41626C12.9014 8.39584 12.9014 8.37541 12.9013 8.35499C12.9012 8.34667 12.9012 8.33835 12.9013 8.33004C12.9014 8.24152 12.8918 8.15808 12.8285 8.091C12.7758 8.03967 12.705 8.02427 12.6336 8.02492C12.5654 8.02801 12.499 8.05001 12.4504 8.0994C12.3862 8.17106 12.3794 8.26348 12.3796 8.35505C12.3795 8.36354 12.3795 8.37202 12.3795 8.38051C12.3794 8.40332 12.3794 8.42613 12.3794 8.44894C12.3794 8.47043 12.3793 8.49192 12.3792 8.51341C12.3791 8.55592 12.379 8.59843 12.3789 8.64094C12.3789 8.68218 12.3788 8.72342 12.3787 8.76466C12.3787 8.76724 12.3787 8.76982 12.3787 8.77247C12.3786 8.7949 12.3786 8.81732 12.3785 8.83974C12.3782 8.93594 12.3781 9.03213 12.378 9.12833C12.2304 9.12833 12.0827 9.12833 11.9306 9.12833C11.9306 8.64201 11.9306 8.15568 11.9306 7.65462C12.0783 7.65462 12.2259 7.65462 12.378 7.65462C12.3797 7.71745 12.3797 7.71745 12.3815 7.78154C12.3937 7.76758 12.3937 7.76758 12.4062 7.75334C12.484 7.66857 12.6005 7.62762 12.7126 7.61584C12.7179 7.61525 12.7179 7.61525 12.7233 7.61466C12.866 7.60126 13.0183 7.62933 13.1318 7.72161Z" fill="#3D4284"/>
<path d="M14.5654 7.69342C14.5688 7.69528 14.5688 7.69528 14.5722 7.69718C14.6189 7.72344 14.6603 7.7552 14.6993 7.79214C14.7024 7.7951 14.7056 7.79807 14.7088 7.80113C14.7409 7.83223 14.767 7.86643 14.7913 7.90385C14.7927 7.90597 14.794 7.90809 14.7955 7.91027C14.8049 7.92522 14.8049 7.92522 14.8049 7.93316C14.8024 7.9345 14.7999 7.93585 14.7973 7.93723C14.6867 7.99645 14.6867 7.99645 14.5764 8.05634C14.5479 8.07195 14.5193 8.08751 14.4906 8.10297C14.4862 8.10535 14.4818 8.10775 14.4774 8.11015C14.4712 8.11351 14.465 8.11684 14.4588 8.12017C14.4553 8.1221 14.4517 8.12402 14.448 8.12601C14.44 8.1299 14.4332 8.13245 14.4245 8.13412C14.4229 8.13147 14.4212 8.12883 14.4195 8.1261C14.3851 8.07286 14.3466 8.03134 14.2841 8.01337C14.2337 8.00271 14.1811 8.00478 14.1365 8.03219C14.1213 8.04321 14.1144 8.05615 14.111 8.07418C14.1102 8.09525 14.1142 8.11121 14.1286 8.12707C14.1689 8.15767 14.221 8.17156 14.2692 8.18443C14.2775 8.18663 14.2857 8.18888 14.294 8.19113C14.3052 8.1942 14.3164 8.19726 14.3276 8.2003C14.5944 8.27285 14.5944 8.27284 14.6922 8.35976C14.6966 8.36337 14.6966 8.36337 14.701 8.36706C14.7809 8.43483 14.8205 8.53237 14.8312 8.63485C14.8416 8.76629 14.8098 8.88453 14.726 8.98718C14.6215 9.10795 14.4515 9.1582 14.2976 9.16985C14.1428 9.17873 13.9772 9.16607 13.839 9.08952C13.8328 9.08604 13.8264 9.0827 13.8201 9.07936C13.7188 9.02498 13.6242 8.92616 13.5827 8.81809C13.6125 8.79938 13.6427 8.78169 13.6736 8.76476C13.7047 8.74761 13.7356 8.73013 13.7663 8.7121C13.7987 8.69302 13.8314 8.67446 13.8643 8.65616C13.8908 8.64138 13.9171 8.62628 13.9431 8.61078C13.9623 8.5995 13.9623 8.5995 13.9701 8.5995C13.9719 8.60346 13.9736 8.60742 13.9754 8.6115C13.9923 8.64907 14.01 8.68047 14.0406 8.7088C14.0422 8.71041 14.0438 8.71202 14.0454 8.71369C14.0959 8.76175 14.1659 8.77093 14.2324 8.7704C14.2757 8.76922 14.3208 8.7643 14.3541 8.73347C14.3692 8.71631 14.373 8.69978 14.3727 8.67713C14.3702 8.65938 14.3569 8.64629 14.3432 8.63572C14.2884 8.59914 14.2199 8.58515 14.1573 8.56745C13.7926 8.46423 13.7926 8.46423 13.6986 8.29885C13.664 8.23598 13.651 8.16852 13.6518 8.09732C13.6518 8.09479 13.6518 8.09225 13.6518 8.08964C13.6522 8.03077 13.6618 7.97811 13.6813 7.92258C13.6825 7.91897 13.6838 7.91536 13.6851 7.91163C13.7297 7.79464 13.8304 7.71625 13.941 7.66611C14.1328 7.58231 14.3827 7.59091 14.5654 7.69342Z" fill="#3D4284"/>
<path d="M22.5332 7.65816C22.536 7.65919 22.5389 7.66022 22.5418 7.66129C22.6086 7.68592 22.6697 7.71802 22.7269 7.7604C22.7301 7.76273 22.7301 7.76273 22.7333 7.7651C22.812 7.82364 22.8924 7.9012 22.9312 7.9931C22.8903 8.01907 22.8481 8.043 22.8061 8.06716C22.7866 8.07837 22.7671 8.08961 22.7476 8.10085C22.7439 8.10303 22.7401 8.10521 22.7362 8.10746C22.7069 8.12436 22.6777 8.14141 22.6485 8.15849C22.6137 8.17881 22.5788 8.19881 22.5438 8.21873C22.5358 8.20826 22.5288 8.19759 22.522 8.18634C22.479 8.11906 22.4134 8.08181 22.3375 8.06264C22.2423 8.04251 22.1462 8.06046 22.0647 8.11297C21.9943 8.16181 21.955 8.23404 21.9364 8.31652C21.92 8.4095 21.9322 8.51033 21.9855 8.58989C21.9987 8.60862 22.0134 8.6256 22.0295 8.64181C22.0318 8.64422 22.0342 8.64664 22.0366 8.64912C22.0736 8.68491 22.1214 8.70591 22.1704 8.71937C22.1734 8.7202 22.1763 8.72102 22.1794 8.72187C22.2699 8.74313 22.3667 8.72541 22.4451 8.67706C22.4564 8.6695 22.4667 8.66143 22.4768 8.65239C22.4795 8.65008 22.4821 8.64778 22.4848 8.6454C22.5087 8.6231 22.5257 8.59697 22.5403 8.56777C22.5528 8.57018 22.5625 8.57529 22.5735 8.58147C22.5774 8.58359 22.5812 8.58571 22.5851 8.5879C22.5892 8.59022 22.5934 8.59255 22.5975 8.59487C22.6018 8.59728 22.6061 8.59969 22.6104 8.60209C22.6411 8.61929 22.6715 8.6369 22.7018 8.65472C22.7286 8.67043 22.7555 8.68592 22.7824 8.7013C22.7844 8.70246 22.7865 8.70362 22.7886 8.70481C22.7968 8.70952 22.8051 8.71423 22.8133 8.71894C22.836 8.73189 22.8587 8.74487 22.8814 8.75786C22.892 8.76391 22.9026 8.76996 22.9131 8.776C22.9192 8.77946 22.9252 8.78291 22.9312 8.78636C22.8982 8.87168 22.8221 8.94928 22.7516 9.00495C22.7463 9.00926 22.7463 9.00926 22.7408 9.01367C22.7151 9.03425 22.6882 9.05192 22.6596 9.06819C22.6553 9.07062 22.651 9.07306 22.6468 9.07554C22.5663 9.12236 22.4766 9.14867 22.3853 9.1636C22.3828 9.16402 22.3803 9.16445 22.3777 9.16488C22.2935 9.17868 22.2013 9.17495 22.1176 9.16008C22.1142 9.15949 22.1109 9.1589 22.1074 9.1583C21.9849 9.13599 21.8648 9.08515 21.7688 9.00495C21.7651 9.00192 21.7614 8.9989 21.7576 8.99589C21.7133 8.95963 21.6736 8.91955 21.6395 8.87346C21.6352 8.8677 21.6308 8.86202 21.6264 8.85635C21.5051 8.69734 21.4632 8.47947 21.4875 8.2833C21.5089 8.12928 21.5712 7.98183 21.677 7.86708C21.6835 7.85995 21.6898 7.85265 21.696 7.84524C21.8207 7.70254 22.0186 7.62704 22.2037 7.61343C22.3156 7.60648 22.4276 7.61983 22.5332 7.65816Z" fill="#3D4284"/>
<path d="M17.7286 7.62645C17.7286 7.79282 17.7286 7.95919 17.7286 8.13061C17.7193 8.12945 17.71 8.12828 17.7004 8.12708C17.5937 8.12153 17.4826 8.13603 17.3984 8.20802C17.3958 8.2104 17.3931 8.21278 17.3904 8.21522C17.3878 8.21756 17.3851 8.21991 17.3824 8.22232C17.3241 8.2766 17.2969 8.35574 17.2918 8.43381C17.2911 8.45639 17.2911 8.47899 17.2911 8.50157C17.291 8.50842 17.291 8.51527 17.291 8.52212C17.2909 8.54062 17.2908 8.55913 17.2907 8.57764C17.2907 8.59701 17.2906 8.61638 17.2905 8.63575C17.2903 8.6724 17.2901 8.70904 17.29 8.74569C17.2898 8.79524 17.2895 8.84478 17.2893 8.89433C17.2889 8.97234 17.2886 9.05035 17.2883 9.12836C17.1418 9.12836 16.9954 9.12836 16.8444 9.12836C16.8444 8.64204 16.8444 8.15571 16.8444 7.65465C16.9909 7.65465 17.1374 7.65465 17.2883 7.65465C17.2894 7.7326 17.2906 7.81055 17.2918 7.89087C17.3011 7.87225 17.3104 7.85364 17.32 7.83446C17.3766 7.73534 17.4754 7.67287 17.5833 7.64266C17.6323 7.62955 17.6771 7.62645 17.7286 7.62645Z" fill="#3D4284"/>
<path d="M11.1275 7.65458C11.274 7.65458 11.4204 7.65458 11.5713 7.65458C11.5713 8.14091 11.5713 8.62723 11.5713 9.12829C11.4249 9.12829 11.2784 9.12829 11.1275 9.12829C11.1275 8.64197 11.1275 8.15564 11.1275 7.65458Z" fill="#3D4284"/>
<path d="M11.5077 7.04667C11.5125 7.05068 11.5173 7.05472 11.522 7.05879C11.5241 7.06036 11.5262 7.06193 11.5283 7.06355C11.5743 7.09938 11.6047 7.16059 11.6136 7.21744C11.6232 7.29587 11.6056 7.36832 11.5566 7.4314C11.5103 7.4851 11.4475 7.52194 11.3762 7.52846C11.3 7.53324 11.2292 7.51263 11.1711 7.46166C11.1143 7.4076 11.0834 7.34076 11.0806 7.26217C11.0824 7.18483 11.1142 7.11589 11.1698 7.06231C11.2655 6.9806 11.406 6.9691 11.5077 7.04667Z" fill="#3D4284"/>
</svg>
