<svg width="48" height="48" viewBox="0 0 48 48" fill="none" xmlns="http://www.w3.org/2000/svg">
<ellipse cx="24" cy="24" rx="24" ry="24" fill="#000D1D" fill-opacity="0.04"/>
<mask id="mask0_2516_43540" style="mask-type:alpha" maskUnits="userSpaceOnUse" x="14" y="9" width="22" height="32">
<path d="M31.7363 10.9045L31.7383 10.9055C31.7616 10.9172 31.7846 10.9296 31.8076 10.9417L31.8096 10.9426L31.873 10.9749V10.9768C33.1431 11.6718 34.0154 13.0128 34.1006 14.7297L34.9121 31.0774C35.058 34.0193 32.8323 36.9113 29.9512 37.5237L18.5684 39.9426C17.9999 40.0634 17.4774 39.9703 17.0635 39.7258L16.9463 39.9241L17.0635 39.7249L17.0518 39.719L15.0576 38.6897L15.9414 38.5159L16.1553 38.4739L16.126 38.2581C16.1166 38.1897 16.11 38.1197 16.1064 38.0481L15.0107 15.9641C14.9434 14.6063 15.9749 13.2653 17.3047 12.9827L28.6875 10.5637C28.8673 10.5255 29.0452 10.4967 29.2207 10.4778L29.46 10.4524L29.4248 10.2141L29.3447 9.67896L31.7363 10.9045Z" fill="black" stroke="black" stroke-width="0.461538"/>
</mask>
<g mask="url(#mask0_2516_43540)">
<path d="M31.7363 10.9045L31.7383 10.9055C31.7616 10.9172 31.7846 10.9296 31.8076 10.9417L31.8096 10.9426L31.873 10.9749V10.9768C33.1431 11.6718 34.0154 13.0128 34.1006 14.7297L34.9121 31.0774C35.058 34.0193 32.8323 36.9113 29.9512 37.5237L18.5684 39.9426C17.9999 40.0634 17.4774 39.9703 17.0635 39.7258L16.9463 39.9241L17.0635 39.7249L17.0518 39.719L15.0576 38.6897L15.9414 38.5159L16.1553 38.4739L16.126 38.2581C16.1166 38.1897 16.11 38.1197 16.1064 38.0481L15.0107 15.9641C14.9434 14.6063 15.9749 13.2653 17.3047 12.9827L28.6875 10.5637C28.8673 10.5255 29.0452 10.4967 29.2207 10.4778L29.46 10.4524L29.4248 10.2141L29.3447 9.67896L31.7363 10.9045Z" fill="#1D1D1D" stroke="#1D1D1D" stroke-width="0.461538"/>
<path d="M18.6021 39.3106L28.7911 37.0539C30.1418 36.6881 31.0469 36.5397 31.7224 35.4835" stroke="#B8A9A9" stroke-width="0.461538" stroke-linecap="round"/>
<path d="M31.7363 10.9045L31.7383 10.9055C31.7616 10.9172 31.7846 10.9296 31.8076 10.9417L31.8096 10.9426L31.873 10.9749V10.9768C33.1431 11.6718 34.0154 13.0128 34.1006 14.7297L34.9121 31.0774C35.058 34.0193 32.8323 36.9113 29.9512 37.5237L18.5684 39.9426C17.9999 40.0634 17.4774 39.9703 17.0635 39.7258L16.9463 39.9241L17.0635 39.7249L17.0518 39.719L15.0576 38.6897L15.9414 38.5159L16.1553 38.4739L16.126 38.2581C16.1166 38.1897 16.11 38.1197 16.1064 38.0481L15.0107 15.9641C14.9434 14.6063 15.9749 13.2653 17.3047 12.9827L28.6875 10.5637C28.8673 10.5255 29.0452 10.4967 29.2207 10.4778L29.46 10.4524L29.4248 10.2141L29.3447 9.67896L31.7363 10.9045Z" stroke="#1D1D1D" stroke-width="0.461538"/>
</g>
<path d="M34.3159 16.1458C35.1238 16.4981 35.5001 17.4335 35.1616 18.2473L33.3706 22.5481L32.9771 15.5627L34.3159 16.1458Z" fill="#1E2D64" stroke="#1D1D1D" stroke-width="0.461538" stroke-linecap="round"/>
<path d="M35.0991 28.2179C35.2891 28.9346 34.9672 29.6891 34.3179 30.047L32.6226 30.9806L31.9009 16.1525L35.0991 28.2179Z" fill="#FBD166" stroke="#1D1D1D" stroke-width="0.461538" stroke-linecap="round"/>
<mask id="mask1_2516_43540" style="mask-type:alpha" maskUnits="userSpaceOnUse" x="12" y="8" width="21" height="31">
<path d="M14.5452 11.5118L25.9276 9.09242C28.8294 8.47567 31.3013 10.3771 31.4484 13.34L32.2594 29.6881C32.4064 32.6511 30.1728 35.5536 27.2709 36.1704L15.8885 38.5899C14.538 38.8769 13.3878 37.9916 13.3193 36.6127L12.2237 14.5285C12.1553 13.1495 13.1947 11.7989 14.5452 11.5118Z" fill="white" stroke="black" stroke-width="0.333333"/>
</mask>
<g mask="url(#mask1_2516_43540)">
<path d="M14.5484 11.5752L25.9308 9.15581C28.7979 8.54643 31.24 10.4259 31.3854 13.3534L32.1964 29.7015C32.3416 32.6292 30.135 35.4966 27.2677 36.1061L15.8853 38.5255C14.5695 38.8052 13.4481 37.943 13.3813 36.5995L12.2858 14.5153C12.2191 13.1717 13.2324 11.8549 14.5484 11.5752Z" fill="white" stroke="#1D1D1D" stroke-width="0.461538"/>
<path d="M17.2975 34.2972C17.273 33.9007 17.5424 33.546 17.9309 33.4631L26.8696 31.556C27.3493 31.4537 27.8077 31.8018 27.8379 32.2913C27.8624 32.6879 27.593 33.0426 27.2045 33.1255L18.2658 35.0325C17.7861 35.1349 17.3277 34.7868 17.2975 34.2972Z" fill="#EBE9E9"/>
<path d="M14.907 16.1239C14.8691 15.3601 15.4447 14.6121 16.1927 14.4531L24.7482 12.6346C26.7429 12.2106 28.4418 13.518 28.5428 15.5547L29.0794 26.372C29.1173 27.1357 28.5417 27.8838 27.7937 28.0428L16.9809 30.3411C16.2329 30.5001 15.5958 30.0098 15.5579 29.246L14.907 16.1239Z" fill="#1E2D64"/>
<path d="M21.5644 16.8561C19.0329 17.4289 17.089 19.9919 17.2176 22.5842C17.3462 25.1764 19.4984 26.8126 22.0299 26.2398C24.5613 25.667 26.5098 23.1029 26.3812 20.5107C26.2526 17.9184 24.0958 16.2833 21.5644 16.8561ZM24.8769 18.9533L23.5253 19.2591C23.3473 18.7063 23.1109 18.1905 22.8101 17.7319C23.6678 17.8367 24.3985 18.2763 24.8769 18.9533ZM21.614 17.8104C22.0245 18.2868 22.3534 18.8458 22.5814 19.4727L20.8312 19.8687C20.9926 19.1537 21.2594 18.46 21.614 17.8104ZM18.2996 23.2882C18.2092 23.0051 18.15 22.7006 18.134 22.3768C18.1179 22.0531 18.1458 21.7289 18.2065 21.4115L19.7529 21.0616C19.7315 21.3772 19.7218 21.6949 19.7376 22.014C19.7534 22.333 19.7941 22.6393 19.8483 22.9378L18.2996 23.2882ZM18.7196 24.1421L20.0712 23.8363C20.2492 24.3891 20.4857 24.9049 20.7865 25.3658C19.9288 25.261 19.198 24.8191 18.7196 24.1421ZM19.885 20.0828L18.5334 20.3886C18.9347 19.5126 19.606 18.7534 20.4343 18.2671C20.1854 18.8524 20.0049 19.4626 19.885 20.0828ZM21.9848 25.2845C21.5766 24.8075 21.2477 24.2485 21.0174 23.6222L22.7676 23.2262C22.6039 23.9417 22.3371 24.6354 21.9848 25.2845ZM22.9181 22.2432L20.7738 22.7284C20.715 22.4309 20.6698 22.1257 20.654 21.8066C20.6381 21.4876 20.6524 21.1688 20.6807 20.8517L22.825 20.3665C22.8838 20.6639 22.929 20.9692 22.9448 21.2882C22.9607 21.6073 22.9464 21.926 22.9181 22.2432ZM23.1643 24.8254C23.4133 24.2401 23.5939 23.6322 23.7138 23.0121L25.0654 22.7062C24.6618 23.5828 23.9904 24.3396 23.1643 24.8254ZM23.8436 22.0338C23.865 21.7182 23.877 21.3999 23.8612 21.0809C23.8454 20.7618 23.8047 20.4555 23.7505 20.157L25.2969 19.8071C25.3874 20.0903 25.4488 20.3943 25.4648 20.718C25.4809 21.0418 25.453 21.366 25.39 21.6839L23.8436 22.0338Z" fill="#1D1D1D"/>
<path d="M14.5452 11.5118L25.9276 9.09242C28.8294 8.47567 31.3013 10.3771 31.4484 13.34L32.2594 29.6881C32.4064 32.6511 30.1728 35.5536 27.2709 36.1704L15.8885 38.5899C14.538 38.8769 13.3878 37.9916 13.3193 36.6127L12.2237 14.5285C12.1553 13.1495 13.1947 11.7989 14.5452 11.5118Z" stroke="#1D1D1D" stroke-width="0.333333"/>
</g>
</svg>
