<svg width="179" height="120" viewBox="0 0 179 120" fill="none" xmlns="http://www.w3.org/2000/svg">
<path d="M93.7686 73.2485L100.694 70.5206C101.979 70.0155 101.979 69.1876 100.694 68.681L92.73 65.5448L93.7686 73.2485Z" fill="black" stroke="white" stroke-width="0.373285"/>
<path d="M94.6799 48.0436L52.0906 64.7144C48.4906 66.1242 42.637 66.1293 39.0153 64.7247L26.4637 59.8636C24.6444 59.16 23.7347 58.233 23.7347 57.3086L23.7227 81.9939C23.7227 82.9183 24.6323 83.8453 26.4516 84.5489L39.0057 89.4126C42.6274 90.8146 48.481 90.8095 52.0809 89.4023L94.6702 72.7314C96.463 72.0304 97.3581 71.1111 97.3581 70.1943L97.3702 45.509C97.3702 46.4258 96.475 47.3451 94.6823 48.0461L94.6799 48.0436Z" fill="white"/>
<mask id="mask0_2516_43809" style="mask-type:alpha" maskUnits="userSpaceOnUse" x="23" y="45" width="75" height="46">
<path d="M94.6799 48.0451L52.0906 64.716C48.4906 66.1258 42.637 66.1309 39.0153 64.7263L26.4637 59.8652C24.6444 59.1616 23.7347 58.2346 23.7347 57.3102L23.7227 81.9955C23.7227 82.9199 24.6323 83.8469 26.4516 84.5505L39.0057 89.4141C42.6274 90.8162 48.481 90.8111 52.0809 89.4039L94.6702 72.733C96.463 72.032 97.3581 71.1127 97.3581 70.1959L97.3702 45.5106C97.3702 46.4274 96.475 47.3467 94.6823 48.0477L94.6799 48.0451Z" fill="white"/>
</mask>
<g mask="url(#mask0_2516_43809)">
<path d="M45.6835 109.199C46.7696 109.199 47.8542 109.048 48.6727 108.724L100.423 88.3192C101.246 88.0026 101.657 87.5836 101.657 87.166V46.2854L47.8642 67.5C46.6628 67.9643 45.6792 69.4522 45.6792 70.8058L45.6835 109.199Z" fill="#EBE9E9"/>
</g>
<path d="M86.8677 64.642C86.9303 64.6171 86.996 64.6191 87.0552 64.6478C87.111 64.6749 87.1523 64.7216 87.1821 64.7719C87.2413 64.8718 87.2719 65.0136 87.272 65.1693V65.5199C87.2719 65.6775 87.2411 65.8332 87.1899 65.9594C87.1416 66.0785 87.0637 66.1983 86.9507 66.2435H86.9497L58.0249 77.4467L58.0259 77.4476C57.9627 77.4727 57.8966 77.47 57.8374 77.4408C57.7819 77.4133 57.7401 77.367 57.7104 77.3168C57.6515 77.2166 57.6216 77.0747 57.6216 76.9203V76.5707C57.6216 76.4134 57.6512 76.2571 57.7017 76.1312C57.7491 76.0129 57.827 75.8926 57.9419 75.849L86.8677 64.6429V64.642Z" fill="#D9D9D9" stroke="black" stroke-width="0.223971" stroke-miterlimit="10"/>
<mask id="mask1_2516_43809" style="mask-type:alpha" maskUnits="userSpaceOnUse" x="57" y="64" width="31" height="14">
<path d="M86.9089 64.7475C87.0473 64.6922 87.1597 64.8825 87.1597 65.1709V65.5208C87.1597 65.8093 87.0473 66.0854 86.9089 66.1407L57.9847 77.3448C57.8463 77.4 57.7339 77.2067 57.7339 76.9213V76.5714C57.7339 76.283 57.8435 76.0068 57.9819 75.9546L86.9089 64.7475Z" fill="white"/>
</mask>
<g mask="url(#mask1_2516_43809)">
<path d="M86.0695 64.4597C86.2079 64.4045 86.3204 64.5948 86.3204 64.8832V65.2331C86.3204 65.5215 86.2079 65.7977 86.0695 65.853L57.1454 77.057C57.007 77.1123 56.8945 76.9189 56.8945 76.6336V76.2837C56.8945 75.9952 57.0041 75.7191 57.1425 75.6669L86.0695 64.4597Z" fill="black" stroke="white" stroke-width="0.223971" stroke-miterlimit="10"/>
<path d="M87.1592 65.1714C87.1592 64.9444 87.09 64.7786 86.992 64.7449C86.7411 64.659 86.4066 64.5423 86.1529 64.4564C86.2509 64.4902 86.3201 64.6559 86.3201 64.883V65.2328C86.3201 65.5213 86.2077 65.7975 86.0693 65.8527L57.1451 77.0568C57.1163 77.0691 57.0875 77.0691 57.0615 77.0568C57.3124 77.1427 57.6469 77.2593 57.9006 77.3453C57.9266 77.3545 57.9554 77.3545 57.9842 77.3453L86.9084 66.1412C87.0468 66.0859 87.1592 65.8097 87.1592 65.5213V65.1714Z" fill="white" stroke="black" stroke-width="0.223971" stroke-miterlimit="10"/>
</g>
<path d="M86.8677 61.0148C86.9303 60.9899 86.996 60.9919 87.0552 61.0206C87.111 61.0477 87.1523 61.0944 87.1821 61.1447C87.2413 61.2446 87.2719 61.3864 87.272 61.5421V61.8927C87.2719 62.0503 87.2411 62.206 87.1899 62.3322C87.1416 62.4513 87.0637 62.5711 86.9507 62.6163H86.9497L58.0249 73.8195L58.0259 73.8204C57.9627 73.8455 57.8966 73.8428 57.8374 73.8136C57.7819 73.7861 57.7401 73.7398 57.7104 73.6896C57.6515 73.5894 57.6216 73.4476 57.6216 73.2931V72.9435C57.6216 72.7862 57.6512 72.6299 57.7017 72.504C57.7491 72.3857 57.827 72.2654 57.9419 72.2218L86.8677 61.0157V61.0148Z" fill="#D9D9D9" stroke="black" stroke-width="0.223971" stroke-miterlimit="10"/>
<mask id="mask2_2516_43809" style="mask-type:alpha" maskUnits="userSpaceOnUse" x="57" y="61" width="31" height="13">
<path d="M86.9089 61.1199C87.0473 61.0647 87.1597 61.2549 87.1597 61.5434V61.8932C87.1597 62.1817 87.0473 62.4579 86.9089 62.5131L57.9847 73.7172C57.8463 73.7724 57.7339 73.5791 57.7339 73.2937V72.9439C57.7339 72.6554 57.8435 72.3792 57.9819 72.327L86.9089 61.1199Z" fill="white"/>
</mask>
<g mask="url(#mask2_2516_43809)">
<path d="M86.0695 60.831C86.2079 60.7757 86.3204 60.966 86.3204 61.2544V61.6043C86.3204 61.8927 86.2079 62.1689 86.0695 62.2242L57.1454 73.4283C57.007 73.4835 56.8945 73.2902 56.8945 73.0048V72.6549C56.8945 72.3665 57.0041 72.0903 57.1425 72.0381L86.0695 60.831Z" fill="black" stroke="white" stroke-width="0.223971" stroke-miterlimit="10"/>
<path d="M87.1592 61.5427C87.1592 61.3156 87.09 61.1499 86.992 61.1161C86.7411 61.0302 86.4066 60.9136 86.1529 60.8276C86.2509 60.8614 86.3201 61.0271 86.3201 61.2542V61.604C86.3201 61.8925 86.2077 62.1687 86.0693 62.2239L57.1451 73.428C57.1163 73.4403 57.0875 73.4403 57.0615 73.428C57.3124 73.5139 57.6469 73.6305 57.9006 73.7165C57.9266 73.7257 57.9554 73.7257 57.9842 73.7165L86.9084 62.5124C87.0468 62.4572 87.1592 62.181 87.1592 61.8925V61.5427Z" fill="white" stroke="black" stroke-width="0.223971" stroke-miterlimit="10"/>
</g>
<path d="M94.6799 48.0436L52.0906 64.7144C48.4906 66.1242 42.637 66.1293 39.0153 64.7247L26.4637 59.8636C24.6444 59.16 23.7347 58.233 23.7347 57.3086L23.7227 81.9939C23.7227 82.9183 24.6323 83.8453 26.4516 84.5489L39.0057 89.4126C42.6274 90.8146 48.481 90.8095 52.0809 89.4023L94.6702 72.7314C96.463 72.0304 97.3581 71.1111 97.3581 70.1943L97.3702 45.509C97.3702 46.4258 96.475 47.3451 94.6823 48.0461L94.6799 48.0436Z" stroke="black" stroke-width="0.373285" stroke-miterlimit="10"/>
<path d="M94.6412 42.9521C98.2629 44.3541 98.2798 46.6344 94.6798 48.0442L52.0905 64.7151C48.4906 66.1249 42.637 66.13 39.0153 64.7254L26.4636 59.8643C22.8419 58.4622 22.825 56.1819 26.4226 54.7721L69.0119 38.1013C72.6119 36.6915 78.4654 36.6864 82.0896 38.0884L94.6436 42.9521H94.6412Z" fill="white" stroke="black" stroke-width="0.373285" stroke-miterlimit="10"/>
<path d="M72.624 46.5013C73.9654 47.0323 73.9716 47.8961 72.6383 48.43L56.8642 54.7445C55.5309 55.2785 53.3628 55.2805 52.0214 54.7484L47.3726 52.9072C46.0312 52.3761 46.025 51.5124 47.3574 50.9784L63.1315 44.6639C64.4648 44.1299 66.6328 44.128 67.9751 44.6591L72.6249 46.5013H72.624Z" fill="black"/>
<path d="M23.6455 80.6655L25.9071 81.5435C26.5056 81.7767 26.9955 81.4106 26.9955 80.7305V77.8592C26.9792 77.5011 26.8684 77.1552 26.6758 76.8615C26.4832 76.5678 26.2167 76.3382 25.9071 76.1994L24.5552 75.6735C24.1585 75.5111 23.8337 75.1951 23.6455 74.7885" stroke="black" stroke-width="0.373285" stroke-miterlimit="10" stroke-linecap="round"/>
<path d="M24.882 79.4406C25.2185 79.3259 25.3637 78.8059 25.2061 78.2792C25.0486 77.7524 24.6481 77.4184 24.3115 77.5332C23.975 77.6479 23.8299 78.168 23.9874 78.6947C24.1449 79.2214 24.5455 79.5554 24.882 79.4406Z" fill="black"/>
<path d="M60.5975 49.5924L56.8543 47.0968C56.7713 47.0412 56.6976 46.9627 56.6392 46.858L60.3824 49.3536C60.4408 49.4583 60.5145 49.5368 60.5975 49.5924Z" fill="#EBE9E9" stroke="#EBE9E9" stroke-width="0.373285" stroke-miterlimit="10"/>
<path d="M60.3825 49.3535L56.6393 46.8579L55.3394 44.575L59.0826 47.0705L60.3825 49.3535Z" fill="#EBE9E9" stroke="#EBE9E9" stroke-width="0.373285" stroke-miterlimit="10"/>
<path d="M71.0923 16.6269C70.6282 16.3162 70.0197 16.2507 69.3467 16.4993L46.7184 24.7906C45.2279 25.3368 43.9894 27.2142 43.9556 28.9804L43.636 45.684C43.6175 46.6555 43.9648 47.3881 44.5272 47.7642L48.2704 50.2598C47.708 49.8837 47.3607 49.1478 47.3792 48.1796L47.6988 31.4727C47.7326 29.7065 48.968 27.8291 50.4616 27.2829L73.0899 18.9949C73.7629 18.7496 74.3714 18.815 74.8355 19.1224L71.0923 16.6269Z" fill="white" stroke="black" stroke-width="0.373285" stroke-miterlimit="10"/>
<path d="M73.0902 18.995C74.5807 18.4488 75.7639 19.4398 75.7301 21.206L75.4105 37.9129C75.3767 39.6791 74.1412 41.5565 72.6476 42.1027L63.5877 45.4225L62.1802 48.6965C61.9712 49.1806 61.6209 49.5109 61.2705 49.6385C60.9202 49.766 60.576 49.6908 60.3854 49.3539L59.0854 47.0709L50.0225 50.3907C48.5319 50.9369 47.3487 49.9492 47.3825 48.1797L47.7022 31.4728C47.736 29.7066 48.9714 27.8292 50.465 27.283L73.0902 18.995Z" fill="#EBE9E9" stroke="black" stroke-width="0.373285" stroke-miterlimit="10"/>
<path d="M60.2927 42.376L59.3584 41.7513C59.3338 41.7349 59.3093 41.7153 59.2847 41.6957L60.2189 42.3204C60.2435 42.34 60.2681 42.3596 60.2927 42.376Z" fill="#EBE9E9" stroke="black" stroke-width="0.373285" stroke-miterlimit="10"/>
<path d="M69.7459 25.751C69.4939 25.5842 69.1773 25.5678 68.8577 25.6856C68.5043 25.8131 68.1509 26.1042 67.8743 26.5196L60.3633 37.9148L61.2975 38.5395L68.8085 27.1443C69.0821 26.7289 69.4386 26.4379 69.792 26.3103C70.1116 26.1925 70.4281 26.2089 70.6802 26.3757L69.7459 25.751Z" fill="#EBE9E9" stroke="black" stroke-width="0.373285" stroke-miterlimit="10"/>
<path d="M55.821 36.2959C56.0946 35.8806 56.4511 35.5895 56.8014 35.4619C57.121 35.3442 57.4376 35.3572 57.6896 35.5273L56.7553 34.9026C56.5033 34.7358 56.1868 34.7194 55.8671 34.8372C55.5137 34.9648 55.1603 35.2558 54.8837 35.6712C54.3336 36.5053 54.3152 37.5355 54.8407 37.9771L59.2846 41.6992L60.2188 42.3239L55.7749 38.6018C55.2494 38.1603 55.2709 37.13 55.818 36.2959H55.821Z" fill="#EBE9E9" stroke="black" stroke-width="0.373285" stroke-miterlimit="10"/>
<path d="M69.7919 26.3104C70.1453 26.1828 70.4926 26.2123 70.7569 26.4314C71.2824 26.8697 71.2609 27.9033 70.7138 28.7373L62.2471 41.5814C61.9735 41.9968 61.6201 42.2814 61.2698 42.4089C60.8334 42.5692 60.4861 42.5398 60.2249 42.3206L55.781 38.5985C55.2554 38.157 55.277 37.1267 55.824 36.2927C56.0975 35.8773 56.454 35.5862 56.8044 35.4586C57.1547 35.3311 57.5051 35.3605 57.7694 35.5797L61.3005 38.5397L68.8115 27.1444C69.085 26.7291 69.4415 26.438 69.7949 26.3104H69.7919Z" fill="#1E2D64" stroke="black" stroke-width="0.373285" stroke-miterlimit="10"/>
<path d="M152.456 91.0338L159.381 88.3059C160.666 87.8008 160.666 86.9729 159.381 86.4663L151.417 83.3301L152.456 91.0338Z" fill="black" stroke="white" stroke-width="0.373285"/>
<path d="M151.534 75.1943L127.22 84.7126C124.145 85.9167 119.144 85.9211 116.05 84.7236L91.5915 75.2491C90.0398 74.6482 89.2629 73.8587 89.2629 73.0669L89.2588 89.395C89.2588 90.1846 90.0357 90.9741 91.5874 91.5772L116.046 101.052C119.139 102.249 124.139 102.245 127.215 101.041L151.53 91.5224C153.061 90.9237 153.826 90.1385 153.826 89.3555L153.83 73.0275C153.83 73.8104 153.065 74.5956 151.534 75.1943Z" fill="white"/>
<path d="M151.502 70.846C154.595 72.0434 154.609 73.991 151.534 75.195L127.22 84.7133C124.145 85.9174 119.144 85.9218 116.051 84.7243L91.5919 75.2498C88.4987 74.0524 88.4843 72.1049 91.561 70.9008L115.873 61.3825C118.948 60.1785 123.947 60.1741 127.041 61.3715L151.499 70.846H151.502Z" fill="white" stroke="black" stroke-width="0.373285" stroke-miterlimit="10"/>
<mask id="mask3_2516_43809" style="mask-type:alpha" maskUnits="userSpaceOnUse" x="89" y="73" width="65" height="29">
<path d="M151.534 75.1943L127.22 84.7126C124.145 85.9167 119.144 85.9211 116.05 84.7236L91.5915 75.2491C90.0398 74.6482 89.2629 73.8587 89.2629 73.0669L89.2588 89.395C89.2588 90.1846 90.0357 90.9741 91.5874 91.5772L116.046 101.052C119.139 102.249 124.139 102.245 127.215 101.041L151.53 91.5224C153.061 90.9237 153.826 90.1385 153.826 89.3555L153.83 73.0275C153.83 73.8104 153.065 74.5956 151.534 75.1943Z" fill="white"/>
</mask>
<g mask="url(#mask3_2516_43809)">
<path d="M122.709 102.332C123.795 102.332 124.88 102.182 125.698 101.857L153.32 91.2104C154.143 90.8939 154.554 90.4748 154.554 90.0572V74.8557L124.89 86.3123C123.688 86.7766 122.705 88.2644 122.705 89.6181L122.709 102.332Z" fill="#EBE9E9"/>
</g>
<path d="M151.534 75.1932L127.22 84.7115C124.145 85.9156 119.144 85.92 116.05 84.7225L91.5915 75.248C90.0398 74.6471 89.2629 73.8576 89.2629 73.0658L89.2588 89.3939C89.2588 90.1835 90.0357 90.973 91.5874 91.5761L116.046 101.051C119.139 102.248 124.139 102.244 127.215 101.04L151.53 91.5213C153.061 90.9226 153.826 90.1374 153.826 89.3544L153.83 73.0264C153.83 73.8093 153.065 74.5945 151.534 75.1932V75.1932Z" stroke="black" stroke-width="0.373285" stroke-miterlimit="10"/>
<path d="M126.365 81.2757L144.333 74.1832C147.667 72.8697 147.667 70.7172 144.333 69.4001L123.67 61.246L126.365 81.2757Z" fill="black"/>
<path d="M142.2 65.5878L129.865 52.5706C129.537 52.2268 129.147 51.9973 128.727 51.8978L118.443 49.4052C118.863 49.5072 119.254 49.7342 119.582 50.0779L131.917 63.0952C132.59 63.8059 132.851 64.8706 132.619 65.9414C132.387 67.0122 131.704 67.8645 130.798 68.222L114.184 74.7955C113.716 74.9802 113.24 75.0145 112.795 74.9058L123.078 77.3985C123.524 77.5072 123.999 77.4729 124.468 77.2881L141.081 70.7147C141.989 70.3543 142.67 69.5023 142.903 68.4341C143.135 67.3633 142.874 66.3011 142.2 65.5878Z" fill="black" stroke="black" stroke-width="0.373285" stroke-miterlimit="10"/>
<path d="M118.776 48.0679C118.143 47.9134 117.461 47.9639 116.797 48.2258C115.503 48.7368 114.531 49.9515 114.198 51.477L109.909 71.117C109.576 72.6425 109.95 74.1574 110.911 75.1719C111.376 75.6619 111.934 75.9844 112.53 76.1314L122.842 78.6304C122.244 78.4862 121.689 78.1634 121.223 77.6709C120.263 76.6564 119.888 75.1415 120.221 73.616L124.51 53.976C124.843 52.4505 125.816 51.2358 127.109 50.7248C127.776 50.4626 128.455 50.4124 129.089 50.5669L118.776 48.0679Z" fill="white" stroke="black" stroke-width="0.373285" stroke-miterlimit="10"/>
<path d="M142.968 64.6709C143.927 65.684 144.301 67.1968 143.968 68.7202C143.635 70.241 142.667 71.4562 141.376 71.9665L124.745 78.5473C123.456 79.0572 122.112 78.7574 121.153 77.7469C120.195 76.7338 119.821 75.221 120.154 73.6976L124.435 54.0854C124.767 52.562 125.738 51.349 127.029 50.8387C128.321 50.3284 129.663 50.6261 130.621 51.6391L142.968 64.6709ZM142.904 68.4806C143.137 67.4087 142.876 66.3452 142.201 65.6312L129.854 52.5994C129.178 51.8882 128.232 51.6756 127.326 52.036C126.419 52.3964 125.735 53.2497 125.503 54.3217L121.219 73.9343C120.987 75.0062 121.248 76.0697 121.923 76.7837C122.599 77.4949 123.544 77.705 124.451 77.3446L141.081 70.7638C141.99 70.403 142.672 69.55 142.904 68.4806Z" fill="white"/>
<path d="M142.904 68.4806C143.137 67.4087 142.876 66.3452 142.201 65.6312L129.854 52.5994C129.178 51.8882 128.232 51.6756 127.326 52.036C126.419 52.3964 125.735 53.2497 125.503 54.3217L121.219 73.9343C120.987 75.0062 121.248 76.0697 121.923 76.7837C122.599 77.4949 123.544 77.705 124.451 77.3446L141.081 70.7638C141.99 70.403 142.672 69.55 142.904 68.4806M142.968 64.6709C143.927 65.684 144.301 67.1968 143.968 68.7202C143.635 70.241 142.667 71.4562 141.376 71.9665L124.745 78.5473C123.456 79.0572 122.112 78.7574 121.153 77.7469C120.195 76.7338 119.821 75.221 120.154 73.6976L124.435 54.0854C124.767 52.562 125.738 51.349 127.029 50.8387C128.321 50.3284 129.663 50.6261 130.621 51.6391L142.968 64.6709V64.6709Z" stroke="black" stroke-width="0.373285" stroke-miterlimit="10"/>
<path d="M128.727 78.0443C127.754 80.8863 125.528 82.6551 123.23 81.765L103.833 74.2425C101.479 73.3298 100.901 70.4699 101.874 67.6279L122.675 6.8806C123.649 4.03859 125.915 2.2828 128.173 3.15178L147.571 10.6824C149.748 11.527 150.502 14.455 149.53 17.297L128.727 78.0443Z" fill="white" stroke="black" stroke-width="0.373285" stroke-miterlimit="10" stroke-linecap="round"/>
<path fill-rule="evenodd" clip-rule="evenodd" d="M134.832 60.2176C134.332 60.1851 133.825 60.0742 133.315 59.8771L107.896 50.0403L101.874 67.6277C100.901 70.4697 101.479 73.3296 103.833 74.2423L123.23 81.7648C125.528 82.6549 127.754 80.8861 128.727 78.0441L134.832 60.2176Z" fill="black"/>
<path d="M134.832 60.2176L135.009 60.2781L135.088 60.0472L134.844 60.0313L134.832 60.2176ZM133.315 59.8771L133.248 60.0512L133.248 60.0512L133.315 59.8771ZM107.896 50.0403L107.964 49.8662L107.783 49.7962L107.72 49.9798L107.896 50.0403ZM101.874 67.6277L102.051 67.6882L102.051 67.6882L101.874 67.6277ZM103.833 74.2423L103.901 74.0683H103.901L103.833 74.2423ZM123.23 81.7648L123.162 81.9388L123.162 81.9389L123.23 81.7648ZM128.727 78.0441L128.904 78.1046L128.904 78.1046L128.727 78.0441ZM134.832 60.2176L134.844 60.0313C134.364 60.0002 133.875 59.8935 133.382 59.703L133.315 59.8771L133.248 60.0512C133.775 60.2549 134.301 60.3701 134.82 60.4038L134.832 60.2176ZM133.315 59.8771L133.382 59.7031L107.964 49.8662L107.896 50.0403L107.829 50.2143L133.248 60.0512L133.315 59.8771ZM101.874 67.6277L102.051 67.6882L108.073 50.1007L107.896 50.0403L107.72 49.9798L101.697 67.5673L101.874 67.6277ZM103.833 74.2423L103.901 74.0683C102.788 73.6367 102.091 72.7462 101.786 71.6102C101.481 70.4695 101.573 69.0827 102.051 67.6882L101.874 67.6277L101.697 67.5672C101.202 69.0148 101.097 70.4788 101.426 71.7068C101.756 72.9394 102.525 73.9352 103.766 74.4163L103.833 74.2423ZM123.23 81.7648L123.297 81.5908L103.901 74.0683L103.833 74.2423L103.766 74.4163L123.162 81.9388L123.23 81.7648ZM128.727 78.0441L128.551 77.9836C128.073 79.3772 127.294 80.4935 126.367 81.1518C125.446 81.8067 124.38 82.0102 123.297 81.5908L123.23 81.7648L123.162 81.9389C124.378 82.4095 125.574 82.1736 126.584 81.4561C127.588 80.7421 128.408 79.553 128.904 78.1046L128.727 78.0441ZM134.832 60.2176L134.655 60.1571L128.551 77.9836L128.727 78.0441L128.904 78.1046L135.009 60.2781L134.832 60.2176Z" fill="black"/>
<path d="M149.853 13.5905C149.853 13.5905 149.499 12.2935 149.043 11.7974L147.006 10.9868L147.217 12.5951L149.853 13.5905Z" fill="black"/>
<path d="M149.53 17.2963C149.714 16.7628 149.839 16.2084 149.902 15.6442L147.69 14.8158L124.876 80.0458L127.058 80.7997C127.815 80.0317 128.389 79.0831 128.734 78.0322L149.53 17.2963Z" fill="black"/>
<path d="M127.059 80.8004C127.816 80.0325 128.39 79.0839 128.734 78.033L135.439 58.4143" stroke="#EBE9E9" stroke-width="0.373285" stroke-miterlimit="10" stroke-linecap="round"/>
<path d="M126.798 77.2895C125.824 80.1316 123.599 81.9003 121.3 81.0103L101.899 73.4878C99.8348 72.6934 98.9681 69.7152 99.9415 66.8732L120.743 6.13072C121.716 3.28871 123.981 1.53292 126.24 2.4019L145.637 9.92601C147.815 10.7707 148.569 13.6986 147.596 16.5406L126.798 77.2895Z" fill="#EBE9E9" stroke="black" stroke-width="0.373285" stroke-miterlimit="10" stroke-linecap="round"/>
<path d="M145.123 29.1564C145.215 28.8888 145.085 28.5929 144.834 28.4955C144.583 28.398 144.305 28.5358 144.213 28.8034L142.206 34.6649C142.115 34.9324 142.244 35.2283 142.496 35.3258C142.747 35.4232 143.025 35.2854 143.117 35.0179L145.123 29.1564Z" fill="white" stroke="black" stroke-width="0.373285" stroke-miterlimit="10" stroke-linecap="round"/>
<path d="M145.254 10.8214C138.829 8.33231 132.366 6.01141 125.997 3.35725C124.137 2.63743 122.273 4.08194 121.471 6.42137L100.67 67.1573C99.8691 69.4968 100.579 71.9399 102.282 72.6014L121.54 80.0688C123.427 80.8016 125.263 79.3457 126.064 77.0063L146.865 16.2638C147.667 13.9244 147.045 11.5153 145.254 10.8214Z" fill="white"/>
<path d="M123.147 17.4771C121.974 17.0236 120.466 18.267 119.787 20.2529L112.321 42.0877C111.642 44.0736 112.045 46.057 113.218 46.5105L113.56 46.6426C112.387 46.1891 111.984 44.2032 112.663 42.2198L120.129 20.3849C120.808 18.399 122.314 17.1557 123.489 17.6092L123.147 17.4771Z" fill="white" stroke="black" stroke-width="0.373285" stroke-miterlimit="10"/>
<path d="M138.04 22.184C139.519 22.7571 140.027 25.2588 139.17 27.7605L131.704 49.5953C130.85 52.097 128.949 53.6668 127.469 53.0937L112.897 47.4475C111.417 46.8744 110.912 44.3727 111.766 41.871L119.232 20.0362C120.087 17.5345 121.986 15.9647 123.465 16.5378L138.037 22.184H138.04Z" fill="#1E2D64" stroke="black" stroke-width="0.373285" stroke-miterlimit="10"/>
<path d="M138.381 22.3194L138.04 22.1874C139.519 22.7605 140.027 25.2621 139.17 27.7638L131.704 49.5987C130.85 52.1003 128.948 53.6701 127.469 53.097L127.811 53.2291C129.29 53.8022 131.189 52.2324 132.046 49.7307L139.512 27.8959C140.367 25.3942 139.861 22.8925 138.381 22.3194Z" fill="black" stroke="black" stroke-width="0.373285" stroke-miterlimit="10"/>
<path d="M124.61 34.6686C127.705 35.8672 128.977 40.6587 127.778 45.8415C127.558 46.7908 126.851 47.4611 126.303 47.2493L115.714 43.1479C115.166 42.9361 115.03 41.9395 115.435 41.0624C117.647 36.2708 121.515 33.4701 124.61 34.6686Z" fill="white" stroke="black" stroke-width="0.373285" stroke-miterlimit="10"/>
<path d="M124.611 34.6676L125.465 34.999C128.561 36.1975 129.832 40.9891 128.633 46.1718C128.413 47.1212 127.706 47.7914 127.158 47.5796L126.304 47.2482C126.851 47.46 127.558 46.7923 127.779 45.8404C128.977 40.6552 127.704 35.8661 124.611 34.6676Z" fill="black" stroke="black" stroke-width="0.373285" stroke-miterlimit="10"/>
<path d="M128.792 22.4454L129.646 22.7768C131.484 23.4895 132.114 26.5842 131.049 29.6938C129.986 32.801 127.633 34.7445 125.795 34.0344L124.94 33.703C126.778 34.4156 129.131 32.4721 130.194 29.3624C131.257 26.2528 130.63 23.1556 128.792 22.4454Z" fill="black" stroke="black" stroke-width="0.373285" stroke-miterlimit="10"/>
<path d="M130.195 29.3601C131.258 26.2514 130.63 23.154 128.792 22.4419C126.953 21.7298 124.601 23.6726 123.538 26.7813C122.475 29.89 123.103 32.9874 124.941 33.6996C126.78 34.4117 129.132 32.4688 130.195 29.3601Z" fill="white" stroke="black" stroke-width="0.373285" stroke-miterlimit="10"/>
<path d="M121.179 62.4894C121.944 62.786 122.204 64.0742 121.762 65.3674C121.319 66.6606 120.341 67.4704 119.575 67.1739L109.084 63.1099C108.321 62.8134 108.058 61.5252 108.501 60.2295C108.943 58.9338 109.922 58.129 110.685 58.4255L121.176 62.4894H121.179Z" fill="#050505" stroke="black" stroke-width="0.373285" stroke-miterlimit="10"/>
<path d="M113.558 62.4816C113.539 62.5782 113.527 62.6689 113.519 62.7551C113.369 62.8725 113.248 62.9721 113.153 63.0524C113.089 63.1015 113.041 63.1461 113.008 63.1832L112.969 62.9558C113.029 62.8904 113.072 62.819 113.098 62.7402L113.341 62.0029L113.184 61.9405L113.265 61.6952L113.568 61.8171L113.272 62.7105C113.315 62.6838 113.411 62.6065 113.558 62.4801V62.4816Z" fill="white"/>
<path d="M113.834 61.5118L113.646 61.6367C113.629 61.4955 113.604 61.326 113.572 61.1283L113.742 61.0183C113.772 61.1714 113.803 61.3364 113.834 61.5104V61.5118Z" fill="white"/>
<path d="M114.324 61.7194C114.096 62.5385 114.054 63.1391 114.2 63.5167C114.182 63.5315 114.153 63.5642 114.111 63.6133C114.065 63.6624 114.032 63.6966 114.012 63.7189C113.909 63.3725 113.914 62.9444 114.023 62.433C113.826 62.873 113.568 63.2149 113.246 63.4557C113.242 63.3502 113.235 63.2595 113.223 63.1807C113.592 62.9503 113.892 62.488 114.122 61.7938C114.146 61.7224 114.185 61.6079 114.241 61.4533L114.305 61.2556L114.463 61.3181C114.405 61.495 114.358 61.6287 114.324 61.7194Z" fill="white"/>
<path d="M115.311 63.8954L115.659 64.0351L115.585 64.2596L114.589 63.8612L114.665 63.6367L114.822 63.6991L115.234 62.4519L115.38 62.5114L114.968 63.7586L115.16 63.8344L115.692 62.2245L115.27 62.055L115.351 61.8082L116.246 62.1665L116.163 62.4133L115.843 62.2854L115.635 62.9127L115.916 63.0257L115.838 63.2606L115.558 63.1491L115.311 63.8954Z" fill="white"/>
<path d="M114.888 63.1351C114.853 63.254 114.827 63.3551 114.812 63.4384C114.708 63.5231 114.577 63.6301 114.419 63.7595L114.389 63.5246C114.438 63.477 114.481 63.3982 114.518 63.2868L114.755 62.5687L114.615 62.5123L114.696 62.267L114.982 62.3814L114.67 63.3239C114.682 63.315 114.709 63.2912 114.75 63.257C114.811 63.199 114.857 63.1589 114.886 63.1336L114.888 63.1351Z" fill="white"/>
<path d="M115.205 62.0967L115.019 62.1995C115.01 62.0565 114.996 61.8822 114.973 61.6812L115.142 61.5918C115.144 61.6082 115.148 61.6365 115.152 61.6752C115.177 61.8703 115.194 62.0118 115.204 62.0967H115.205Z" fill="white"/>
<path d="M89.2197 88.1987L91.4813 89.0767C92.0798 89.3099 92.5697 88.9438 92.5697 88.2637V85.3924C92.5534 85.0343 92.4426 84.6884 92.25 84.3947C92.0574 84.101 91.7909 83.8714 91.4813 83.7326L90.1294 83.2067C89.7327 83.0443 89.408 82.7283 89.2197 82.3217" stroke="black" stroke-width="0.373285" stroke-miterlimit="10" stroke-linecap="round"/>
<path d="M90.4567 86.975C90.7932 86.8602 90.9384 86.3402 90.7808 85.8135C90.6233 85.2867 90.2228 84.9528 89.8862 85.0675C89.5497 85.1822 89.4046 85.7023 89.5621 86.229C89.7196 86.7557 90.1202 87.0897 90.4567 86.975Z" fill="black"/>
<path d="M127.856 95.1703C128.193 95.2851 128.338 95.8051 128.18 96.3318C128.023 96.8585 127.622 97.1925 127.286 97.0778C126.949 96.963 126.804 96.443 126.962 95.9163C127.119 95.3895 127.52 95.0556 127.856 95.1703Z" fill="black"/>
<path d="M154.373 100.818L159.234 98.9351C160.136 98.5864 160.136 98.015 159.234 97.6654L153.645 95.5009L154.373 100.818Z" fill="black" stroke="white" stroke-width="0.373285"/>
<path d="M154.425 100.803L150.083 102.462C149.655 102.625 149.272 102.125 149.508 101.712L154.667 92.6649C154.92 92.2208 155.562 92.4107 155.562 92.9302V98.6687C155.562 100.13 154.804 100.701 154.425 100.803Z" fill="#EBE9E9" stroke="black" stroke-width="0.373285"/>
<path d="M147.691 89.8322C147.932 89.4136 148.418 89.2343 148.85 89.4042L154.842 91.7566C155.412 91.9805 155.647 92.7026 155.329 93.2544L150.229 102.11C149.988 102.528 149.503 102.708 149.07 102.538L143.078 100.185C142.508 99.9615 142.273 99.2394 142.591 98.6876L147.691 89.8322Z" fill="white" stroke="black" stroke-width="0.373285"/>
<mask id="mask4_2516_43809" style="mask-type:alpha" maskUnits="userSpaceOnUse" x="142" y="89" width="14" height="14">
<path d="M147.691 89.8322C147.932 89.4136 148.418 89.2343 148.85 89.4042L154.842 91.7566C155.412 91.9805 155.647 92.7026 155.329 93.2544L150.229 102.11C149.988 102.528 149.503 102.708 149.07 102.538L143.078 100.185C142.508 99.9615 142.273 99.2394 142.591 98.6876L147.691 89.8322Z" fill="#2D3033"/>
</mask>
<g mask="url(#mask4_2516_43809)">
<path fill-rule="evenodd" clip-rule="evenodd" d="M147.647 93.3666C147.43 93.2815 147.187 93.3717 147.067 93.5817L143.228 100.285C143.07 100.56 143.188 100.921 143.473 101.032L147.482 102.606C147.698 102.691 147.942 102.601 148.062 102.391L151.901 95.6884C152.059 95.4125 151.941 95.0524 151.656 94.9406L147.647 93.3666Z" fill="white" stroke="black" stroke-width="0.373285"/>
</g>
<path d="M147.691 89.8322C147.932 89.4136 148.418 89.2343 148.85 89.4042L154.842 91.7566C155.412 91.9805 155.647 92.7026 155.329 93.2544L150.229 102.11C149.988 102.528 149.503 102.708 149.07 102.538L143.078 100.185C142.508 99.9615 142.273 99.2394 142.591 98.6876L147.691 89.8322Z" stroke="black" stroke-width="0.373285"/>
<ellipse cx="0.728627" cy="1.02115" rx="0.728627" ry="1.02115" transform="matrix(0.942613 0.333887 -0.298474 0.954418 146.894 96.8481)" fill="black"/>
<path d="M127.177 95.9558C127.274 95.6935 127.544 95.5772 127.774 95.6736L136.739 99.4265L136.783 99.4509C137.37 99.7787 139.439 100.393 142.027 99.3962C144.869 98.3012 146.445 97.7195 146.886 97.5632C147.121 97.4799 147.386 97.6121 147.47 97.8806C147.555 98.1525 147.413 98.4362 147.174 98.5212C146.744 98.6736 145.177 99.2512 142.337 100.345C139.511 101.434 137.182 100.803 136.365 100.35L136.357 100.346L136.35 100.344L127.441 96.613C127.205 96.5142 127.078 96.2221 127.177 95.9558Z" fill="black" stroke="black" stroke-width="0.298628" stroke-linecap="round"/>
<path d="M142.182 99.8709C145.023 98.776 146.595 98.1964 147.03 98.0422M130.587 97.3907L127.607 96.1431M133.567 98.6384L132.077 98.0146" stroke="#1E2D64" stroke-width="0.597256" stroke-linecap="round"/>
<path fill-rule="evenodd" clip-rule="evenodd" d="M24.3545 78.4627C24.4463 78.729 24.3179 79.0241 24.0677 79.1218C23.2153 79.4549 22.5902 79.7588 22.1756 79.9812C21.9244 80.1159 21.7625 80.4038 21.7625 80.7507V84.0044C21.7625 84.8616 22.2626 85.6287 23.0171 85.9287L44.301 94.394C46.9273 95.4386 49.8205 95.4338 52.4437 94.3805L69.5843 87.8146C72.382 86.6912 75.4648 86.6682 78.2771 87.7497L85.822 90.1878C86.4512 90.4298 87.1152 89.9337 87.1152 89.2218V88.1132C87.1152 87.2607 87.6098 86.4969 88.3583 86.1934L89.9594 85.5443C90.2085 85.4433 90.4873 85.5763 90.5822 85.8414C90.6771 86.1064 90.5521 86.4032 90.303 86.5041L88.7019 87.1533C88.3276 87.305 88.0803 87.687 88.0803 88.1132V89.2218C88.0803 90.6457 86.7523 91.6378 85.494 91.1539L77.9491 88.7158C75.3532 87.7175 72.5075 87.7387 69.925 88.7757L52.7844 95.3415C49.9426 96.4826 46.8083 96.4878 43.9632 95.3562L22.6792 86.8909C21.5475 86.4408 20.7974 85.2902 20.7974 84.0044V80.7507C20.7974 80.0646 21.1256 79.3942 21.7412 79.0639C22.1885 78.824 22.8476 78.5043 23.7351 78.1576C23.9853 78.0598 24.2626 78.1964 24.3545 78.4627Z" fill="black" stroke="black" stroke-width="0.373285" stroke-linecap="round"/>
<path fill-rule="evenodd" clip-rule="evenodd" d="M23.3078 78.8788C23.3692 79.0359 23.2992 79.2163 23.1516 79.2816C22.7095 79.4772 22.3568 79.6535 22.0891 79.7971C21.7649 79.971 21.5693 80.3358 21.5693 80.7504V81.2072C21.5693 81.3774 21.4397 81.5154 21.2798 81.5154C21.1199 81.5154 20.9902 81.3774 20.9902 81.2072V80.7504C20.9902 80.1319 21.2859 79.5378 21.8285 79.2467C22.1086 79.0965 22.4741 78.9139 22.9293 78.7125C23.0769 78.6472 23.2464 78.7216 23.3078 78.8788ZM89.7683 86.1709C89.8252 86.33 89.7502 86.508 89.6008 86.5686L88.633 86.961C88.1839 87.143 87.8871 87.6013 87.8871 88.1128V89.2337C87.8871 89.4039 87.7575 89.5419 87.5976 89.5419C87.4376 89.5419 87.308 89.4039 87.308 89.2337V88.1128C87.308 87.3456 87.7532 86.6581 88.4268 86.385L89.3946 85.9927C89.544 85.9321 89.7113 86.0119 89.7683 86.1709ZM21.2798 82.0437C21.4397 82.0437 21.5693 82.1817 21.5693 82.3519V83.4965C21.5693 83.6667 21.4397 83.8046 21.2798 83.8046C21.1199 83.8046 20.9902 83.6667 20.9902 83.4965V82.3519C20.9902 82.1817 21.1199 82.0437 21.2798 82.0437Z" fill="#1E2D64"/>
<path fill-rule="evenodd" clip-rule="evenodd" d="M70.3478 88.0778C70.4018 88.238 70.3236 88.4144 70.1731 88.4719L68.7698 89.0079C68.6193 89.0654 68.4535 88.9822 68.3995 88.822C68.3455 88.6618 68.4237 88.4854 68.5742 88.4279L69.9775 87.8919C70.128 87.8344 70.2938 87.9176 70.3478 88.0778ZM67.5413 89.1498C67.5953 89.31 67.5171 89.4865 67.3666 89.544L61.7536 91.6881C61.603 91.7456 61.4372 91.6623 61.3832 91.5022C61.3292 91.342 61.4074 91.1655 61.5579 91.108L67.1709 88.9639C67.3215 88.9064 67.4873 88.9897 67.5413 89.1498Z" fill="#1E2D64"/>
<path d="M70.3478 88.0778C70.4018 88.238 70.3236 88.4144 70.1731 88.4719L68.7698 89.0079C68.6193 89.0654 68.4535 88.9822 68.3995 88.822C68.3455 88.6618 68.4237 88.4854 68.5742 88.4279L69.9775 87.8919C70.128 87.8344 70.2938 87.9176 70.3478 88.0778Z" fill="#1E2D64"/>
<path d="M67.5413 89.1498C67.5953 89.31 67.5171 89.4865 67.3666 89.544L61.7536 91.6881C61.603 91.7456 61.4372 91.6623 61.3832 91.5022C61.3292 91.342 61.4074 91.1655 61.5579 91.108L67.1709 88.9639C67.3215 88.9064 67.4873 88.9897 67.5413 89.1498Z" fill="#1E2D64"/>
<path d="M108.215 104.227C111.308 105.424 111.322 107.372 108.248 108.576L83.9333 118.094C80.8587 119.298 75.8573 119.303 72.7641 118.105L48.3052 108.631C45.2121 107.433 45.1977 105.486 48.2743 104.282L72.5869 94.7635C75.6615 93.5594 80.6608 93.555 83.754 94.7525L108.213 104.227H108.215Z" fill="#EBE9E9" stroke="black" stroke-width="0.373285" stroke-miterlimit="10"/>
<path d="M95.7549 110.332L99.0952 109.039C99.7149 108.799 99.7149 108.406 99.0952 108.166L95.2539 106.678L95.7549 110.332Z" fill="black"/>
<path d="M70.7061 102.529C71.7824 102.529 72.8506 102.668 73.7129 102.941L74.0693 103.066L88.6426 108.689C89.1013 108.866 89.4319 109.067 89.6445 109.271C89.8562 109.474 89.9414 109.669 89.9414 109.845C89.9414 110.021 89.8561 110.216 89.6445 110.419C89.4318 110.623 89.1006 110.824 88.6416 111.002L84.7852 112.327L84.7783 112.329C83.8614 112.685 82.64 112.866 81.4102 112.866C80.1804 112.866 78.9613 112.685 78.0479 112.329H78.0469L63.4727 106.706C63.0144 106.529 62.6841 106.327 62.4717 106.123C62.2603 105.92 62.1748 105.725 62.1748 105.549C62.1748 105.373 62.2602 105.178 62.4717 104.975C62.6841 104.771 63.0143 104.57 63.4727 104.393L63.4717 104.392L67.3311 103.068L67.3379 103.066C68.2548 102.71 69.4761 102.529 70.7061 102.529Z" fill="white" stroke="black" stroke-width="0.373285" stroke-miterlimit="10" stroke-linecap="round"/>
<path d="M97.3359 108.807C97.5172 109.104 97.3864 109.493 97.0625 109.62L88.3721 113.021L87.7793 104.956L93.0869 101.853L97.3359 108.807Z" fill="#EBE9E9" stroke="black" stroke-width="0.373285"/>
<path d="M66.3677 92.4165C66.6492 91.7766 67.3849 91.472 68.0366 91.7251L92.1577 101.09C92.8512 101.36 93.18 102.153 92.8804 102.834L88.73 112.267C88.4483 112.907 87.7135 113.211 87.062 112.958L62.9409 103.593C62.2473 103.324 61.9179 102.53 62.2173 101.849L66.3677 92.4165Z" fill="white" stroke="black" stroke-width="0.373285"/>
<path d="M67.151 95.0712C67.4711 94.3437 68.3051 93.9944 69.0481 94.2767L89.2868 101.967C90.0858 102.271 90.4674 103.182 90.1231 103.964L87.6725 109.534C87.3524 110.262 86.5184 110.611 85.7754 110.328L65.5367 102.638C64.7377 102.335 64.3562 101.424 64.7004 100.641L67.151 95.0712Z" fill="black"/>
<mask id="mask5_2516_43809" style="mask-type:alpha" maskUnits="userSpaceOnUse" x="64" y="94" width="27" height="17">
<path d="M67.151 95.0719C67.4711 94.3444 68.3051 93.9952 69.0481 94.2775L89.2868 101.968C90.0858 102.271 90.4674 103.182 90.1231 103.965L87.6725 109.535C87.3524 110.262 86.5185 110.612 85.7754 110.329L65.5368 102.639C64.7377 102.335 64.3562 101.424 64.7004 100.642L67.151 95.0719Z" fill="black"/>
</mask>
<g mask="url(#mask5_2516_43809)">
<path d="M66.5764 100.802L65.8261 100.507L65.3251 101.641L66.0755 101.936L66.5764 100.802Z" fill="#1E2D64"/>
<path d="M84.9173 105.158L84.1669 104.864L83.666 105.998L84.4163 106.292L84.9173 105.158Z" fill="#1E2D64"/>
<path d="M81.5808 99.735L80.8305 99.4402L80.3295 100.574L81.0799 100.869L81.5808 99.735Z" fill="#1E2D64"/>
<path d="M69.3542 98.5884L68.6039 98.2936L66.8119 102.2L67.5623 102.495L69.3542 98.5884Z" fill="#1E2D64"/>
<path d="M74.321 99.5342L73.5706 99.2394L71.7787 103.146L72.5291 103.441L74.321 99.5342Z" fill="#1E2D64"/>
<path d="M76.9074 97.92L76.1571 97.6252L74.3652 101.532L75.1155 101.827L76.9074 97.92Z" fill="#1E2D64"/>
<path d="M84.9382 100.943L84.1878 100.648L82.3959 104.555L83.1463 104.849L84.9382 100.943Z" fill="#1E2D64"/>
<path d="M88.115 105.933L87.3646 105.638L85.5727 109.544L86.3231 109.839L88.115 105.933Z" fill="#1E2D64"/>
<path d="M79.6701 100.037L78.9197 99.7419L76.7566 104.334L77.507 104.629L79.6701 100.037Z" fill="#1E2D64"/>
<path d="M71.5846 97.6395L70.8343 97.3447L69.5478 100.088L70.2982 100.382L71.5846 97.6395Z" fill="#1E2D64"/>
<path d="M72.1032 100.379L71.3528 100.084L70.4607 102.018L71.2111 102.313L72.1032 100.379Z" fill="#1E2D64"/>
<path d="M77.8346 99.9428L77.0843 99.648L76.1922 101.582L76.9425 101.876L77.8346 99.9428Z" fill="#1E2D64"/>
<path d="M83.2775 100.327L82.5271 100.032L81.635 101.966L82.3854 102.261L83.2775 100.327Z" fill="#1E2D64"/>
<path d="M85.9484 106.788L85.198 106.493L84.3059 108.426L85.0563 108.721L85.9484 106.788Z" fill="#1E2D64"/>
<path d="M80.8047 101.411L80.0543 101.116L79.149 103.075L79.8993 103.369L80.8047 101.411Z" fill="#1E2D64"/>
<path d="M86.7537 105.048L86.0033 104.753L85.5024 105.887L86.2528 106.182L86.7537 105.048Z" fill="#1E2D64"/>
<path d="M80.8538 105.763L80.1034 105.468L79.6025 106.602L80.3529 106.897L80.8538 105.763Z" fill="#1E2D64"/>
<path d="M74.5955 102.882L73.8451 102.587L73.3442 103.721L74.0946 104.015L74.5955 102.882Z" fill="#1E2D64"/>
<path d="M70.1765 96.805L69.4262 96.5102L68.9252 97.6442L69.6756 97.939L70.1765 96.805Z" fill="#1E2D64"/>
<path d="M72.1944 96.3153L71.444 96.0205L71.1054 96.7255L71.8558 97.0203L72.1944 96.3153Z" fill="#1E2D64"/>
<path d="M88.9568 104.184L88.2064 103.89L87.7055 105.024L88.4559 105.318L88.9568 104.184Z" fill="#1E2D64"/>
</g>
<path d="M67.3223 95.146C67.6025 94.5098 68.3315 94.2048 68.9814 94.4517L89.2207 102.141C89.9198 102.407 90.2533 103.205 89.9521 103.889L87.502 109.458C87.2219 110.095 86.4919 110.401 85.8418 110.154L65.6035 102.463C64.9044 102.198 64.5699 101.401 64.8711 100.716L67.3223 95.146Z" stroke="black" stroke-width="0.373285"/>
</svg>
